<svg width="59" height="59" viewBox="0 0 59 59" fill="none" xmlns="http://www.w3.org/2000/svg">
<circle cx="29.5" cy="29.5" r="29.5" fill="#00ACDE"/>
<path d="M36.4431 27.8226C36.4473 27.6322 36.3921 27.4451 36.2851 27.2875C36.178 27.1298 36.0245 27.0095 35.8459 26.9431C35.6673 26.8768 35.4725 26.8677 35.2885 26.9172C35.1045 26.9667 34.9405 27.0723 34.8193 27.2193L30.014 32.8285L25.2104 27.2193C25.1356 27.1176 25.0407 27.0324 24.9316 26.9691C24.8224 26.9058 24.7013 26.8657 24.5759 26.8514C24.4505 26.8371 24.3235 26.8488 24.2029 26.8858C24.0822 26.9228 23.9705 26.9843 23.8747 27.0665C23.7789 27.1487 23.7012 27.2497 23.6463 27.3634C23.5914 27.477 23.5606 27.6008 23.5557 27.7269C23.5508 27.853 23.572 27.9787 23.618 28.0963C23.664 28.2138 23.7337 28.3206 23.8229 28.4099L29.3176 34.8319C29.4036 34.9328 29.5104 35.0138 29.6308 35.0693C29.7512 35.1248 29.8823 35.1536 30.0149 35.1536C30.1474 35.1536 30.2785 35.1248 30.3989 35.0693C30.5193 35.0138 30.6262 34.9328 30.7122 34.8319L36.2122 28.4099C36.3563 28.2477 36.4382 28.0396 36.4433 27.8226L36.4431 27.8226Z" fill="white"/>
</svg>
