<svg width="85" height="85" viewBox="0 0 85 85" fill="none" xmlns="http://www.w3.org/2000/svg">
<circle cx="42.5" cy="42.5" r="42.5" fill="#E5F3FF"/>
<g clip-path="url(#clip0)">
<path d="M38.7381 47.2549C34.6937 43.2113 27.8683 40.7433 23.9631 44.6476C20.0727 48.538 22.503 55.3552 26.5704 59.4226C30.7148 63.567 37.5214 65.8539 41.3454 62.0299C45.2358 58.1387 42.8047 51.3223 38.7381 47.2549ZM36.5225 57.0923C35.3705 56.7851 33.6129 56.0361 31.7849 54.2081C29.9569 52.3801 29.208 50.6225 28.9007 49.4705L31.2761 48.8379C31.4637 49.5426 32.0053 50.9519 33.5236 52.4694C35.0411 53.9877 36.4504 54.5293 37.1551 54.7169L36.5225 57.0923Z" fill="#FF6969"/>
<path d="M62.0374 34.8155C58.1462 30.9251 51.3298 33.3562 47.2624 37.4227C43.218 41.4672 40.7508 48.2926 44.6551 52.1977C48.5455 56.0881 55.3628 53.6579 59.4301 49.5905C63.4729 45.5477 65.9425 38.7214 62.0374 34.8155ZM54.2156 44.376C52.3876 46.204 50.63 46.9529 49.478 47.2602L48.8454 44.8848C49.5501 44.6972 50.9594 44.1555 52.4769 42.6372C53.9952 41.1198 54.5368 39.7104 54.7245 39.0058L57.0998 39.6383C56.7926 40.7904 56.0437 42.5479 54.2156 44.376Z" fill="#00ACDE"/>
<path d="M31.852 22.0146C27.1103 22.0146 22.0195 24.7768 22.0195 29.389C22.0195 33.9792 27.0767 36.7634 31.852 36.7634C36.5938 36.7634 41.6846 34.0013 41.6846 29.389C41.6846 24.7989 36.6274 22.0146 31.852 22.0146ZM31.852 30.6181C29.6192 30.6181 27.9412 29.7692 27.2685 28.9277L29.1883 27.3922C29.3202 27.5405 30.2215 28.16 31.852 28.16C33.4826 28.16 34.3839 27.5405 34.5199 27.3873L36.4356 28.9277C35.7629 29.7692 34.0848 30.6181 31.852 30.6181Z" fill="#00ACDE"/>
<path d="M56.5178 56.5947C53.7606 56.5947 51.6016 58.2146 51.6016 60.2819C51.6016 62.3492 53.7606 63.9691 56.5178 63.9691C59.275 63.9691 61.4341 62.3492 61.4341 60.2819C61.4341 58.2146 59.275 56.5947 56.5178 56.5947Z" fill="#FF6969"/>
<path d="M51.1977 23.7732C49.2484 21.8239 46.5756 21.4421 45.1138 22.9039C43.6521 24.3657 44.0339 27.0385 45.9832 28.9878C47.7514 30.756 50.4742 31.4492 52.0663 29.8563C53.6952 28.2274 52.9102 25.4857 51.1977 23.7732Z" fill="#FF6969"/>
</g>
<defs>
<clipPath id="clip0">
<rect width="42" height="42" fill="white" transform="translate(22 22)"/>
</clipPath>
</defs>
</svg>
