<svg width="85" height="85" viewBox="0 0 85 85" fill="none" xmlns="http://www.w3.org/2000/svg">
<circle cx="42.5" cy="42.5" r="42.5" fill="#E5F3FF"/>
<path d="M58.1211 35.7812H64V33.6816C64 31.1346 61.9279 29.0625 59.3809 29.0625H58.1211V35.7812Z" fill="#00ACDE"/>
<path d="M37.043 25.2832C37.043 24.5886 37.6081 24.0234 38.3027 24.0234H46.7012C47.3958 24.0234 47.9609 24.5886 47.9609 25.2832V26.543H50.4805V25.2832C50.4805 23.1993 48.7851 21.5039 46.7012 21.5039H38.3027C36.2188 21.5039 34.5234 23.1993 34.5234 25.2832V26.543H37.043V25.2832Z" fill="#FF6969"/>
<path d="M29.3984 29.0625H55.6016V35.7812H29.3984V29.0625Z" fill="#00ACDE"/>
<path d="M58.1211 38.3008V63.4961H59.3809C61.9279 63.4961 64 61.4239 64 58.877V38.3008H58.1211Z" fill="#00ACDE"/>
<path d="M26.8789 38.3008H21V58.877C21 61.4239 23.0721 63.4961 25.6191 63.4961H26.8789V38.3008Z" fill="#00ACDE"/>
<path d="M26.8789 35.7812V29.0625H25.6191C23.0721 29.0625 21 31.1346 21 33.6816V35.7812H26.8789Z" fill="#00ACDE"/>
<path d="M29.3984 38.3008V63.4961H55.6016V38.3008H29.3984ZM51.3184 53.418C51.3184 54.1137 50.7543 54.6777 50.0586 54.6777H46.2793V58.457C46.2793 59.1528 45.7153 59.7168 45.0195 59.7168H39.9805C39.2847 59.7168 38.7207 59.1528 38.7207 58.457V54.6777H34.9414C34.2457 54.6777 33.6816 54.1137 33.6816 53.418V48.3789C33.6816 47.6832 34.2457 47.1191 34.9414 47.1191H38.7207V43.3398C38.7207 42.6441 39.2847 42.0801 39.9805 42.0801H45.0195C45.7153 42.0801 46.2793 42.6441 46.2793 43.3398V47.1191H50.0586C50.7543 47.1191 51.3184 47.6832 51.3184 48.3789V53.418Z" fill="#FF6969"/>
<path d="M43.7617 48.3789V44.5996H41.2422V48.3789C41.2422 49.0746 40.6781 49.6387 39.9824 49.6387H36.2031V52.1582H39.9824C40.6781 52.1582 41.2422 52.7222 41.2422 53.418V57.1973H43.7617V53.418C43.7617 52.7222 44.3258 52.1582 45.0215 52.1582H48.8008V49.6387H45.0215C44.3258 49.6387 43.7617 49.0746 43.7617 48.3789Z" fill="#FF6969"/>
</svg>
