<svg width="85" height="85" viewBox="0 0 85 85" fill="none" xmlns="http://www.w3.org/2000/svg">
<circle cx="42.5" cy="42.5" r="42.5" fill="#E5F3FF"/>
<g clip-path="url(#clip0)">
<rect x="32.3984" y="38.7998" width="4.2" height="18.9" fill="#FF6969"/>
<path d="M44.4505 57.5187H37.6172V55.0577H43.808C43.6744 54.2916 43.5907 53.4729 43.5677 52.5968H37.6172V50.1359H43.8246C44.0525 49.2745 44.4232 48.4328 44.9205 47.6554H37.6172V45.1944H45.0173V47.5077C45.2429 47.1686 45.4931 46.8424 45.7652 46.5339C46.4814 45.7235 47.3074 45.0762 48.2223 44.6109C49.2541 44.0861 50.3436 43.8195 51.4609 43.8195C52.2505 43.8195 52.999 43.9185 53.6953 44.1107V29.5229H48.7734V35.3151H29.0859V29.5229H24.1641V63.9992H48.8273C47.5423 62.7158 45.5819 60.708 44.4505 57.5187ZM37.6172 40.2614H45.0173V42.7223H37.6172V40.2614ZM35.1562 57.5187H32.6953V55.0577H35.1562V57.5187ZM35.1562 52.5968H32.6953V50.1359H35.1562V52.5968ZM35.1562 47.7022H32.6953V45.2412H35.1562V47.7022ZM35.1562 42.7223H32.6953V40.2614H35.1562V42.7223Z" fill="#00ACDE"/>
<path d="M46.3125 29.5238V27.0975H42.8178V25.9433C42.8178 24.8903 42.4077 23.9002 41.6627 23.1555C40.9177 22.4105 39.9275 22 38.8746 22C36.7004 22 34.9316 23.7688 34.9316 25.9433V27.0975H31.5469V32.855H46.3125V29.5238ZM40.3569 27.0975H37.3922V25.9433C37.3922 25.1258 38.0571 24.4609 38.8746 24.4609C39.27 24.4609 39.6423 24.6154 39.9224 24.8954C40.2028 25.1758 40.3569 25.5479 40.3569 25.9433V27.0975Z" fill="#00ACDE"/>
<path d="M64.0581 47.8549C63.041 46.8398 61.7106 46.2812 60.3106 46.2812C60.3071 46.2812 60.3035 46.2812 60.3 46.2812C59.1541 46.2835 58.0845 46.618 57.194 47.1878V46.8004C57.194 45.3834 58.347 44.2305 59.7639 44.2305V41.7695C56.9899 41.7695 54.7331 44.0264 54.7331 46.8004V47.1874C54.4085 46.9804 54.0605 46.8042 53.6936 46.6638V46.6578C53.054 46.3812 52.3033 46.2812 51.4592 46.2812C48.4436 46.2812 46.0195 49.3574 46.0195 52.1103C46.0195 58.1207 49.3107 60.9805 51.0186 62.7128C51.7207 63.4258 52.5477 64 53.5411 64C53.592 64 53.643 63.9958 53.6936 63.9894V63.9814C53.708 63.9817 53.7225 63.9821 53.7369 63.9827C53.7587 63.9792 53.7808 63.9766 53.8026 63.9721V63.9837C54.0826 63.9821 54.3643 63.9279 54.6405 63.8222H54.6408C55.4095 63.5277 56.2472 63.5149 56.9995 63.7853C57.3664 63.917 57.7494 63.984 58.138 63.984C59.2442 63.984 60.2933 63.4697 61.1719 62.4962C61.3568 62.2914 61.56 62.0771 61.775 61.8505C63.5153 60.0154 65.8986 57.5025 65.8986 52.5509C65.8986 50.7071 65.245 49.0392 64.0581 47.8549Z" fill="#FF6969"/>
</g>
<defs>
<clipPath id="clip0">
<rect width="42" height="42" fill="white" transform="translate(24 22)"/>
</clipPath>
</defs>
</svg>
