<svg width="85" height="85" viewBox="0 0 85 85" fill="none" xmlns="http://www.w3.org/2000/svg">
<circle cx="42.5" cy="42.5" r="42.5" fill="#E5F3FF"/>
<path d="M37.1367 40.6729V48.4488V49.8626H37.505C37.8196 49.4823 38.1695 49.1324 38.5505 48.8171V41.3798C38.5505 40.6001 39.1846 39.966 39.9643 39.966H47.0333C47.813 39.966 48.4471 40.6001 48.4471 41.3798V48.8171C48.8274 49.1317 49.1773 49.4816 49.4926 49.8626H49.8609V41.3798V40.6729C49.8609 39.5037 48.9094 38.5522 47.7402 38.5522H39.2574C38.0882 38.5522 37.1367 39.5037 37.1367 40.6729Z" fill="#00ACDE"/>
<path d="M23.3047 56.4256V52.3862H36.2308L35.4229 56.4256H23.3047Z" fill="#FF6969"/>
<path d="M63.6953 54.8106V52.387L49.9613 51.5791L50.7692 55.6185L63.6953 54.8106Z" fill="#FF6969"/>
<path d="M49.1541 41.0767V49.1555C45.2763 46.5703 39.4595 48.0783 37.8438 49.1555V42.6925C37.8438 41.3999 39.1902 39.9995 39.4595 39.4609H45.1147C47.6999 39.4609 49.1541 40.8074 49.1541 41.0767Z" fill="#00ACDE"/>
<path d="M47.0338 36.4307C47.0338 36.0412 46.7171 35.7238 46.3269 35.7238H44.2062V32.1893C44.2062 31.7998 43.8895 31.4824 43.4993 31.4824C43.1091 31.4824 42.7924 31.7998 42.7924 32.1893V35.7238H40.6717C40.2815 35.7238 39.9648 36.0412 39.9648 36.4307V37.1376H47.0338V36.4307Z" fill="#00ACDE"/>
<path d="M47.0338 46.277V41.3794H39.9648V46.277C41.0266 45.7327 42.2262 45.4188 43.4993 45.4188C44.7724 45.4188 45.9721 45.7327 47.0338 46.277Z" fill="#00ACDE"/>
<path d="M51.1217 30.776H52.8458L53.2473 29.17C53.3477 28.7713 53.3979 28.3606 53.3979 27.9485C53.3979 27.1688 52.7638 26.5347 51.9841 26.5347C51.2044 26.5347 50.5703 27.1688 50.5703 27.9485C50.5703 28.3606 50.6205 28.7713 50.7202 29.17L51.1217 30.776Z" fill="#00ACDE"/>
<path d="M58.3438 32.1899H59.7575V40.6727H58.3438V32.1899Z" fill="#00ACDE"/>
<path d="M29.3631 25.8276H35.0183C35.4085 25.8276 35.7252 25.5102 35.7252 25.1207V23.7069C35.7252 23.3174 35.4085 23 35.0183 23H29.3631C28.9729 23 28.6562 23.3174 28.6562 23.7069V25.1207C28.6562 25.5102 28.9729 25.8276 29.3631 25.8276Z" fill="#00ACDE"/>
<path d="M51.2773 32.1899H52.6911V40.6727H51.2773V32.1899Z" fill="#00ACDE"/>
<path d="M58.1881 30.776H59.9122L60.3137 29.17C60.4141 28.7713 60.4643 28.3606 60.4643 27.9485C60.4643 27.1688 59.8302 26.5347 59.0505 26.5347C58.2708 26.5347 57.6367 27.1688 57.6367 27.9485C57.6367 28.3606 57.6869 28.7713 57.7866 29.17L58.1881 30.776Z" fill="#00ACDE"/>
<path d="M51.2773 44.9146H61.1739V49.8628H51.2773V44.9146Z" fill="#00ACDE"/>
<path d="M51.2773 42.0854H61.1739V43.4992H51.2773V42.0854Z" fill="#00ACDE"/>
<path d="M35.7252 47.0342V40.6721V34.3101H28.6562V47.0342H35.7252ZM30.07 35.7239H34.3114V37.1376H30.07V35.7239ZM30.07 38.5514H34.3114V39.9652H30.07V38.5514ZM30.07 41.379H34.3114V42.7928H30.07V41.379ZM30.07 44.2066H34.3114V45.6204H30.07V44.2066Z" fill="#00ACDE"/>
<path d="M27.3438 33.8057V47.6204V48.3475H37.0383V33.8057H27.3438Z" stroke="#00ACDE"/>
<path d="M28.957 32.1899V46.0047V46.7318H35.4201V32.1899H28.957Z" stroke="#00ACDE"/>
<path d="M36.5812 51.2754H25.1195C24.1991 51.2754 23.4216 51.8685 23.1289 52.6892H36.0241C36.1648 52.1958 36.3514 51.7236 36.5812 51.2754Z" fill="#FF6969"/>
<path d="M30.0703 27.2417H34.3117V28.6555H30.0703V27.2417Z" fill="#00ACDE"/>
<path d="M51.2398 54.103C51.261 54.3363 51.2759 54.571 51.2759 54.8099C51.2759 59.0973 47.7873 62.5858 43.5 62.5858C39.2127 62.5858 35.7241 59.0973 35.7241 54.8099C35.7241 54.571 35.739 54.3363 35.7602 54.103H23V59.0513C23 61.7799 25.2204 63.9996 27.9483 63.9996H59.0517C61.7796 63.9996 64 61.7799 64 59.0513V54.103H51.2398ZM56.931 62.5858H55.5172V61.172H56.931V62.5858ZM62.5862 59.0513C62.5862 61.0002 61.0006 62.5858 59.0517 62.5858H58.3448V61.172H59.0517C60.2209 61.172 61.1724 60.2205 61.1724 59.0513V55.5168H62.5862V59.0513Z" fill="#FF6969"/>
<path d="M54.809 58.8495C54.5397 59.6573 54.0012 61.4347 54.0012 62.081C53.7319 62.3503 53.5164 62.8889 54.809 62.8889H61.2721C62.5648 62.8889 62.8879 56.9644 62.8879 54.8101L59.6563 55.6179V58.8495L58.0406 60.4652L54.809 58.8495Z" fill="#FF6969"/>
<path d="M63.8702 52.6892C63.5775 51.8685 62.8 51.2754 61.8796 51.2754H61.1727H50.418C50.6477 51.7236 50.835 52.1958 50.975 52.6892H63.8702Z" fill="#FF6969"/>
<ellipse cx="43.5007" cy="54.8098" rx="8.07882" ry="8.07882" fill="#E5F3FF"/>
<path d="M37.3404 48.4486H27.2419V32.8969H37.1385V42.7109C37.5513 42.3984 38.027 42.1644 38.5523 42.0577V41.2787V33.6038C38.5523 31.6549 36.9667 30.0693 35.0178 30.0693H29.3626C27.4137 30.0693 25.8281 31.6549 25.8281 33.6038V49.8624H37.3404V48.4486Z" fill="#00ACDE"/>
<path d="M27.3438 32.9966H37.8462" stroke="#00ACDE"/>
<ellipse cx="43.5013" cy="54.81" rx="6.16928" ry="5.14107" fill="#FF6969"/>
<path d="M37.1367 54.8098C37.1367 58.3174 39.9905 61.1719 43.4988 61.1719C47.0071 61.1719 49.8609 58.3174 49.8609 54.8098C49.8609 51.3022 47.0071 48.4478 43.4988 48.4478C39.9905 48.4478 37.1367 51.3022 37.1367 54.8098ZM40.6712 53.396H42.085V51.9822C42.085 51.2011 42.7177 50.5684 43.4988 50.5684C44.2799 50.5684 44.9126 51.2011 44.9126 51.9822V53.396H46.3264C47.1075 53.396 47.7402 54.0287 47.7402 54.8098C47.7402 55.5909 47.1075 56.2236 46.3264 56.2236H44.9126V57.6374C44.9126 58.4185 44.2799 59.0512 43.4988 59.0512C42.7177 59.0512 42.085 58.4185 42.085 57.6374V56.2236H40.6712C39.8901 56.2236 39.2574 55.5909 39.2574 54.8098C39.2574 54.0287 39.8901 53.396 40.6712 53.396Z" fill="#00ACDE"/>
</svg>
