<svg width="85" height="85" viewBox="0 0 85 85" fill="none" xmlns="http://www.w3.org/2000/svg">
<circle cx="42.5" cy="42.5" r="42.5" fill="#E5F3FF"/>
<path d="M41.4439 30.8882C35.6227 30.8882 30.8867 35.6242 30.8867 41.4421C30.8867 47.2633 35.6227 51.9993 41.4439 51.9993C47.2618 51.9993 51.9978 47.2633 51.9978 41.4421C51.9978 35.6242 47.2618 30.8882 41.4439 30.8882Z" fill="#FF6969"/>
<path d="M61.5538 40.5047H59.256C59.0088 40.5047 58.7628 40.3856 58.5624 40.1707C58.1928 39.7744 57.733 39.5295 57.2432 39.4337C56.8769 37.7304 56.2134 36.0794 55.2515 34.5631C55.5209 34.1534 55.6657 33.6647 55.6478 33.1326C55.6378 32.8398 55.728 32.5815 55.9017 32.4078L57.5271 30.7824C59.6167 28.5113 56.3993 25.6535 54.3987 27.6541L52.7733 29.2784C52.5997 29.4532 52.3414 29.5433 52.0475 29.5333C51.5187 29.5144 51.0299 29.6591 50.6214 29.9274C49.1262 28.9745 47.4797 28.2998 45.7452 27.9291C45.6483 27.4415 45.4034 26.985 45.0093 26.6176C44.7945 26.4173 44.6765 26.1712 44.6765 25.9252V23.6274C44.5484 20.5436 40.2523 20.7974 40.2523 23.6274V25.9252C40.2523 26.1712 40.1343 26.4173 39.9194 26.6176C39.5108 26.9984 39.2615 27.4738 39.1724 27.9803C37.4802 28.3699 35.8737 29.0524 34.4165 30.0009C33.9867 29.6847 33.4579 29.5133 32.8812 29.5333C32.5873 29.5433 32.3291 29.4532 32.1554 29.2784L30.53 27.6541C28.2589 25.5645 25.4011 28.7819 27.4017 30.7824L29.0271 32.4078C29.2007 32.5815 29.2909 32.8398 29.2809 33.1326C29.2608 33.736 29.4501 34.2859 29.793 34.7246C28.9013 36.1651 28.2645 37.7438 27.9049 39.4015C27.3326 39.4593 26.7905 39.7165 26.3663 40.1707C26.1659 40.3856 25.9199 40.5047 25.6727 40.5047H23.3749C20.2911 40.6327 20.545 44.9289 23.3749 44.9289H25.6727C25.9199 44.9289 26.1659 45.0469 26.3663 45.2618C26.8027 45.7305 27.3649 45.991 27.9561 46.0377C28.3335 47.6598 28.9792 49.2028 29.8698 50.6111C29.4768 51.0642 29.2586 51.652 29.2809 52.2999C29.292 52.5938 29.2007 52.851 29.0271 53.0258L27.4017 54.6512C25.312 56.9212 28.5294 59.7801 30.53 57.7795L32.1554 56.1541C32.3291 55.9793 32.5873 55.8891 32.8812 55.8992C33.5281 55.9225 34.117 55.7043 34.5701 55.3102C35.9784 56.202 37.5214 56.8466 39.1434 57.224C39.1902 57.8162 39.4507 58.3773 39.9194 58.8148C40.1343 59.0152 40.2523 59.2613 40.2523 59.5084V61.8062C40.3803 64.8889 44.6765 64.6351 44.6765 61.8062V59.5084C44.6765 59.2613 44.7945 59.0152 45.0093 58.8148C45.4647 58.3907 45.7218 57.8474 45.7797 57.2752C47.4374 56.9167 49.0149 56.2799 50.4555 55.3871C50.8952 55.7311 51.4452 55.9203 52.0475 55.8992C52.3414 55.8891 52.5997 55.9793 52.7733 56.1541L54.3987 57.7795C56.6698 59.8691 59.5276 56.6517 57.5271 54.6501L55.9017 53.0258C55.728 52.851 55.6378 52.5938 55.6478 52.2999C55.6679 51.7221 55.4953 51.1922 55.178 50.7625C56.1355 49.284 56.8057 47.6742 57.1908 46.0099C57.7007 45.9231 58.1794 45.6726 58.5624 45.2618C58.7628 45.0469 59.0088 44.9289 59.256 44.9289H61.5538C64.6376 44.8009 64.3838 40.5047 61.5538 40.5047ZM33.4045 46.5042C32.9324 46.5042 32.5506 46.1212 32.5506 45.6503C32.5506 45.1783 32.9324 44.7964 33.4045 44.7964C33.8754 44.7964 34.2584 45.1783 34.2584 45.6503C34.2584 46.1212 33.8754 46.5042 33.4045 46.5042ZM39.9328 51.5329C38.4142 51.5329 37.1796 50.2971 37.1796 48.7797C37.1796 47.2612 38.4142 46.0255 39.9328 46.0255C41.4513 46.0255 42.6859 47.2612 42.6859 48.7797C42.6859 50.2971 41.4513 51.5329 39.9328 51.5329ZM38.7048 43.613C36.0363 43.613 33.8643 41.4421 33.8643 38.7736C33.8643 36.105 36.0363 33.933 38.7048 33.933C41.3733 33.933 43.5442 36.105 43.5442 38.7736C43.5442 41.4421 41.3733 43.613 38.7048 43.613ZM46.0168 33.3396C46.4889 33.3396 46.8707 33.7215 46.8707 34.1935C46.8707 34.6644 46.4889 35.0463 46.0168 35.0463C45.5459 35.0463 45.163 34.6644 45.163 34.1935C45.163 33.7215 45.5459 33.3396 46.0168 33.3396ZM45.3767 50.6133C44.9058 50.6133 44.5239 50.2315 44.5239 49.7605C44.5239 49.2885 44.9058 48.9066 45.3767 48.9066C45.8487 48.9066 46.2306 49.2885 46.2306 49.7605C46.2306 50.2315 45.8487 50.6133 45.3767 50.6133ZM49.4769 45.7093C47.7614 45.7093 46.3653 44.3132 46.3653 42.5977C46.3653 40.8821 47.7614 39.4861 49.4769 39.4861C51.1925 39.4861 52.5885 40.8821 52.5885 42.5977C52.5885 44.3132 51.1925 45.7093 49.4769 45.7093Z" fill="#00ACDE"/>
<path d="M49.3902 59.6611C48.2046 59.6611 47.2383 60.6264 47.2383 61.8131C47.2383 62.9988 48.2046 63.964 49.3902 63.964C50.577 63.964 51.5422 62.9988 51.5422 61.8131C51.5422 60.6264 50.577 59.6611 49.3902 59.6611Z" fill="#FF6969"/>
<path d="M60.3645 46.7007C58.4296 46.7007 56.8555 48.2749 56.8555 50.2086C56.8555 52.1435 58.4296 53.7177 60.3645 53.7177C62.2983 53.7177 63.8725 52.1435 63.8725 50.2086C63.8725 48.2749 62.2983 46.7007 60.3645 46.7007Z" fill="#FF6969"/>
<path d="M49.1731 39.3325C47.2382 39.3325 45.6641 40.9067 45.6641 42.8405C45.6641 44.7753 47.2382 46.3495 49.1731 46.3495C51.1069 46.3495 52.6811 44.7753 52.6811 42.8405C52.6811 40.9067 51.1069 39.3325 49.1731 39.3325Z" fill="#FF6969"/>
<path d="M25.0519 37.4835C26.4983 36.8839 27.1849 35.2253 26.5853 33.7789C25.9858 32.3325 24.3272 31.6459 22.8807 32.2455C21.4343 32.845 20.7477 34.5036 21.3473 35.9501C21.9468 37.3965 23.6054 38.083 25.0519 37.4835Z" fill="#FF6969"/>
</svg>
