<svg width="85" height="85" viewBox="0 0 85 85" fill="none" xmlns="http://www.w3.org/2000/svg">
<circle cx="42.5" cy="42.5" r="42.5" fill="#E5F3FF"/>
<path d="M44.3398 57.0068C45.1697 58.463 46.7184 59.3601 48.3939 59.3552H53.0889C53.9265 59.3531 54.7283 59.0147 55.3143 58.4159C54.0627 58.1918 52.8707 57.7122 51.8126 57.0068H44.3398Z" fill="#00ACDE"/>
<path d="M50.2192 64.1637C50.3815 64.5724 50.778 64.8395 51.2176 64.8362C51.818 64.8353 52.3044 64.3486 52.3053 63.748V60.9219H48.9727L50.2192 64.1637Z" fill="#00ACDE"/>
<path d="M39.1561 45.2663H46.6684C53.8309 39.0322 58.5628 34.903 58.5628 29.4228C58.5628 24.6204 55.367 21 51.1288 21C46.0111 21 43.7128 25.649 43.6165 25.847C43.4864 26.1179 43.2127 26.2904 42.9123 26.2908C42.6138 26.2823 42.3437 26.1115 42.208 25.8454C42.1117 25.649 39.8135 21 34.6957 21C30.4576 21 27.2617 24.6204 27.2617 29.4228C27.2617 34.903 31.9937 39.0322 39.1561 45.2663ZM35.8695 34.3073C35.8695 33.4427 36.5702 32.7418 37.4346 32.7418H40.5647V29.6106C40.5647 28.746 41.2654 28.0451 42.1297 28.0451H43.6948C44.5591 28.0451 45.2598 28.746 45.2598 29.6106V32.7418H48.39C49.2543 32.7418 49.955 33.4427 49.955 34.3073V35.8729C49.955 36.7375 49.2543 37.4385 48.39 37.4385H45.2598V40.5696C45.2598 41.4342 44.5591 42.1352 43.6948 42.1352H42.1297C41.2654 42.1352 40.5647 41.4342 40.5647 40.5696V37.4385H37.4346C36.5702 37.4385 35.8695 36.7375 35.8695 35.8729V34.3073ZM31.8239 33.6216C31.9895 33.8536 32.016 34.1574 31.8929 34.4145C31.7699 34.6717 31.5168 34.8416 31.2322 34.8581C30.9477 34.8745 30.6767 34.7349 30.5249 34.4936C29.4495 33.0193 28.8564 31.2483 28.8268 29.4235C28.7533 27.1015 29.8091 24.8877 31.6595 23.4838C31.8906 23.3262 32.1881 23.3039 32.4401 23.4253C32.6921 23.5466 32.8602 23.7933 32.8811 24.0722C32.902 24.3512 32.7725 24.6201 32.5414 24.7777C31.1273 25.8964 30.3293 27.6211 30.3918 29.4235C30.4269 30.9368 30.9269 32.4026 31.8239 33.6216Z" fill="#FF6969"/>
<path d="M33.7146 30.1721C33.7146 29.3383 32.8808 27.6706 34.5485 23.5014C34.2712 23.7787 33.3853 23.3358 32.0564 22.6713L32.0469 22.6666C30.3792 21.8328 29.5455 26.8368 28.7116 27.6706C27.8778 28.5045 29.5455 34.3413 30.3793 35.1752C31.0464 35.8422 32.8808 36.009 33.7146 36.009V30.1721Z" fill="#FF6969"/>
<path d="M42.1285 36.6572V40.5711H43.6935V36.6572C43.6935 36.2249 44.0439 35.8745 44.476 35.8745H48.3885V34.3089H44.476C44.0439 34.3089 43.6935 33.9585 43.6935 33.5261V29.6123H42.1285V33.5261C42.1285 33.9585 41.7782 34.3089 41.346 34.3089H37.4336V35.8745H41.346C41.7782 35.8745 42.1285 36.2249 42.1285 36.6572Z" fill="#FF6969"/>
<path d="M62.3982 43.5178C62.1584 44.0231 61.8702 44.5039 61.5374 44.9534C61.3897 45.1505 61.1577 45.2665 60.9114 45.2665C60.742 45.2673 60.577 45.2123 60.4419 45.11C60.0962 44.8506 60.0261 44.3599 60.2854 44.014C60.7474 43.4007 61.1053 42.7154 61.3449 41.9858C61.5803 41.2768 61.6982 40.534 61.6939 39.787C61.6875 37.6324 60.6997 35.5982 59.0107 34.2612C57.3126 37.8621 53.7716 41.142 49.0491 45.2665H49.956C50.3882 45.2665 50.7386 45.617 50.7386 46.0493C50.7386 46.4816 50.3882 46.8321 49.956 46.8321H35.8705C35.4384 46.8321 35.088 46.4816 35.088 46.0493C35.088 45.617 35.4384 45.2665 35.8705 45.2665H36.7775C31.8014 40.922 28.1313 37.5168 26.5538 33.6812C25.1398 34.6264 24.2493 36.1788 24.1467 37.8769C24.0738 38.9209 24.3066 39.9636 24.8166 40.8774C25.0266 41.2552 24.8907 41.7319 24.5129 41.942C24.1352 42.1521 23.6587 42.0161 23.4487 41.6383C23.0998 40.9998 22.8526 40.3107 22.7163 39.596C20.4495 42.4286 20.4258 46.4481 22.6589 49.3073C24.892 52.1665 28.7966 53.1158 32.0925 51.6009C32.8683 51.2451 33.5805 50.7643 34.2006 50.1778C34.515 49.881 35.0104 49.8954 35.3071 50.2099C35.6038 50.5244 35.5894 51.02 35.275 51.3167C34.7256 51.8353 34.1155 52.2855 33.458 52.6577C34.4212 54.3821 36.2435 55.4483 38.2181 55.4429H52.3036C54.0323 55.4429 55.4337 54.041 55.4337 52.3117C55.4337 51.8794 55.7841 51.5289 56.2163 51.5289C56.6484 51.5289 56.9988 51.8794 56.9988 52.3117C56.9966 54.1148 55.9626 55.7574 54.3382 56.5388C57.8159 57.7907 61.695 56.4377 63.6409 53.2943C65.5867 50.1508 65.0685 46.0741 62.3982 43.5178ZM30.3928 48.3977C29.9607 48.3977 29.6103 48.0472 29.6103 47.6149C29.6103 45.8856 28.2089 44.4837 26.4802 44.4837C26.048 44.4837 25.6977 44.1333 25.6977 43.7009C25.6977 43.2686 26.048 42.9181 26.4802 42.9181C29.0722 42.9207 31.1728 45.022 31.1754 47.6149C31.1754 48.0472 30.825 48.3977 30.3928 48.3977ZM50.3058 52.2287C50.1973 52.2834 50.0775 52.3118 49.956 52.3117C49.658 52.3133 49.385 52.1455 49.2518 51.8788C48.9079 51.1837 48.1991 50.7444 47.4238 50.7461H40.5657C40.1335 50.7461 39.7832 50.3956 39.7832 49.9633C39.7832 49.531 40.1335 49.1805 40.5657 49.1805H47.4238C48.7951 49.1756 50.0501 49.9505 50.6603 51.179C50.7526 51.3652 50.7672 51.5805 50.7007 51.7774C50.6342 51.9743 50.4921 52.1367 50.3058 52.2287Z" fill="#00ACDE"/>
<path d="M48.7247 52.6872C48.0576 52.6872 42.3319 51.5755 39.5525 51.0196C38.2184 49.6854 38.4407 49.3519 38.7187 49.3519L41.2202 48.5181H50.3924C50.9483 48.796 52.06 49.6854 52.06 51.0196C52.06 52.6872 49.5585 52.6872 48.7247 52.6872Z" fill="#00ACDE"/>
<path d="M25.3766 42.6805C23.3754 43.3476 26.7663 47.4056 28.7119 49.3512H31.2132C32.8809 49.3512 31.2132 46.0159 30.3794 43.5144C29.5455 41.0128 27.8781 41.8467 25.3766 42.6805Z" fill="#00ACDE"/>
</svg>
