<svg width="85" height="85" viewBox="0 0 85 85" fill="none" xmlns="http://www.w3.org/2000/svg">
<circle cx="42.5" cy="42.5" r="42.5" fill="#E5F3FF"/>
<g clip-path="url(#clip0)">
<path d="M49.7344 33.8906H48.4453H48.3509L48.0462 33.0333C47.1324 30.4615 44.7015 28.7344 42 28.7344C39.2985 28.7344 36.8676 30.4615 35.9538 33.0333L35.6491 33.8906H35.5547H34.2656C33.5537 33.8906 32.9766 34.4676 32.9766 35.1797C32.9766 35.8916 33.5537 36.4687 34.2656 36.4687H35.5547H35.6491L35.9538 37.3261C36.3849 38.5392 37.1614 39.5542 38.1366 40.2988C38.1572 38.1839 39.8803 36.4687 42 36.4687C44.1197 36.4687 45.8428 38.1839 45.8634 40.2988C46.8387 39.5542 47.6151 38.5391 48.0462 37.3261L48.3509 36.4687H48.4453H49.7344C50.4463 36.4687 51.0234 35.8916 51.0234 35.1797C51.0234 34.4676 50.4463 33.8906 49.7344 33.8906ZM40.7109 35.1797H38.1328V32.6016H40.7109V35.1797ZM45.8672 35.1797H43.2891V32.6016H45.8672V35.1797Z" fill="#00ACDE"/>
<path d="M41.9995 21C35.974 21 31.065 25.6333 30.5078 31.5151C30.8818 31.3947 31.273 31.3125 31.687 31.3125H33.8812C35.3647 28.1951 38.5192 26.1563 41.9995 26.1563C45.4799 26.1563 48.6344 28.1951 50.1179 31.3125H52.312C52.7261 31.3125 53.1173 31.3947 53.4913 31.5151C52.934 25.6333 48.025 21 41.9995 21Z" fill="#00ACDE"/>
<path d="M42 39.0469C41.2888 39.0469 40.7109 39.6247 40.7109 40.3359C40.7109 41.0472 41.2888 41.625 42 41.625C42.7112 41.625 43.2891 41.0472 43.2891 40.3359C43.2891 39.6247 42.7112 39.0469 42 39.0469Z" fill="#00ACDE"/>
<path d="M44.5638 50.0161C43.8979 50.0161 43.5077 50.6266 43.2975 51.1378L42.9701 51.9384H41.0164L40.6841 51.1516C40.465 50.633 40.0698 50.0161 39.4328 50.0161C38.5944 50.0161 38.1562 50.7689 38.1562 51.5116C38.1562 52.6295 39.3031 53.6491 41.5023 55.5047L41.9983 55.9277L42.4968 55.5034C43.9481 54.2765 45.8403 52.7899 45.8403 51.5116C45.8403 50.7689 45.4022 50.0161 44.5638 50.0161Z" fill="#FF6969"/>
<path d="M52.3125 39.0467H50.1183C48.635 42.1641 45.4804 44.203 42 44.203C38.5196 44.203 35.3651 42.1641 33.8817 39.0467H31.6875C31.2331 39.0467 30.8035 38.9541 30.3984 38.8101V53.2264C30.3984 59.6238 35.6026 64.9998 42 64.9998C48.3974 64.9998 53.6016 59.6238 53.6016 53.2264V38.8101C53.1965 38.954 52.7669 39.0467 52.3125 39.0467ZM44.1614 57.4725L42 59.3256L39.8411 57.4738C37.3675 55.3866 35.5799 53.8772 35.5799 51.5106C35.5799 49.2258 37.273 47.437 39.4345 47.437C40.4114 47.437 41.2913 47.8159 41.9925 48.5158C42.6962 47.8222 43.5887 47.437 44.5656 47.437C46.727 47.437 48.4202 49.2258 48.4202 51.5106C48.4201 54.0497 46.2373 55.7214 44.1614 57.4725Z" fill="#FF6969"/>
</g>
<defs>
<clipPath id="clip0">
<rect width="44" height="44" fill="white" transform="translate(20 21)"/>
</clipPath>
</defs>
</svg>
