<svg width="85" height="85" viewBox="0 0 85 85" fill="none" xmlns="http://www.w3.org/2000/svg">
<circle cx="42.5" cy="42.5" r="42.5" fill="#E5F3FF"/>
<path d="M52.1942 37.9235C49.1903 37.9235 43.5462 30.7033 45.3575 37.0772C45.013 38.2294 45.3575 36.2312 45.3575 36.2312C45.3575 36.2312 42.3259 35.6976 41.9975 34.5375C41.9571 34.3981 41.5247 37.9235 38.5208 37.9235C35.8399 37.9235 34.4375 40.2174 34.4375 42.485C34.4375 45.6942 37.4065 48.2855 43.5838 53.3786C44.1571 53.8522 44.7493 54.3414 45.3575 54.8466C45.9659 54.3414 46.5579 53.8549 47.1287 53.3813C51.2882 49.9526 56.2775 46.1154 56.2775 42.485C56.2775 40.2174 54.8751 37.9235 52.1942 37.9235Z" fill="#FF6969"/>
<path d="M57.9961 45.4922C57.9961 39.8283 54.8449 34.8618 50.024 32.5943C50.3846 31.8729 50.6133 31.0741 50.6133 30.2211C50.6133 28.0043 49.265 26.0455 47.2584 25.3456L45.6914 24.7967C43.7117 24.107 41.8866 22.9239 40.4102 21.3788C40.1805 21.1375 39.8591 21 39.5391 21H32.1562C31.6263 21 31.1565 21.355 30.9894 21.8812L29.7133 25.8919C28.8481 28.6098 29.1401 31.5895 30.5123 34.0656C32.0732 36.8817 31.6239 40.4782 29.3936 43.0173C27.208 45.5073 26.0039 48.7413 26.0039 52.1238C26.0039 54.7888 26.7489 57.3681 28.1596 59.5825L31.1324 64.4259C31.3607 64.7847 31.7453 65 32.1562 65H46.9218C47.6019 65 48.1523 64.4234 48.1523 63.7109C48.1523 62.2083 47.8574 60.6097 47.3589 59.2907C53.5174 57.8933 57.9961 52.2755 57.9961 45.4922ZM48.0695 50.9921C47.5756 51.4289 47.0493 51.8947 46.4978 52.3957C46.2659 52.6059 45.9787 52.7104 45.6915 52.7104C45.4043 52.7104 45.1171 52.6059 44.8852 52.3957C44.3325 51.8934 43.8062 51.4289 43.3123 50.9908C40.4344 48.4479 38.3555 46.61 38.3555 43.8078C38.3554 41.1378 40.2372 39.0469 42.6393 39.0469C43.9911 39.0469 44.9932 39.6939 45.6914 40.5084C46.3896 39.6939 47.3918 39.0469 48.7435 39.0469C51.1456 39.0469 53.0274 41.1378 53.0274 43.8078C53.0274 46.8154 50.4895 48.8537 48.0695 50.9921Z" fill="#00ACDE"/>
</svg>
