<svg width="85" height="85" viewBox="0 0 85 85" fill="none" xmlns="http://www.w3.org/2000/svg">
<circle cx="42.5" cy="42.5" r="42.5" fill="#E5F3FF"/>
<path d="M55.9491 29.9609C52.6786 28.7709 49.2571 30.2654 46.6895 32.6367V40.6725C46.3302 40.8348 45.0873 41.8521 42.998 41.8521C40.9099 41.8521 39.6501 40.8277 39.3066 40.6725V32.6367C36.7396 30.266 33.3156 28.7716 30.047 29.9609C23.975 32.1715 23.5806 40.9737 25.847 47.203C27.7708 52.4877 32.3461 58.1296 37.7604 58.1296C38.2845 58.1296 38.8013 58.073 39.3066 57.959V47.9536C39.6641 47.7921 40.9106 46.774 42.998 46.774C45.0862 46.774 46.346 47.7984 46.6895 47.9536V57.959C52.6082 59.2955 58.0401 52.9963 60.1491 47.203C62.4267 40.9429 62.0035 32.1651 55.9491 29.9609Z" fill="#00ACDE"/>
<path d="M41.7695 63.9991V49.4438C42.5642 49.1635 43.4347 49.1631 44.2305 49.4438V63.9991H41.7695Z" fill="#FF6969"/>
<path d="M41.7695 39.1803V22H44.2305V39.1803C43.4358 39.4605 42.5653 39.4609 41.7695 39.1803Z" fill="#FF6969"/>
</svg>
