<svg width="85" height="85" viewBox="0 0 85 85" fill="none" xmlns="http://www.w3.org/2000/svg">
<circle cx="42.5" cy="42.5" r="42.5" fill="#E5F3FF"/>
<path d="M46.2421 34.4697C47.0683 34.4697 47.7381 33.7997 47.7381 32.9731C47.7381 32.1466 47.0683 31.4766 46.2421 31.4766C45.4159 31.4766 44.7461 32.1466 44.7461 32.9731C44.7461 33.7997 45.4159 34.4697 46.2421 34.4697Z" fill="#00ACDE"/>
<path d="M38.7578 34.4697C39.5841 34.4697 40.2539 33.7997 40.2539 32.9731C40.2539 32.1466 39.5841 31.4766 38.7578 31.4766C37.9315 31.4766 37.2617 32.1466 37.2617 32.9731C37.2617 33.7997 37.9315 34.4697 38.7578 34.4697Z" fill="#00ACDE"/>
<path d="M38.7595 29.9793C39.2845 29.9797 39.8 30.1182 40.2545 30.3809C40.7091 30.6436 41.0865 31.0212 41.3491 31.4759H43.6502C43.9124 31.0209 44.2898 30.6431 44.7444 30.3804C45.199 30.1176 45.7147 29.9793 46.2397 29.9793C46.7647 29.9793 47.2804 30.1176 47.735 30.3804C48.1896 30.6431 48.567 31.0209 48.8292 31.4759H51.4758V30.3235L50.4765 29.4666C49.2429 28.4099 48.2343 27.116 47.5106 25.6616C46.7868 24.2072 46.3628 22.6222 46.2636 21.0006C46.2556 21.0006 46.2477 21 46.2397 21H38.7595C38.7515 21 38.7437 21.0006 38.7357 21.0006C38.6365 22.6222 38.2124 24.2072 37.4887 25.6616C36.7649 27.116 35.7563 28.4099 34.5227 29.4666L33.5234 30.3235V31.4759H36.17C36.4326 31.0212 36.81 30.6436 37.2645 30.3809C37.7191 30.1182 38.2346 29.9797 38.7595 29.9793ZM40.2556 23.2448H44.7437V24.7414H40.2556V23.2448ZM38.7595 26.2379H46.2397V27.7345H38.7595V26.2379Z" fill="#00ACDE"/>
<path d="M37.2176 21.2285C36.1486 21.5596 35.2134 22.224 34.5488 23.1246C33.8841 24.0252 33.5248 25.1149 33.5234 26.2344V28.3488L33.5491 28.3268C35.6487 26.5283 36.9646 23.982 37.2176 21.2285Z" fill="#00ACDE"/>
<path d="M51.4495 28.3268L51.4752 28.3488V26.2344C51.4738 25.1149 51.1145 24.0252 50.4499 23.1246C49.7853 22.224 48.8502 21.5596 47.7812 21.2285C48.0342 23.982 49.3501 26.5283 51.4495 28.3268Z" fill="#00ACDE"/>
<path d="M50.125 59.8209V56.6191H47.1328V59.8209L48.6289 60.3196L50.125 59.8209Z" fill="#FF6969"/>
<path d="M46.9879 44.7388C46.7499 44.8514 46.5069 44.9555 46.2591 45.0509C43.8396 45.9835 41.16 45.9835 38.7405 45.0509C38.4928 44.9556 38.2498 44.8516 38.0117 44.7388V46.7577C39.3821 47.5284 40.9277 47.9332 42.4998 47.9332C44.0719 47.9332 45.6175 47.5284 46.9879 46.7577V44.7388Z" fill="#00ACDE"/>
<path d="M37.1289 47.9756L34.6484 48.4134L37.1702 49.6746C38.8267 50.4981 40.6515 50.9267 42.5014 50.9267C44.3513 50.9267 46.1761 50.4981 47.8327 49.6746L50.3544 48.4134L47.8739 47.9756L47.7688 48.0356C46.1633 48.9485 44.3482 49.4284 42.5014 49.4284C40.6546 49.4284 38.8395 48.9485 37.234 48.0356L37.1289 47.9756Z" fill="#FF6969"/>
<path d="M34.7311 48.3956L31.2656 48.903L34.3085 50.8597C36.8312 52.1945 39.61 52.8892 42.427 52.8892C45.2441 52.8892 48.0229 52.1945 50.5455 50.8597L53.5884 48.903L50.2247 48.3359L48.805 48.903C46.36 50.3826 45.2393 50.4606 42.427 50.4606C39.6147 50.4606 37.4151 49.8741 34.9702 48.3945L34.7311 48.3956Z" fill="#FF6969"/>
<path d="M62.9754 61.9642L60.9477 54.2564C60.6182 53.013 59.9405 51.8895 58.9944 51.0183C58.0483 50.147 56.8731 49.5641 55.6071 49.3382L52.8255 48.8472L48.5003 51.0105C46.6358 51.9376 44.5821 52.42 42.5 52.42C40.4179 52.42 38.3641 51.9376 36.4997 51.0105L32.1745 48.8472L29.3928 49.3382C28.1269 49.5641 26.9517 50.147 26.0056 51.0183C25.0595 51.8895 24.3818 53.013 24.0522 54.2564L22.0246 61.9642C21.9955 62.0749 21.9922 62.1908 22.0149 62.303C22.0376 62.4153 22.0857 62.5208 22.1556 62.6114C22.2255 62.7021 22.3152 62.7755 22.4179 62.8261C22.5206 62.8766 22.6336 62.9029 22.748 62.9029H62.252C62.3664 62.9029 62.4793 62.8766 62.5821 62.8261C62.6848 62.7755 62.7745 62.7021 62.8444 62.6114C62.9143 62.5208 62.9624 62.4153 62.9851 62.303C63.0078 62.1908 63.0045 62.0749 62.9754 61.9642ZM51.4763 60.4491L48.4842 61.4467L45.4921 60.4491V54.6717H51.4763V60.4491Z" fill="#FF6969"/>
<path d="M32.7874 36.3281L33.6389 36.7091C33.9804 38.8149 35.0602 40.7303 36.6849 42.1121C38.3096 43.4939 40.3731 44.252 42.5056 44.2504C44.6382 44.2489 46.7005 43.4879 48.3233 42.1037C49.946 40.7196 51.0231 38.8027 51.3616 36.6964C51.361 36.7023 51.3604 36.7082 51.3598 36.7141L52.2223 36.3281C52.5108 36.1769 52.7519 35.9489 52.9191 35.6693C53.0863 35.3897 53.1731 35.0694 53.1698 34.7436C53.164 34.2887 52.9858 33.8529 52.6714 33.5242C52.3569 33.1955 51.9295 32.9984 51.4754 32.9727H49.2313C49.2313 33.7665 48.9161 34.5278 48.355 35.0891C47.7938 35.6504 47.0328 35.9658 46.2392 35.9658C45.4457 35.9658 44.6846 35.6504 44.1235 35.0891C43.5624 34.5278 43.2472 33.7665 43.2472 32.9727H41.7511C41.7511 33.7665 41.4359 34.5278 40.8747 35.0891C40.3136 35.6504 39.5526 35.9658 38.759 35.9658C37.9655 35.9658 37.2044 35.6504 36.6433 35.0891C36.0822 34.5278 35.7669 33.7665 35.7669 32.9727H33.5229V32.9737C33.071 33.0022 32.6466 33.2004 32.3345 33.5286C32.0224 33.8568 31.8458 34.2907 31.8399 34.7436C31.8367 35.0694 31.9234 35.3897 32.0906 35.6693C32.2578 35.9489 32.4989 36.1769 32.7874 36.3281ZM43.9952 42.7003H41.0031V41.2038H43.9952V42.7003ZM38.011 39.7072H38.481C38.8407 39.7075 39.1913 39.5945 39.4831 39.3841C39.7749 39.1737 39.993 38.8767 40.1065 38.5352C40.2103 38.2226 40.4099 37.9507 40.6771 37.7581C40.9442 37.5655 41.2652 37.462 41.5945 37.4624H43.4038C43.7331 37.462 44.0541 37.5655 44.3212 37.7581C44.5883 37.9507 44.788 38.2226 44.8918 38.5352C45.0052 38.8767 45.2233 39.1737 45.5151 39.3841C45.8069 39.5945 46.1576 39.7075 46.5173 39.7072H46.9873V41.2038H46.5173C45.8435 41.2044 45.1867 40.9926 44.6401 40.5985C44.0936 40.2044 43.685 39.6481 43.4726 39.0085C43.4677 38.994 43.4585 38.9815 43.4462 38.9726C43.4338 38.9637 43.419 38.9589 43.4038 38.9589H41.5945C41.5793 38.9589 41.5644 38.9637 41.5521 38.9726C41.5397 38.9815 41.5305 38.994 41.5257 39.0085C41.3132 39.6481 40.9047 40.2044 40.3581 40.5985C39.8116 40.9926 39.1547 41.2044 38.481 41.2038H38.011V39.7072Z" fill="#00ACDE"/>
<rect x="40" y="22.0664" width="5" height="3" fill="#00ACDE"/>
<path d="M38.5625 25.0664H46.4375L47 28.0664H38L38.5625 25.0664Z" fill="#00ACDE"/>
</svg>
