<svg width="85" height="85" viewBox="0 0 85 85" fill="none" xmlns="http://www.w3.org/2000/svg">
<circle cx="42.5" cy="42.5" r="42.5" fill="#E5F3FF"/>
<path d="M56.3555 60.0525V63.9998H28.6406V60.0525C28.6406 56.9644 30.8746 54.3878 33.8124 53.8545C34.5556 54.3987 35.3569 54.8581 36.2026 55.2268C36.3151 58.6013 39.0958 61.3123 42.498 61.3123C45.9003 61.3123 48.681 58.6013 48.7935 55.2268C49.6392 54.8581 50.4405 54.3987 51.1837 53.8545C54.1215 54.3878 56.3555 56.9644 56.3555 60.0525Z" fill="#FF6969"/>
<path d="M56.3555 33.5977C56.3555 33.9983 56.3236 34.3972 56.2597 34.7902C55.2679 34.0722 54.0593 33.6363 52.7534 33.6002C51.7691 31.9339 50.1893 30.5431 48.3333 29.7747C46.3353 28.9466 44.3004 28.9399 42.4913 29.6571C40.5597 28.9013 38.5197 29.0197 36.6553 29.7923C34.8059 30.5583 33.2304 31.9423 32.2469 33.6002C30.9393 33.6354 29.7291 34.0713 28.7364 34.7902C28.6725 34.3972 28.6406 33.9983 28.6406 33.5977C28.6406 29.4295 32.0311 26.0391 36.1992 26.0391H48.7969C52.965 26.0391 56.3555 29.4295 56.3555 33.5977Z" fill="#00ACDE"/>
<path d="M48.1244 23.5195H36.8789C37.7523 22.0145 39.3808 21 41.2419 21H43.7614C45.6225 21 47.251 22.0145 48.1244 23.5195Z" fill="#00ACDE"/>
<path d="M52.5762 36.117H51.1274C50.6319 34.4364 49.2017 32.8609 47.3691 32.1017C45.6517 31.3903 43.9283 31.5364 42.4964 32.4813C41.0686 31.5448 39.3436 31.4054 37.6194 32.1193C35.7919 32.8768 34.3658 34.444 33.8695 36.117H32.4199C30.3363 36.117 28.6406 37.8126 28.6406 39.8963C28.6406 41.539 29.6938 42.9398 31.1602 43.4597V43.6755C31.1602 48.2766 34.2774 52.2902 38.7188 53.4354V55.0134C38.7188 57.0971 40.4144 58.7927 42.498 58.7927C44.5817 58.7927 46.2773 57.0971 46.2773 55.0134V53.4354C50.7112 52.2922 53.8359 48.2847 53.8359 43.6755V43.4597C55.3023 42.9398 56.3555 41.539 56.3555 39.8963C56.3555 37.8126 54.6598 36.117 52.5762 36.117ZM38.7188 38.6365H41.2383V41.156H38.7188V38.6365ZM42.498 48.7146C40.4144 48.7146 38.7188 47.019 38.7188 44.9353H41.2383C41.2383 45.6299 41.8035 46.1951 42.498 46.1951C43.1926 46.1951 43.7578 45.6299 43.7578 44.9353H46.2773C46.2773 47.019 44.5817 48.7146 42.498 48.7146ZM46.2773 41.156H43.7578V38.6365H46.2773V41.156Z" fill="#00ACDE"/>
</svg>
