<svg width="85" height="85" viewBox="0 0 85 85" fill="none" xmlns="http://www.w3.org/2000/svg">
<circle cx="42.5" cy="42.5" r="42.5" fill="#E5F3FF"/>
<g clip-path="url(#clip0)">
<path d="M42.9995 21C38.2585 21 34.4023 24.8572 34.4023 29.5982V34.0528C34.4023 38.7942 38.2585 42.6513 42.9995 42.6513C47.7409 42.6513 51.5967 38.7942 51.5967 34.0528V29.5982C51.5968 24.8572 47.7409 21 42.9995 21Z" fill="#00ACDE"/>
<rect x="45.1992" y="49.6001" width="11" height="11" fill="#E5F3FF"/>
<path d="M61.9594 53.856C59.2064 49.1646 54.8061 45.6865 49.5691 44.0624C49.4477 44.0247 49.3164 44.0568 49.2259 44.1462C46.7897 46.5482 43.7625 48.4222 43.0058 48.8749C42.1979 48.3585 38.7952 46.1406 36.7722 44.1462C36.6821 44.0568 36.5498 44.0247 36.429 44.0624C31.1913 45.6869 26.7914 49.1649 24.0394 53.8564C23.9764 53.9637 23.9764 54.0971 24.0394 54.2045C27.9473 60.8636 35.2122 65.0002 42.9991 65.0002C50.7863 65.0002 58.0515 60.8636 61.9594 54.2045C62.0228 54.0968 62.0228 53.9634 61.9594 53.856ZM54.6921 56.4207C54.6921 56.6104 54.5115 56.7554 54.3221 56.7554H51.9936C51.8039 56.7554 51.5969 56.9184 51.5969 57.1085V59.5165C51.5969 59.7059 51.4956 59.8505 51.3058 59.8505H49.2146C49.0249 59.8505 48.8461 59.7059 48.8461 59.5165V57.1085C48.8454 56.9187 48.7159 56.7554 48.5261 56.7554H46.0973C45.9076 56.7554 45.7506 56.61 45.7506 56.4207V54.3474C45.7506 54.1577 45.9076 54.0046 46.0973 54.0046H48.5261C48.7159 54.0046 48.8454 53.8497 48.8454 53.6596V51.2488C48.8454 51.059 49.0242 50.9094 49.2139 50.9094H51.2826C51.472 50.9094 51.5966 51.059 51.5966 51.2488V53.6666C51.5966 53.8567 51.7803 54.0042 51.9704 54.0042H54.3221C54.5115 54.0042 54.6921 54.1647 54.6921 54.3544V56.4207Z" fill="#FF6969"/>
</g>
<defs>
<clipPath id="clip0">
<rect width="44" height="44" fill="white" transform="translate(21 21)"/>
</clipPath>
</defs>
</svg>
