<svg width="85" height="85" viewBox="0 0 85 85" fill="none" xmlns="http://www.w3.org/2000/svg">
<circle cx="42.5" cy="42.5" r="42.5" fill="#E5F3FF"/>
<g clip-path="url(#clip0)">
<path d="M42.1982 55.2908C39.8764 55.2908 38.8342 53.7254 38.6008 52.8127C38.5283 52.5296 38.6947 52.2403 38.972 52.1664C39.2485 52.0927 39.5309 52.2609 39.6046 52.542C39.6276 52.6256 40.1197 54.3155 42.3651 54.228V34.452C41.8149 33.876 40.5852 32.9651 38.9634 34.024C38.7216 34.1815 38.4008 34.1096 38.2463 33.8634C38.0917 33.617 38.1622 33.2894 38.4037 33.1317C40.0893 32.0311 41.4816 32.4914 42.3651 33.0869V24.8319C42.3651 23.8843 41.8982 23.0331 41.0844 22.4966C40.6601 22.2169 40.1674 22.0469 39.6636 22.0101C39.3675 21.9885 38.4645 21.9726 38.3764 22.2847C38.3625 22.335 38.0799 23.4108 38.8278 24.2143C39.2884 24.7092 38.5371 25.4404 38.0749 24.9438C37.4064 24.2257 37.2691 23.3844 37.2774 22.7829C36.217 23.4516 35.3131 24.3682 34.5777 25.5197C35.6098 26.1778 36.8636 27.6449 36.5945 30.077C36.5202 30.7487 35.4872 30.6405 35.5627 29.9582C35.8344 27.5031 34.2182 26.5023 33.7465 26.2648C31.2955 26.5158 29.2782 28.4389 28.8154 30.9888C28.7079 31.582 28.6909 32.184 28.765 32.7779C28.7961 33.0269 28.6516 33.2641 28.4188 33.3457C27.5089 33.6648 26.6692 34.3987 26.0056 35.3922C26.8744 35.9292 27.8357 37.0349 27.3853 38.7346C27.2088 39.4008 26.2086 39.1155 26.3829 38.4581C26.6962 37.2757 25.9759 36.6116 25.4809 36.3071C25.1257 37.0322 24.8551 37.8459 24.6986 38.7085C24.2789 41.0219 24.7468 43.2895 25.8912 44.5745C26.2627 44.5545 26.9601 44.5622 27.6983 44.8058C28.7124 45.1406 29.9929 45.9836 30.3333 48.0989C30.4407 48.766 29.4174 48.9457 29.3086 48.2705C28.8888 45.6616 26.639 45.5903 25.9554 45.6304C25.3212 46.4649 24.8845 47.4706 24.6882 48.5527C24.2153 51.1591 25.2455 53.6987 27.1935 54.7285C27.3769 54.8255 27.4866 55.0241 27.4726 55.2345C27.3199 57.543 29.1259 59.6676 31.7416 60.353C32.0489 58.9288 33.121 56.8723 35.6734 56.5409C35.9574 56.504 36.2178 56.7092 36.2541 56.9995C36.2902 57.2897 36.089 57.5549 35.8046 57.5919C33.2753 57.9203 32.7849 60.3137 32.7019 60.9045C33.3977 62.4001 34.9452 63.5269 36.7949 63.8839C36.9781 62.8616 37.6428 61.5354 39.3268 61.4072C39.6113 61.3854 39.8619 61.6042 39.8832 61.8961C39.9045 62.1878 39.69 62.442 39.404 62.4637C38.3014 62.5476 37.9456 63.4195 37.8308 63.9975C39.657 64.0487 41.3895 63.3144 42.3651 62.033V55.288C42.3088 55.2897 42.2531 55.2908 42.1982 55.2908ZM36.9108 33.9064C37.2931 33.9064 37.6031 34.2225 37.6031 34.6126C37.6031 35.0027 37.2931 35.3189 36.9108 35.3189C36.5285 35.3189 36.2186 35.0027 36.2186 34.6126C36.2186 34.2225 36.5285 33.9064 36.9108 33.9064ZM30.4397 50.9339C30.0574 50.9339 29.7475 50.6176 29.7475 50.2276C29.7475 49.8376 30.0574 49.5214 30.4397 49.5214C30.822 49.5214 31.1319 49.8376 31.1319 50.2276C31.132 50.6176 30.822 50.9339 30.4397 50.9339ZM33.0724 43.4708C32.7856 43.4708 32.5532 43.2336 32.5532 42.9411C32.5532 42.6495 32.7841 42.4129 33.0696 42.4114C33.2546 42.4091 34.6722 42.3357 35.1 40.7251C34.6615 40.8483 34.2098 40.8961 33.773 40.8961C32.3193 40.8961 31.0298 40.3677 30.9346 40.3278C30.6693 40.2166 30.5427 39.9071 30.6517 39.6365C30.7607 39.366 31.0637 39.2369 31.3287 39.3476C31.3631 39.362 34.7982 40.7616 36.2153 38.7283C36.3814 38.4898 36.7055 38.4341 36.9394 38.6036C37.173 38.7732 37.2278 39.1038 37.0616 39.3423C36.8193 39.6899 36.5415 39.9655 36.2411 40.1824C36.0273 42.774 34.098 43.4708 33.0724 43.4708ZM36.5573 48.4323C36.2149 49.009 35.3207 48.4707 35.6692 47.8834C35.7252 47.789 37.0697 45.5746 39.4052 45.7569C39.6912 45.7794 39.905 46.034 39.8831 46.3257C39.8611 46.6175 39.6092 46.8344 39.3256 46.8132C37.6182 46.6787 36.5678 48.4147 36.5573 48.4323C36.4597 48.5967 36.5678 48.4147 36.5573 48.4323Z" fill="#00ACDE"/>
<path d="M56.6045 39.9129C56.6045 39.4749 56.2552 39.1187 55.8257 39.1187C55.3962 39.1187 55.0469 39.4749 55.0469 39.9129C55.0469 40.3508 55.3962 40.7071 55.8257 40.7071C56.2552 40.7071 56.6045 40.3508 56.6045 39.9129Z" fill="#FF6969"/>
<path d="M43.5312 40.8721H46.8298V45.1289H43.5312V40.8721Z" fill="#FF6969"/>
<path d="M59.8086 45.4496C59.6351 45.237 59.6515 44.9239 59.8461 44.7312C61.1058 43.4836 61.6363 41.1158 61.1976 38.6989C60.7271 36.1077 59.2322 33.9536 57.4775 33.3385C57.2448 33.257 57.1001 33.0199 57.1312 32.7709C57.2053 32.1772 57.1884 31.5755 57.0808 30.9826C56.6095 28.3866 54.5258 26.4393 52.0135 26.2472C51.8428 26.2341 51.6893 26.1361 51.6034 25.985C50.6264 24.2679 49.3073 23.0187 47.683 22.272C46.7481 21.8425 45.6749 21.9254 44.812 22.494C43.9982 23.0304 43.5313 23.8812 43.5313 24.8283V30.0195H47.5388V28.0394C46.7892 27.8109 46.2409 27.1021 46.2409 26.2643C46.2409 25.2425 47.056 24.4112 48.058 24.4112C49.06 24.4112 49.8751 25.2425 49.8751 26.2643C49.8751 27.102 49.3268 27.8109 48.5772 28.0394V30.549C48.5772 30.8414 48.3448 31.0784 48.058 31.0784H46.0491V33.6183H50.7005C50.9245 32.8538 51.6196 32.2947 52.4411 32.2947C53.443 32.2947 54.2582 33.126 54.2582 34.1478C54.2582 35.1696 53.443 36.0009 52.4411 36.0009C51.6196 36.0009 50.9245 35.4417 50.7005 34.6772H45.5299C45.2431 34.6772 45.0107 34.4402 45.0107 34.1478V31.0784H43.5312V39.814H44.6562V38.2183C44.6562 37.9258 44.8886 37.6888 45.1754 37.6888C45.4621 37.6888 45.6946 37.9258 45.6946 38.2183V39.814H47.349C47.6358 39.814 47.8682 40.051 47.8682 40.3434V41.2365H49.3611C49.6479 41.2365 49.8803 41.4735 49.8803 41.7659C49.8803 42.0583 49.6479 42.2954 49.3611 42.2954H47.8682V43.7072H49.3611C49.6479 43.7072 49.8803 43.9443 49.8803 44.2367C49.8803 44.5291 49.6479 44.7661 49.3611 44.7661H47.8682V45.6591C47.8682 45.9515 47.6358 46.1886 47.349 46.1886H45.6946V47.6585C45.6946 47.9509 45.4621 48.188 45.1754 48.188C44.8886 48.188 44.6562 47.9509 44.6562 47.6585V46.1886H43.5312V54.9242H45.0107V51.8548C45.0107 51.5624 45.2431 51.3254 45.5299 51.3254H50.7005C50.9245 50.5609 51.6196 50.0017 52.4411 50.0017C53.443 50.0017 54.2582 50.833 54.2582 51.8548C54.2582 52.8766 53.443 53.7079 52.4411 53.7079C51.6196 53.7079 50.9245 53.1487 50.7005 52.3843H46.0491V54.9242H48.058C48.3448 54.9242 48.5772 55.1612 48.5772 55.4536V57.9632C49.3268 58.1917 49.8751 58.9005 49.8751 59.7383C49.8751 60.7601 49.06 61.5914 48.058 61.5914C47.056 61.5914 46.2409 60.7601 46.2409 59.7383C46.2409 58.9006 46.7892 58.1917 47.5388 57.9632V55.9831H43.5313V62.0128C44.6666 63.5033 46.826 64.2543 48.9666 63.888C50.9281 63.5521 52.5698 62.3529 53.2512 60.7583C53.3206 60.5959 53.4651 60.4797 53.6361 60.4486C56.5281 59.9234 58.5863 57.6745 58.4237 55.2173C58.4097 55.0071 58.5194 54.8085 58.7028 54.7116C60.6508 53.6822 61.6809 51.1438 61.2081 48.5386C60.9983 47.3833 60.5144 46.3151 59.8086 45.4496ZM57.6418 46.0899C57.6418 47.1117 56.8266 47.943 55.8247 47.943C54.8227 47.943 54.0075 47.1117 54.0075 46.0899C54.0075 45.2522 54.5559 44.5433 55.3055 44.3148V41.688C54.5559 41.4595 54.0075 40.7507 54.0075 39.9129C54.0075 38.8911 54.8227 38.0597 55.8247 38.0597C56.8266 38.0597 57.6418 38.8911 57.6418 39.9129C57.6418 40.7506 57.0935 41.4595 56.3439 41.688V44.3149C57.0935 44.5433 57.6418 45.2522 57.6418 46.0899Z" fill="#FF6969"/>
<path d="M48.0561 60.5333C48.4863 60.5333 48.8349 60.1777 48.8349 59.739C48.8349 59.3004 48.4863 58.9448 48.0561 58.9448C47.626 58.9448 47.2773 59.3004 47.2773 59.739C47.2773 60.1777 47.626 60.5333 48.0561 60.5333Z" fill="#FF6969"/>
<path d="M52.439 52.648C52.8691 52.648 53.2178 52.2924 53.2178 51.8538C53.2178 51.4152 52.8691 51.0596 52.439 51.0596C52.0088 51.0596 51.6602 51.4152 51.6602 51.8538C51.6602 52.2924 52.0088 52.648 52.439 52.648Z" fill="#FF6969"/>
<path d="M55.8218 46.9044C56.2519 46.9044 56.6006 46.5488 56.6006 46.1101C56.6006 45.6715 56.2519 45.3159 55.8218 45.3159C55.3916 45.3159 55.043 45.6715 55.043 46.1101C55.043 46.5488 55.3916 46.9044 55.8218 46.9044Z" fill="#FF6969"/>
<path d="M52.439 34.941C52.8691 34.941 53.2178 34.5854 53.2178 34.1468C53.2178 33.7081 52.8691 33.3525 52.439 33.3525C52.0088 33.3525 51.6602 33.7081 51.6602 34.1468C51.6602 34.5854 52.0088 34.941 52.439 34.941Z" fill="#FF6969"/>
<path d="M48.0561 27.0386C48.4863 27.0386 48.8349 26.6831 48.8349 26.2444C48.8349 25.8058 48.4863 25.4502 48.0561 25.4502C47.626 25.4502 47.2773 25.8058 47.2773 26.2444C47.2773 26.6831 47.626 27.0386 48.0561 27.0386Z" fill="#FF6969"/>
</g>
<defs>
<clipPath id="clip0">
<rect width="42" height="42" fill="white" transform="translate(22 22)"/>
</clipPath>
</defs>
</svg>
