<svg width="85" height="85" viewBox="0 0 85 85" fill="none" xmlns="http://www.w3.org/2000/svg">
<circle cx="42.5" cy="42.5" r="42.5" fill="#E5F3FF"/>
<path d="M36 42L51 41V55H36V42Z" fill="#FF6969"/>
<path d="M43.0316 21C41.4447 21 40.1454 22.268 40.1454 23.8149C40.1456 24.0604 40.1311 24.6282 40.2056 25.2454C40.2562 25.6643 40.4771 26.0981 40.6714 26.5278L39.3386 28.2657H46.7202L45.3932 26.5278C45.5676 26.1126 45.7544 25.6965 45.816 25.2775C45.9054 24.669 45.9245 24.1094 45.9249 23.8149C45.9249 22.268 44.6184 21 43.0316 21H43.0316ZM36.3379 29.6892C34.9384 29.6552 34.205 31.1274 34.1668 32.3281H51.7688C51.7513 31.1059 51.0163 29.6978 49.7196 29.6961L36.3379 29.6892ZM33.5234 33.7585C32.6109 34.3213 32.0001 35.3075 32.0001 36.4338V39.3366C33.4677 39.3475 34.9349 39.3259 36.4023 39.3059C37.402 39.2732 37.4197 40.7462 36.4195 40.7363C34.9464 40.7552 33.4733 40.765 32.0001 40.7685V45.0586C32.9186 45.0603 33.8372 45.0609 34.7558 45.0667C35.7559 45.0424 35.7618 46.515 34.7615 46.4972C33.841 46.4985 32.9205 46.4989 32 46.4918V50.7819C32.9186 50.7839 33.8372 50.7844 34.7558 50.79C35.7558 50.7657 35.7617 52.2382 34.7615 52.2205C33.841 52.2215 32.9205 52.2217 32 52.2124V56.5179C33.9571 56.5071 35.9141 56.4884 37.8712 56.4703C38.8713 56.4381 38.8876 57.9121 37.8869 57.9008C35.9239 57.9197 33.964 57.9394 32 57.9581V60.8163C32 62.5661 33.4652 64 35.2602 64H50.7398C52.5348 64 54 62.5661 54 60.8163V36.4336C54 35.3102 53.3935 34.3227 52.4853 33.7584L33.5234 33.7585ZM46.8994 42.4002C47.6413 42.4708 48.3468 42.8218 48.9844 43.3768C49.6663 43.9702 50.1651 44.8204 50.257 45.8005C50.3488 46.7806 50.0059 47.8689 49.1363 48.8458L43.996 54.6223C43.7074 54.9471 43.1923 54.9523 42.8969 54.6331C42.7248 54.4472 41.572 53.1495 40.3561 51.7875C39.1449 50.4309 37.9503 49.0945 37.7738 48.893C36.0177 46.9771 36.512 44.5817 37.897 43.3763C39.2015 42.2409 40.8525 42.2287 42.0686 42.9852C42.6101 43.3221 43.0396 43.8347 43.4472 44.2872C43.8576 43.8511 44.2938 43.3485 44.7813 43.0062C45.4198 42.5579 46.1574 42.3294 46.8994 42.3999V42.4002Z" fill="#00ACDE"/>
</svg>
