<svg width="85" height="85" viewBox="0 0 85 85" fill="none" xmlns="http://www.w3.org/2000/svg">
<circle cx="42.5" cy="42.5" r="42.5" fill="#E5F3FF"/>
<g clip-path="url(#clip0)">
<path d="M55.5989 33.6557C54.7794 31.7807 54.3452 25.4976 54.4788 23.2064L54.6074 21H31.3965L31.525 23.2064C31.6586 25.4976 31.2244 31.7807 30.4049 33.6557L29.3711 36.1043C37.6516 39.7709 48.3523 39.7708 56.6327 36.1043L55.5989 33.6557ZM41.7128 31.9242H44.291V34.4437H41.7128V31.9242Z" fill="#00ACDE"/>
<path d="M44.3984 54.7534V64.0003H54.0082L54.3747 63.3441C56.3239 59.8549 57.8337 56.1353 58.8622 52.2888L59.2096 50.9896C59.7818 49.0102 59.9559 46.9495 59.7346 44.9194C58.6079 45.1899 47.7371 47.9606 44.3984 54.7534Z" fill="#00ACDE"/>
<path d="M26.2686 44.9189C26.0474 46.949 26.2213 49.0098 26.7936 50.9892L27.1409 52.2884C28.1694 56.1348 29.6792 59.8543 31.6284 63.3437L31.9949 63.9999H41.6046V54.753C38.2586 47.9425 27.3932 45.1874 26.2686 44.9189Z" fill="#00ACDE"/>
<path d="M42.999 51.6966C47.8812 44.8336 58.6192 42.3666 59.2014 42.2374C59.0114 41.5829 58.7777 40.9355 58.5046 40.3108L57.7572 38.6006C53.3349 40.5541 48.2324 41.5868 42.9991 41.5868C37.7659 41.5868 32.6634 40.5541 28.2411 38.6006L27.4937 40.3108C27.2207 40.9353 26.987 41.5827 26.7969 42.2374C27.3796 42.3668 38.1171 44.8338 42.999 51.6966Z" fill="#FF6969"/>
</g>
<defs>
<clipPath id="clip0">
<rect width="44" height="43" fill="white" transform="translate(21 21)"/>
</clipPath>
</defs>
</svg>
