<svg width="85" height="85" viewBox="0 0 85 85" fill="none" xmlns="http://www.w3.org/2000/svg">
<circle cx="42.5" cy="42.5" r="42.5" fill="#E5F3FF"/>
<g clip-path="url(#clip0)">
<path d="M55.0745 23.2701C54.0296 22.2633 52.6923 21.7798 51.3446 21.7798C49.8274 21.7798 48.2953 22.3922 47.1529 23.5633L46.6627 24.0652L46.1724 23.5618C45.0301 22.3922 43.4979 21.7798 41.9808 21.7798C40.633 21.7798 39.2958 22.2633 38.2509 23.2701C35.9526 25.4849 35.9122 29.1901 38.1279 31.4586L46.6627 40.1965L55.1974 31.4586C57.4132 29.1901 57.3727 25.4849 55.0745 23.2701Z" fill="#FF6969"/>
<path d="M63.4519 44.4594C62.1401 43.5492 60.5945 43.807 59.2257 44.6159C57.857 45.4248 49.9984 52.304 49.9984 52.304L42.2627 52.3055C41.9029 52.3055 41.5131 51.8911 41.5131 51.5243C41.5131 51.093 41.8804 50.7569 42.2627 50.7569H46.9956C48.6521 50.7569 50.5066 49.6518 50.5066 47.6872C50.5066 45.5998 48.6521 44.6174 46.9956 44.6174C44.1217 44.6174 43.5625 44.6297 43.5625 44.6297C42.4111 44.6297 41.2433 44.5591 40.3438 44.0664C39.1444 43.4371 37.7622 43.0811 36.287 43.0811C33.8104 43.0811 31.5932 44.0925 30.073 45.6872L22 53.8251L30.995 63.0342L33.9933 59.9645H49.1754C50.6865 59.9645 52.1452 59.3966 53.2741 58.3698L63.5538 46.5636C64.182 45.9927 64.146 44.9428 63.4519 44.4594Z" fill="#00ACDE"/>
</g>
<defs>
<clipPath id="clip0">
<rect width="42" height="43" fill="white" transform="translate(22 21)"/>
</clipPath>
</defs>
</svg>
