<svg width="41" height="41" viewBox="0 0 41 41" fill="none" xmlns="http://www.w3.org/2000/svg">
<g clip-path="url(#clip0)">
<path d="M39.9471 27.3148L27.8553 5.53352C26.3717 2.86123 23.5533 1.20117 20.5 1.20117C17.4467 1.20117 14.6283 2.86123 13.1447 5.53352L1.0529 27.3148C0.364105 28.5557 0 29.9649 0 31.3906C0 36.027 3.7718 39.7988 8.4082 39.7988H32.5918C37.2282 39.7988 41 36.027 41 31.3906C41 29.9649 40.6359 28.5557 39.9471 27.3148ZM32.5918 36.1953H8.4082C5.75874 36.1953 3.60352 34.0401 3.60352 31.3906C3.60352 30.5755 3.81091 29.7709 4.20348 29.0637L16.2953 7.28242C17.1439 5.75405 18.7549 4.80469 20.5 4.80469C22.2448 4.80469 23.8561 5.75405 24.7047 7.28242L36.7965 29.0637C37.1891 29.7709 37.3965 30.5755 37.3965 31.3906C37.3965 34.0401 35.2413 36.1953 32.5918 36.1953Z" fill="#00ACDE"/>
<path d="M22.6042 8.44855C22.1791 7.68281 21.3727 7.20703 20.5 7.20703C19.6273 7.20703 18.8209 7.68281 18.3958 8.44855L6.30396 30.2298C6.10877 30.5811 6.00586 30.9824 6.00586 31.3906C6.00586 32.7154 7.08347 33.793 8.4082 33.793H32.5918C33.9165 33.793 34.9941 32.7154 34.9941 31.3906C34.9941 30.9824 34.8912 30.5811 34.696 30.2298L22.6042 8.44855ZM21.7012 30.1895H19.2988V27.7871H21.7012V30.1895ZM21.7012 25.3848H19.2988V14.4941H21.7012V25.3848Z" fill="#FF6969"/>
</g>
<defs>
<clipPath id="clip0">
<rect width="41" height="41" fill="white"/>
</clipPath>
</defs>
</svg>
