<svg width="42" height="42" viewBox="0 0 42 42" fill="none" xmlns="http://www.w3.org/2000/svg">
<g clip-path="url(#clip0)">
<path d="M15.1895 37.3398C15.7156 39.9902 18.1213 42.0007 21.0007 42.0007C23.8791 42.0007 26.2842 39.9918 26.8113 37.3398H15.1895Z" fill="#FF6969"/>
<path d="M21.0011 0C19.8137 0 18.8477 0.964564 18.8477 2.15017C18.8477 3.33577 19.8137 4.30033 21.0011 4.30033C22.1885 4.30033 23.1546 3.33577 23.1546 2.15017C23.1546 0.964564 22.1885 0 21.0011 0Z" fill="#FF6969"/>
<path d="M36.006 34.4499C35.9838 34.4273 35.9626 34.4037 35.9421 34.3794C34.9216 33.1574 34.0514 31.821 33.3368 30.3868H19.5648C18.9019 30.3868 18.3645 29.8495 18.3645 29.1868C18.3645 28.5242 18.9019 27.9869 19.5648 27.9869H32.32C31.412 25.4302 30.9437 22.6277 30.9437 19.6556V16.3796C30.9437 11.0225 26.4827 6.66406 20.9993 6.66406C15.516 6.66406 11.0549 11.0225 11.0549 16.3796V19.5528C11.0549 22.5667 10.5756 25.4061 9.64704 27.9868H13.4169C14.0797 27.9868 14.6172 28.5241 14.6172 29.1867C14.6172 29.8494 14.0797 30.3867 13.4169 30.3867H8.61625C7.97521 31.6565 7.21167 32.8468 6.32886 33.9444C6.31109 33.9665 6.29252 33.9879 6.27322 34.0088L5.41016 34.9384H36.4846L36.006 34.4499Z" fill="#00ACDE"/>
<path d="M37.8499 25.4168C37.0348 25.4168 36.4413 24.5672 36.7238 23.8013C37.4409 21.8567 37.8047 19.8103 37.8047 17.7191C37.8047 15.313 37.3269 12.9807 36.3848 10.7871C36.1232 10.1781 36.405 9.47249 37.0142 9.21098C37.6234 8.94938 38.3291 9.23126 38.5907 9.84017C39.6621 12.3347 40.2053 14.9855 40.2053 17.7191C40.2053 20.0946 39.7918 22.4203 38.9762 24.6315C38.7973 25.1164 38.3383 25.4168 37.8499 25.4168Z" fill="#FF6969"/>
<path d="M4.15042 25.4165C3.66204 25.4165 3.203 25.1162 3.02414 24.6313C2.20855 22.42 1.79492 20.0942 1.79492 17.7185C1.79492 14.9145 2.36551 12.2009 3.49081 9.65308C3.75869 9.04687 4.46731 8.77234 5.07362 9.04005C5.6801 9.30775 5.95463 10.0162 5.68684 10.6225C4.69732 12.863 4.19548 15.2505 4.19548 17.7185C4.19548 19.81 4.55912 21.8564 5.27644 23.801C5.55769 24.5633 4.97005 25.4165 4.15042 25.4165Z" fill="#FF6969"/>
</g>
<defs>
<clipPath id="clip0">
<rect width="42" height="42" fill="white"/>
</clipPath>
</defs>
</svg>
