<svg width="55" height="55" viewBox="0 0 55 55" fill="none" xmlns="http://www.w3.org/2000/svg">
<g clip-path="url(#clip0)">
<path d="M8.53621 7.58624C8.78769 7.58635 9.02896 7.48645 9.20685 7.30856C9.38474 7.13066 9.48464 6.8895 9.48453 6.63792V0.94832C9.48453 0.424531 9.06 0 8.53621 0C8.01253 0 7.58789 0.424531 7.58789 0.94832V6.63803C7.58778 6.8895 7.68769 7.13077 7.86558 7.30866C8.04347 7.48655 8.28474 7.58624 8.53621 7.58624Z" fill="#FF6969"/>
<path d="M46.4659 7.58624C46.7174 7.58635 46.9586 7.48645 47.1365 7.30856C47.3144 7.13066 47.4143 6.8895 47.4142 6.63792V0.94832C47.4142 0.424639 46.9897 0 46.4659 0C45.9422 0 45.5176 0.424531 45.5176 0.94832V6.63803C45.5175 6.8895 45.6174 7.13077 45.7953 7.30866C45.9732 7.48655 46.2143 7.58624 46.4659 7.58624Z" fill="#FF6969"/>
<path d="M20.0172 36.9834H15.1738V46.4662H21.613C20.4976 44.0926 19.9179 41.5026 19.9152 38.8799C19.9161 38.2464 19.95 37.6133 20.0172 36.9834Z" fill="#00ACDE"/>
<path d="M26.5531 16.1206H15.1738V24.6551H26.5531V16.1206Z" fill="#00ACDE"/>
<path d="M15.1739 35.0857H20.3249C21.0202 31.8835 22.5776 28.9323 24.8288 26.5513H15.1738V35.0857H15.1739Z" fill="#00ACDE"/>
<path d="M13.2768 16.1206H0.949219V24.6551H13.2768V16.1206Z" fill="#FF6969"/>
<path d="M0.949219 43.6213C0.950938 45.1917 2.22356 46.4645 3.79407 46.4662H13.2768V36.9834H0.949219V43.6213Z" fill="#00ACDE"/>
<path d="M13.2768 26.5518H0.949219V35.0862H13.2768V26.5518Z" fill="#00ACDE"/>
<path d="M51.2078 4.74121V6.63774C51.2078 9.25637 49.0851 11.3791 46.4664 11.3791C43.8478 11.3791 41.7251 9.25637 41.7251 6.63774V4.74121H13.2767V6.63774C13.2767 9.25637 11.154 11.3791 8.53535 11.3791C5.91673 11.3791 3.79397 9.25637 3.79397 6.63774V4.74121C2.22356 4.74293 0.950938 6.01556 0.949219 7.58607V14.224H54.0527V7.58607C54.0509 6.01556 52.7782 4.74293 51.2078 4.74121Z" fill="#00ACDE"/>
<path d="M39.8285 20.9639V16.1206H28.4492V23.5881C31.2919 21.8082 34.578 20.8635 37.932 20.862C38.5655 20.8627 39.1985 20.8968 39.8285 20.9639Z" fill="#00ACDE"/>
<path d="M54.0522 30.8813V26.5518H51.0352C52.2473 27.8395 53.2638 29.2983 54.0522 30.8813Z" fill="#00ACDE"/>
<path d="M41.7246 21.2716C44.3564 21.8425 46.8258 22.999 48.9494 24.6551H54.0521V16.1206H41.7246V21.2716Z" fill="#00ACDE"/>
<path d="M37.9311 26.5518C31.1229 26.5518 25.6035 32.071 25.6035 38.8794C25.6035 45.6878 31.1229 51.207 37.9311 51.207C44.7394 51.207 50.2588 45.6878 50.2588 38.8794C50.251 32.0742 44.7363 26.5595 37.9311 26.5518ZM43.3429 44.2912C43.1652 44.4691 42.924 44.569 42.6725 44.569C42.4211 44.569 42.1799 44.4691 42.0021 44.2912L37.2607 39.5498C37.0829 39.372 36.983 39.1309 36.9829 38.8794V29.3966C36.9829 28.8729 37.4075 28.4483 37.9312 28.4483C38.4549 28.4483 38.8796 28.8728 38.8796 29.3966V38.4868L43.3431 42.9502C43.5209 43.128 43.6208 43.3692 43.6208 43.6207C43.6208 43.8722 43.5208 44.1134 43.3429 44.2912Z" fill="#FF6969"/>
<path d="M37.9312 22.7588C29.028 22.7588 21.8105 29.9763 21.8105 38.8795C21.8105 47.7827 29.0281 55.0002 37.9312 55.0002C46.8344 55.0002 54.0519 47.7827 54.0519 38.8795C54.042 29.9804 46.8304 22.7688 37.9312 22.7588ZM37.9312 53.1036C30.0755 53.1036 23.7071 46.7352 23.7071 38.8795C23.7071 31.0237 30.0755 24.6553 37.9312 24.6553C45.787 24.6553 52.1554 31.0237 52.1554 38.8795C52.1467 46.7316 45.7835 53.0948 37.9312 53.1036Z" fill="#FF6969"/>
</g>
<defs>
<clipPath id="clip0">
<rect width="55" height="55" fill="white"/>
</clipPath>
</defs>
</svg>
