<svg width="45" height="45" viewBox="0 0 45 45" fill="none" xmlns="http://www.w3.org/2000/svg">
<path d="M23.8887 15.5178C23.4393 15.4286 22.9752 15.3809 22.5 15.3809C18.5744 15.3809 15.3809 18.5744 15.3809 22.5C15.3809 26.4256 18.5744 29.6191 22.5 29.6191C26.4256 29.6191 29.6191 26.4256 29.6191 22.5C29.6191 22.0248 29.5714 21.5607 29.4822 21.1113L25.2967 25.2967C24.5496 26.0438 23.5564 26.4551 22.5 26.4551C21.4436 26.4551 20.4504 26.0438 19.7033 25.2967C18.9562 24.5496 18.5449 23.5564 18.5449 22.5C18.5449 21.4436 18.9562 20.4504 19.7033 19.7033L23.8887 15.5178Z" fill="#FF6969"/>
<path d="M42.9864 13.2001L40.1499 16.0366C39.866 16.3205 39.546 16.5561 39.2006 16.7387C39.8254 18.5456 40.166 20.4837 40.166 22.5C40.166 32.2411 32.2411 40.166 22.5 40.166C12.7589 40.166 4.83398 32.2411 4.83398 22.5C4.83398 12.7589 12.7589 4.83398 22.5 4.83398C24.517 4.83398 26.4561 5.1749 28.2634 5.80009C28.4464 5.45437 28.6802 5.13302 28.9637 4.84978L31.7999 2.01359C28.9637 0.720978 25.8148 0 22.5 0C10.0933 0 0 10.0933 0 22.5C0 34.9067 10.0933 45 22.5 45C34.9067 45 45 34.9067 45 22.5C45 19.1852 44.279 16.0363 42.9864 13.2001Z" fill="#FF6969"/>
<path d="M28.0996 11.307L27.8593 8.45879C26.1938 7.82055 24.3872 7.4707 22.5 7.4707C14.2129 7.4707 7.4707 14.2129 7.4707 22.5C7.4707 30.7871 14.2129 37.5293 22.5 37.5293C30.7871 37.5293 37.5293 30.7871 37.5293 22.5C37.5293 20.6128 37.1795 18.8062 36.5412 17.1407L33.693 16.9004L31.6025 18.9906C32.0241 20.0803 32.2559 21.2634 32.2559 22.5C32.2559 27.8795 27.8795 32.2559 22.5 32.2559C17.1205 32.2559 12.7441 27.8795 12.7441 22.5C12.7441 17.1205 17.1205 12.7441 22.5 12.7441C23.7366 12.7441 24.9197 12.9759 26.0094 13.3975L28.0996 11.307Z" fill="#00ACDE"/>
<path d="M30.4462 7.75798L30.83 12.3063L21.5679 21.5685C21.0529 22.0831 21.0529 22.9181 21.5679 23.4327C21.825 23.6902 22.1625 23.819 22.5 23.819C22.8375 23.819 23.175 23.6902 23.4321 23.4327L32.6943 14.1706L37.2426 14.5541C37.2797 14.5571 37.3164 14.5589 37.3535 14.5589C37.7016 14.5589 38.0374 14.4208 38.2856 14.1726L43.8787 8.57921C44.2416 8.21666 44.3611 7.67627 44.1849 7.19425C44.0085 6.71222 43.5687 6.37645 43.0575 6.33354L39.0083 5.99193L38.6671 1.94313C38.6238 1.43158 38.288 0.991779 37.8064 0.815654C37.3243 0.639186 36.7839 0.759006 36.4211 1.12155L30.828 6.71497C30.5533 6.98963 30.4136 7.37106 30.4462 7.75798Z" fill="#FF6969"/>
</svg>
