<svg width="44" height="44" viewBox="0 0 44 44" fill="none" xmlns="http://www.w3.org/2000/svg">
<g clip-path="url(#clip0)">
<path d="M33.6875 1.28955C33.6875 0.577644 33.1103 0.000488281 32.3984 0.000488281C31.6865 0.000488281 31.1094 0.577644 31.1094 1.28955V2.42951H33.6875V1.28955Z" fill="#FF6969"/>
<path d="M7.73437 1.29004C7.73437 0.578133 7.15722 0.000976562 6.44531 0.000976562C5.73341 0.000976562 5.15625 0.578133 5.15625 1.29004V2.42905H7.73437V1.29004Z" fill="#FF6969"/>
<path d="M38.8427 3.71776C38.8427 3.00586 38.2655 2.42871 37.5536 2.42871H33.6865V5.87684C33.6865 6.58874 33.1093 7.16589 32.3974 7.16589C31.6855 7.16589 31.1084 6.58874 31.1084 5.87684V2.42871H7.73483V5.87684C7.73483 6.58874 7.15768 7.16589 6.44578 7.16589C5.73388 7.16589 5.15672 6.58874 5.15672 5.87684V2.42871H1.28905C0.577152 2.42871 0 3.00586 0 3.71776V9.72243H38.8427V3.71776Z" fill="#FF6969"/>
<path d="M27.1564 29.3054C26.8169 29.3054 26.4851 29.1678 26.2446 28.928C26.0048 28.6883 25.8673 28.3558 25.8673 28.0163C25.8673 27.6777 26.0048 27.3451 26.2446 27.1053C26.4852 26.8647 26.8169 26.7273 27.1564 26.7273C27.4958 26.7273 27.8275 26.8648 28.0681 27.1053C28.3078 27.3451 28.4454 27.6777 28.4454 28.0163C28.4454 28.1446 28.4257 28.272 28.3882 28.3937C30.3179 26.4628 32.9829 25.2667 35.922 25.2667C36.9344 25.2667 37.9142 25.4087 38.8427 25.6736V12.3018H0V37.5557C0 38.2676 0.577152 38.8447 1.28905 38.8447H25.6733C25.4081 37.9158 25.2659 36.9356 25.2659 35.9227C25.2659 33.3767 26.1639 31.0368 27.6591 29.202C27.5009 29.2691 27.3297 29.3054 27.1564 29.3054ZM31.4007 16.7929C31.6405 16.5531 31.9731 16.4156 32.3125 16.4156C32.652 16.4156 32.9837 16.5531 33.2242 16.7929C33.464 17.0327 33.6016 17.3652 33.6016 17.7047C33.6016 18.0433 33.464 18.3758 33.2242 18.6156C32.9836 18.8563 32.652 18.9937 32.3125 18.9937C31.9731 18.9937 31.6405 18.8562 31.4007 18.6156C31.1609 18.3759 31.0234 18.0434 31.0234 17.7047C31.0235 17.3653 31.1609 17.0327 31.4007 16.7929ZM31.4007 21.9491C31.6405 21.7093 31.9731 21.5718 32.3125 21.5718C32.652 21.5718 32.9837 21.7093 33.2242 21.9491C33.464 22.1889 33.6016 22.5215 33.6016 22.8609C33.6016 23.1995 33.464 23.5321 33.2242 23.7718C32.9836 24.0116 32.652 24.15 32.3125 24.15C31.9731 24.15 31.6405 24.0116 31.4007 23.7718C31.1609 23.5321 31.0234 23.1996 31.0234 22.8609C31.0235 22.5215 31.1609 22.1889 31.4007 21.9491ZM26.2445 16.7929C26.4851 16.5531 26.8168 16.4156 27.1563 16.4156C27.4957 16.4156 27.8275 16.5531 28.068 16.7929C28.3078 17.0327 28.4453 17.3652 28.4453 17.7047C28.4453 18.0433 28.3078 18.3758 28.068 18.6156C27.8274 18.8563 27.4957 18.9937 27.1563 18.9937C26.8168 18.9937 26.485 18.8562 26.2445 18.6156C26.0047 18.3759 25.8672 18.0434 25.8672 17.7047C25.8673 17.3653 26.0047 17.0327 26.2445 16.7929ZM26.2445 21.9491C26.4851 21.7093 26.8168 21.5718 27.1563 21.5718C27.4957 21.5718 27.8275 21.7093 28.068 21.9491C28.3078 22.1889 28.4453 22.5215 28.4453 22.8609C28.4453 23.1995 28.3078 23.5321 28.068 23.7718C27.8274 24.0125 27.4957 24.15 27.1563 24.15C26.8168 24.15 26.485 24.0125 26.2445 23.7718C26.0047 23.5321 25.8672 23.1996 25.8672 22.8609C25.8673 22.5215 26.0047 22.1889 26.2445 21.9491ZM7.44325 34.0843C7.20348 34.324 6.87099 34.4616 6.53154 34.4616C6.19209 34.4616 5.86029 34.324 5.62053 34.0843C5.3799 33.8445 5.24249 33.512 5.24249 33.1726C5.24249 32.834 5.37999 32.5013 5.62053 32.2615C5.86029 32.0209 6.19201 31.8835 6.53154 31.8835C6.87099 31.8835 7.20348 32.021 7.44325 32.2615C7.68301 32.5013 7.82059 32.8339 7.82059 33.1726C7.82059 33.512 7.68301 33.8437 7.44325 34.0843ZM7.44325 28.928C7.20348 29.1678 6.87099 29.3054 6.53154 29.3054C6.19209 29.3054 5.86029 29.1678 5.62053 28.928C5.3799 28.6883 5.24249 28.3558 5.24249 28.0163C5.24249 27.6769 5.37999 27.3451 5.62053 27.1053C5.86029 26.8647 6.19201 26.7273 6.53154 26.7273C6.87099 26.7273 7.20271 26.8648 7.44325 27.1053C7.68301 27.3451 7.82059 27.6768 7.82059 28.0163C7.82059 28.3559 7.68301 28.6883 7.44325 28.928ZM7.44325 23.7718C7.20262 24.0116 6.87099 24.15 6.53154 24.15C6.19295 24.15 5.86029 24.0116 5.62053 23.7718C5.3799 23.5321 5.24249 23.1996 5.24249 22.8609C5.24249 22.5215 5.37999 22.1889 5.62053 21.9491C5.86029 21.7093 6.19201 21.5718 6.53154 21.5718C6.87099 21.5718 7.20271 21.7093 7.44325 21.9491C7.68301 22.1889 7.82059 22.5215 7.82059 22.8609C7.82059 23.1996 7.68301 23.5321 7.44325 23.7718ZM12.5995 34.0843C12.3597 34.324 12.0272 34.4616 11.6878 34.4616C11.3483 34.4616 11.0165 34.324 10.776 34.0843C10.5362 33.8445 10.3987 33.512 10.3987 33.1726C10.3987 32.8331 10.5362 32.5013 10.776 32.2615C11.0166 32.0209 11.3483 31.8835 11.6878 31.8835C12.0272 31.8835 12.3589 32.021 12.5995 32.2615C12.8392 32.5013 12.9768 32.833 12.9768 33.1726C12.9768 33.5121 12.8392 33.8445 12.5995 34.0843ZM12.5995 28.928C12.3588 29.1678 12.0272 29.3054 11.6878 29.3054C11.3483 29.3054 11.0165 29.1678 10.776 28.928C10.5362 28.6883 10.3987 28.3558 10.3987 28.0163C10.3987 27.6769 10.5362 27.3451 10.776 27.1053C11.0166 26.8647 11.3483 26.7273 11.6878 26.7273C12.0272 26.7273 12.3589 26.8648 12.5995 27.1053C12.8392 27.3451 12.9768 27.6777 12.9768 28.0163C12.9768 28.3558 12.8392 28.6883 12.5995 28.928ZM12.5995 23.7718C12.3588 24.0116 12.0272 24.15 11.6878 24.15C11.3492 24.15 11.0165 24.0116 10.776 23.7718C10.5362 23.5321 10.3987 23.1996 10.3987 22.8609C10.3987 22.5215 10.5362 22.1889 10.776 21.9491C11.0166 21.7093 11.3483 21.5718 11.6878 21.5718C12.0272 21.5718 12.3589 21.7093 12.5995 21.9491C12.8392 22.1889 12.9768 22.5215 12.9768 22.8609C12.9768 23.1996 12.8392 23.5321 12.5995 23.7718ZM17.7557 34.0843C17.515 34.324 17.1834 34.4616 16.844 34.4616C16.5045 34.4616 16.1719 34.324 15.9322 34.0843C15.6924 33.8445 15.5549 33.512 15.5549 33.1726C15.5549 32.8331 15.6924 32.5013 15.9322 32.2615C16.1719 32.0209 16.5045 31.8835 16.844 31.8835C17.1834 31.8835 17.5159 32.021 17.7557 32.2615C17.9954 32.5013 18.133 32.833 18.133 33.1726C18.133 33.5121 17.9954 33.8445 17.7557 34.0843ZM17.7557 28.928C17.515 29.1678 17.1834 29.3054 16.844 29.3054C16.5045 29.3054 16.1719 29.1678 15.9322 28.928C15.6924 28.6883 15.5549 28.3558 15.5549 28.0163C15.5549 27.6769 15.6924 27.3451 15.9322 27.1053C16.1719 26.8647 16.5045 26.7273 16.844 26.7273C17.1834 26.7273 17.5151 26.8648 17.7557 27.1053C17.9954 27.3451 18.133 27.6777 18.133 28.0163C18.133 28.3558 17.9954 28.6883 17.7557 28.928ZM17.7557 23.7718C17.5159 24.0116 17.1834 24.15 16.844 24.15C16.5045 24.15 16.1719 24.0116 15.9322 23.7718C15.6924 23.5321 15.5549 23.1996 15.5549 22.8609C15.5549 22.5215 15.6924 22.1889 15.9322 21.9491C16.1728 21.7093 16.5045 21.5718 16.844 21.5718C17.1834 21.5718 17.5151 21.7093 17.7557 21.9491C17.9954 22.1889 18.133 22.5215 18.133 22.8609C18.133 23.1996 17.9954 23.5321 17.7557 23.7718ZM17.7557 18.6156C17.515 18.8554 17.1834 18.9937 16.844 18.9937C16.5045 18.9937 16.1719 18.8554 15.9322 18.6156C15.6924 18.3759 15.5549 18.0442 15.5549 17.7047C15.5549 17.3652 15.6924 17.0327 15.9322 16.7929C16.1719 16.5531 16.5045 16.4156 16.844 16.4156C17.1834 16.4156 17.5151 16.5531 17.7557 16.7929C17.9954 17.0327 18.133 17.3652 18.133 17.7047C18.133 18.0434 17.9954 18.3759 17.7557 18.6156ZM22.9119 34.0843C22.6713 34.324 22.3396 34.4616 22.0002 34.4616C21.6607 34.4616 21.3289 34.324 21.0884 34.0843C20.8486 33.8445 20.7111 33.512 20.7111 33.1726C20.7111 32.834 20.8486 32.5013 21.0884 32.2615C21.329 32.0209 21.6607 31.8835 22.0002 31.8835C22.3396 31.8835 22.6713 32.021 22.9119 32.2615C23.1516 32.5013 23.2892 32.8339 23.2892 33.1726C23.2892 33.512 23.1516 33.8445 22.9119 34.0843ZM22.9119 28.928C22.6713 29.1678 22.3396 29.3054 22.0002 29.3054C21.6607 29.3054 21.3289 29.1678 21.0884 28.928C20.8486 28.6883 20.7111 28.3558 20.7111 28.0163C20.7111 27.6777 20.8486 27.3451 21.0884 27.1053C21.329 26.8647 21.6607 26.7273 22.0002 26.7273C22.3396 26.7273 22.6713 26.8648 22.9119 27.1053C23.1516 27.3451 23.2892 27.6777 23.2892 28.0163C23.2892 28.3558 23.1516 28.6883 22.9119 28.928ZM22.9119 23.7718C22.6713 24.0116 22.3396 24.15 22.0002 24.15C21.6607 24.15 21.3289 24.0116 21.0884 23.7718C20.8486 23.5321 20.7111 23.1996 20.7111 22.8609C20.7111 22.5215 20.8486 22.1889 21.0884 21.9491C21.329 21.7093 21.6607 21.5718 22.0002 21.5718C22.3396 21.5718 22.6713 21.7093 22.9119 21.9491C23.1516 22.1889 23.2892 22.5215 23.2892 22.8609C23.2892 23.1996 23.1516 23.5321 22.9119 23.7718ZM22.9119 18.6156C22.6713 18.8563 22.3396 18.9937 22.0002 18.9937C21.6607 18.9937 21.3289 18.8562 21.0884 18.6156C20.8486 18.3759 20.7111 18.0434 20.7111 17.7047C20.7111 17.3652 20.8486 17.0327 21.0884 16.7929C21.3281 16.5531 21.6607 16.4156 22.0002 16.4156C22.3396 16.4156 22.6721 16.5531 22.9119 16.7929C23.1516 17.0327 23.2892 17.3652 23.2892 17.7047C23.2892 18.0434 23.1516 18.3759 22.9119 18.6156Z" fill="#00ACDE"/>
<path d="M35.9217 27.8438C31.4604 27.8438 27.8438 31.4603 27.8438 35.9216C27.8438 40.383 31.4604 43.9995 35.9217 43.9995C40.383 43.9995 43.9997 40.383 43.9997 35.9216C43.9997 31.4603 40.383 27.8438 35.9217 27.8438ZM38.8436 37.2107H35.9217C35.2098 37.2107 34.6327 36.6335 34.6327 35.9216V32.9999C34.6327 32.288 35.2098 31.7108 35.9217 31.7108C36.6336 31.7108 37.2108 32.288 37.2108 32.9999V34.6326H38.8436C39.5555 34.6326 40.1326 35.2097 40.1326 35.9216C40.1326 36.6335 39.5555 37.2107 38.8436 37.2107Z" fill="#FF6969"/>
</g>
<defs>
<clipPath id="clip0">
<rect width="44" height="44" fill="white"/>
</clipPath>
</defs>
</svg>
