<svg width="45" height="45" viewBox="0 0 45 45" fill="none" xmlns="http://www.w3.org/2000/svg">
<path d="M21.1824 5.27344C16.1057 5.56492 11.3469 7.53593 7.55078 10.9197L13.1802 16.5488C14.419 16.109 15.7517 15.8687 17.1394 15.8687C18.5584 15.8687 19.92 16.1197 21.1824 16.5787V5.27344Z" fill="#00ACDE"/>
<path d="M26.2996 20.2015L36.9484 10.4858C33.2384 7.36736 28.674 5.55222 23.8184 5.27344V17.9331C24.7488 18.569 25.5844 19.3335 26.2996 20.2015Z" fill="#00ACDE"/>
<path d="M0 27.7351V29.0535H5.27344V27.7351C5.27344 23.571 7.42985 19.9015 10.6842 17.7836L5.68577 12.7852C2.0105 16.9081 0 22.1668 0 27.7351Z" fill="#00ACDE"/>
<path d="M38.0078 29.0525H44.9992V27.7341C44.9992 25.817 44.7599 23.937 44.2978 22.127L38.0078 29.0525Z" fill="#00ACDE"/>
<path d="M22.4996 29.0962C21.0909 29.0962 19.7664 29.6448 18.7704 30.6408C16.7146 32.697 16.7146 36.0423 18.7704 38.0985C19.7664 39.0944 21.0909 39.6431 22.4996 39.6431C23.9079 39.6431 25.2324 39.0944 26.2284 38.0985C28.2845 36.0423 28.2845 32.697 26.2284 30.6408C25.2324 29.6448 23.9079 29.0962 22.4996 29.0962Z" fill="#FF6969"/>
<path d="M39.3913 11.8257L23.3066 26.5007C25.1142 26.6826 26.7907 27.4747 28.0926 28.7766C29.426 30.11 30.1817 31.8054 30.3623 33.5494L44.9998 17.4325V11.8257H39.3913Z" fill="#FF6969"/>
</svg>
