<svg width="41" height="41" viewBox="0 0 41 41" fill="none" xmlns="http://www.w3.org/2000/svg">
<path d="M20.5508 32.6113C24.525 32.6113 27.7578 29.3785 27.7578 25.4043C27.7578 21.4301 24.525 18.1973 20.5508 18.1973C16.5766 18.1973 13.3438 21.4301 13.3438 25.4043C13.3438 29.3785 16.5766 32.6113 20.5508 32.6113ZM16.098 24.5551C16.5671 24.0859 17.3273 24.0859 17.7965 24.5551L19.3496 26.1082L23.3051 22.1527C23.7742 21.6835 24.5344 21.6835 25.0036 22.1527C25.4728 22.6219 25.4728 23.3821 25.0036 23.8513L20.1989 28.656C19.9643 28.8906 19.6569 29.0079 19.3497 29.0079C19.0424 29.0079 18.735 28.8906 18.5005 28.656L16.0981 26.2536C15.6288 25.7843 15.6288 25.0242 16.098 24.5551Z" fill="#FF6969"/>
<path d="M6.08594 2.40234C5.42201 2.40234 4.88477 2.93959 4.88477 3.60352V39.7988C4.88477 40.4628 5.42201 41 6.08594 41H34.9141C35.578 41 36.1152 40.4628 36.1152 39.7988V3.60352C36.1152 2.93959 35.578 2.40234 34.9141 2.40234H28.9082V8.4082C28.9082 9.07157 28.3704 9.60938 27.707 9.60938H13.293C12.6296 9.60938 12.0918 9.07157 12.0918 8.4082V2.40234H6.08594ZM20.5504 15.7149C25.849 15.7149 30.1598 20.1059 30.1598 25.4044C30.1598 30.7029 25.849 35.0138 20.5504 35.0138C15.2519 35.0138 10.9411 30.7029 10.9411 25.4044C10.9411 20.1059 15.2519 15.7149 20.5504 15.7149Z" fill="#00ACDE"/>
<path d="M23.8983 2.40234C23.402 1.0041 22.066 0 20.5 0C18.934 0 17.598 1.0041 17.1017 2.40234H14.4941V7.20703H26.5059V2.40234H23.8983Z" fill="#FF6969"/>
</svg>
