<svg width="55" height="55" viewBox="0 0 55 55" fill="none" xmlns="http://www.w3.org/2000/svg">
<path d="M32.6562 42.9688H37.8125V46.4062H32.6562V42.9688Z" fill="#00ACDE"/>
<path d="M32.6562 48.125H37.8125V51.5625H32.6562V48.125Z" fill="#00ACDE"/>
<path d="M16.3281 22.3438C16.8027 22.3438 17.1875 21.959 17.1875 21.4844C17.1875 21.0098 16.8027 20.625 16.3281 20.625C15.8535 20.625 15.4688 21.0098 15.4688 21.4844C15.4688 21.959 15.8535 22.3438 16.3281 22.3438Z" fill="#00ACDE"/>
<path d="M32.6562 37.8125H37.8125V41.25H32.6562V37.8125Z" fill="#00ACDE"/>
<path d="M39.5312 37.8125H44.6875V41.25H39.5312V37.8125Z" fill="#00ACDE"/>
<path d="M39.5312 42.9688H44.6875V46.4062H39.5312V42.9688Z" fill="#00ACDE"/>
<path d="M16.3281 12.0312C14.4585 12.0313 12.6308 12.5857 11.0763 13.6244C9.5217 14.6631 8.31007 16.1395 7.59458 17.8668C6.8791 19.5942 6.69189 21.4949 7.05664 23.3286C7.42139 25.1623 8.32172 26.8467 9.64376 28.1687C10.9658 29.4908 12.6502 30.3911 14.4839 30.7559C16.3176 31.1206 18.2184 30.9334 19.9457 30.2179C21.673 29.5024 23.1494 28.2908 24.1881 26.7362C25.2268 25.1817 25.7813 23.354 25.7813 21.4844C25.7783 18.9782 24.7814 16.5754 23.0092 14.8033C21.2371 13.0311 18.8343 12.0342 16.3281 12.0312ZM21.4844 22.3437H18.7481C18.6039 22.7541 18.3581 23.1211 18.0335 23.4106C17.7089 23.7001 17.3162 23.9025 16.8922 23.999C16.4681 24.0955 16.0265 24.0829 15.6086 23.9624C15.1907 23.8418 14.8103 23.6173 14.5027 23.3098C14.1952 23.0022 13.9707 22.6218 13.8501 22.2039C13.7296 21.786 13.717 21.3444 13.8135 20.9203C13.91 20.4963 14.1124 20.1036 14.4019 19.779C14.6914 19.4544 15.0584 19.2086 15.4688 19.0644V14.6094H17.1875V19.0644C17.5469 19.1928 17.8734 19.3994 18.1433 19.6692C18.4131 19.9391 18.6197 20.2656 18.7481 20.625H21.4844V22.3437Z" fill="#00ACDE"/>
<path d="M39.5312 48.125H44.6875V51.5625H39.5312V48.125Z" fill="#00ACDE"/>
<path d="M50.7031 32.6562H46.4062V34.375H44.6875V32.6562H39.5312V34.375H37.8125V32.6562H32.6562V34.375H30.9375V32.6562H26.6406C26.4127 32.6562 26.1941 32.7468 26.033 32.908C25.8718 33.0691 25.7812 33.2877 25.7812 33.5156V36.0938H51.5625V33.5156C51.5625 33.2877 51.472 33.0691 51.3108 32.908C51.1496 32.7468 50.931 32.6562 50.7031 32.6562Z" fill="#FF6969"/>
<path d="M25.7812 50.7031C25.7812 50.931 25.8718 51.1496 26.033 51.3108C26.1941 51.472 26.4127 51.5625 26.6406 51.5625H30.9375V48.125H25.7812V50.7031Z" fill="#00ACDE"/>
<path d="M25.7812 42.9688H30.9375V46.4062H25.7812V42.9688Z" fill="#00ACDE"/>
<path d="M26.6406 30.9375H29.2188V4.29688C29.2188 4.06895 29.1282 3.85037 28.967 3.68921C28.8059 3.52804 28.5873 3.4375 28.3594 3.4375H4.29688C4.06895 3.4375 3.85037 3.52804 3.68921 3.68921C3.52804 3.85037 3.4375 4.06895 3.4375 4.29688V50.7031C3.4375 50.931 3.52804 51.1496 3.68921 51.3108C3.85037 51.472 4.06895 51.5625 4.29688 51.5625H24.2206C24.1188 51.2873 24.0653 50.9966 24.0625 50.7031V33.5156C24.0625 32.8319 24.3341 32.1761 24.8176 31.6926C25.3011 31.2091 25.9569 30.9375 26.6406 30.9375ZM22.3438 42.9688H10.3125V41.25H22.3438V42.9688ZM22.3438 37.8125H10.3125V36.0938H22.3438V37.8125ZM16.3281 32.6562C14.1185 32.6562 11.9586 32.001 10.1214 30.7734C8.28416 29.5459 6.85223 27.8011 6.00666 25.7597C5.16109 23.7183 4.93984 21.472 5.37091 19.3048C5.80198 17.1377 6.866 15.1471 8.42842 13.5847C9.99083 12.0223 11.9815 10.9582 14.1486 10.5272C16.3157 10.0961 18.562 10.3173 20.6034 11.1629C22.6448 12.0085 24.3896 13.4404 25.6172 15.2776C26.8448 17.1148 27.5 19.2748 27.5 21.4844C27.4966 24.4463 26.3185 27.2859 24.2241 29.3803C22.1297 31.4747 19.29 32.6528 16.3281 32.6562Z" fill="#FF6969"/>
<path d="M25.7812 37.8125H30.9375V41.25H25.7812V37.8125Z" fill="#00ACDE"/>
<path d="M46.4062 42.9688H51.5625V46.4062H46.4062V42.9688Z" fill="#00ACDE"/>
<path d="M46.4062 51.5625H50.7031C50.931 51.5625 51.1496 51.472 51.3108 51.3108C51.472 51.1496 51.5625 50.931 51.5625 50.7031V48.125H46.4062V51.5625Z" fill="#00ACDE"/>
<path d="M46.4062 37.8125H51.5625V41.25H46.4062V37.8125Z" fill="#00ACDE"/>
<path d="M37.8125 29.2188H39.5312V32.6562H37.8125V29.2188Z" fill="#00ACDE"/>
<path d="M30.9375 29.2188H32.6562V32.6562H30.9375V29.2188Z" fill="#00ACDE"/>
<path d="M44.6875 29.2188H46.4062V32.6562H44.6875V29.2188Z" fill="#00ACDE"/>
</svg>
