<svg width="14" height="9" viewBox="0 0 14 9" fill="none" xmlns="http://www.w3.org/2000/svg">
<path d="M13.6138 1.35161C13.6181 1.1561 13.5614 0.964101 13.4515 0.802315C13.3417 0.640529 13.1841 0.516992 13.0008 0.448881C12.8174 0.380769 12.6175 0.371467 12.4286 0.422267C12.2398 0.473067 12.0715 0.581445 11.9471 0.732333L7.01497 6.48959L2.08455 0.732333C2.00783 0.627956 1.91044 0.540542 1.79838 0.475567C1.68632 0.410592 1.56201 0.369454 1.43331 0.354731C1.30462 0.340007 1.17429 0.352014 1.05045 0.390001C0.926611 0.427987 0.81191 0.491134 0.713604 0.575487C0.615297 0.659841 0.535555 0.763584 0.479199 0.880219C0.422844 0.996853 0.391191 1.12387 0.386197 1.25331C0.381203 1.38275 0.402915 1.51182 0.450116 1.63245C0.497316 1.75309 0.568914 1.86267 0.660429 1.95435L6.30014 8.54588C6.38848 8.64939 6.49812 8.73251 6.62169 8.78951C6.74526 8.8465 6.87975 8.87602 7.01584 8.87602C7.15192 8.87602 7.28641 8.8465 7.40998 8.78951C7.53355 8.73251 7.6433 8.64939 7.73164 8.54588L13.3768 1.95435C13.5247 1.78784 13.6088 1.57426 13.614 1.35161L13.6138 1.35161Z" fill="white"/>
</svg>
