<svg width="50" height="50" viewBox="0 0 50 50" fill="none" xmlns="http://www.w3.org/2000/svg">
<path d="M25 -1.09278e-06C38.8071 -4.89256e-07 50 11.1929 50 25L50 26.7857C50 39.6066 39.6066 50 26.7857 50L1.62913e-06 50L2.72191e-06 25C3.32544e-06 11.1929 11.1929 -1.69631e-06 25 -1.09278e-06Z" fill="#FF6969"/>
<path d="M31.6138 23.3516C31.6181 23.1561 31.5614 22.9641 31.4515 22.8023C31.3417 22.6405 31.1841 22.517 31.0008 22.4489C30.8174 22.3808 30.6175 22.3715 30.4286 22.4223C30.2398 22.4731 30.0715 22.5814 29.9471 22.7323L25.015 28.4896L20.0845 22.7323C20.0078 22.628 19.9104 22.5405 19.7984 22.4756C19.6863 22.4106 19.562 22.3695 19.4333 22.3547C19.3046 22.34 19.1743 22.352 19.0505 22.39C18.9266 22.428 18.8119 22.4911 18.7136 22.5755C18.6153 22.6598 18.5356 22.7636 18.4792 22.8802C18.4228 22.9969 18.3912 23.1239 18.3862 23.2533C18.3812 23.3827 18.4029 23.5118 18.4501 23.6325C18.4973 23.7531 18.5689 23.8627 18.6604 23.9543L24.3001 30.5459C24.3885 30.6494 24.4981 30.7325 24.6217 30.7895C24.7453 30.8465 24.8798 30.876 25.0158 30.876C25.1519 30.876 25.2864 30.8465 25.41 30.7895C25.5336 30.7325 25.6433 30.6494 25.7316 30.5459L31.3768 23.9543C31.5247 23.7878 31.6088 23.5743 31.614 23.3516L31.6138 23.3516Z" fill="white"/>
</svg>
