<svg width="13" height="13" viewBox="0 0 13 13" fill="none" xmlns="http://www.w3.org/2000/svg">
<path d="M2.68763 3.62089C2.68516 3.50833 2.71779 3.39779 2.78103 3.30465C2.84428 3.21151 2.93503 3.14038 3.04056 3.10117C3.1461 3.06196 3.26122 3.0566 3.36994 3.08585C3.47866 3.1151 3.57553 3.17749 3.64715 3.26436L6.48667 6.57889L9.32518 3.26436C9.36935 3.20427 9.42542 3.15394 9.48993 3.11653C9.55445 3.07913 9.62601 3.05544 9.7001 3.04697C9.7742 3.03849 9.84923 3.0454 9.92052 3.06727C9.99182 3.08914 10.0579 3.1255 10.1145 3.17406C10.171 3.22262 10.217 3.28235 10.2494 3.3495C10.2818 3.41665 10.3001 3.48977 10.3029 3.56429C10.3058 3.63881 10.2933 3.71312 10.2661 3.78257C10.239 3.85202 10.1978 3.91511 10.1451 3.96789L6.8982 7.76273C6.84735 7.82233 6.78422 7.87018 6.71308 7.90299C6.64194 7.93581 6.56451 7.9528 6.48617 7.9528C6.40782 7.9528 6.33039 7.93581 6.25925 7.90299C6.18811 7.87018 6.12492 7.82233 6.07407 7.76273L2.82408 3.96789C2.73893 3.87203 2.69052 3.74907 2.68751 3.62089L2.68763 3.62089Z" fill="#DE2546"/>
</svg>
