<svg width="57" height="57" viewBox="0 0 57 57" fill="none" xmlns="http://www.w3.org/2000/svg">
<g clip-path="url(#clip0)">
<path d="M54.7612 28.8332C55.7016 29.0184 56.314 29.9298 56.13 30.869L55.4439 34.3628C55.2543 35.33 54.2949 35.9502 53.3267 35.7126C52.4198 35.4906 51.8698 34.5636 52.0494 33.6478L52.0684 33.5541L47.5461 33.7605C47.41 33.766 47.2917 33.8564 47.2493 33.9869C46.8076 35.3211 46.2264 36.5928 45.5225 37.7819C45.4511 37.9024 45.4623 38.0552 45.5526 38.1623L47.5528 40.5383C47.9499 40.1602 48.4686 39.9638 48.9929 39.9638C49.4346 39.9638 49.8808 40.1033 50.259 40.3933C51.1748 41.0939 51.3489 42.4046 50.6483 43.3215L50.0682 44.079C49.3878 44.9692 48.1194 45.2079 47.1958 44.5709C46.4004 44.0232 46.1126 43.0382 46.4004 42.1826L43.519 40.9165C43.3885 40.8596 43.2379 40.8931 43.1431 40.9979C41.809 42.4626 40.2562 43.7231 38.536 44.7293C38.4178 44.7985 38.3542 44.9324 38.3765 45.0673L39.1139 49.5651L39.7519 49.3096C40.6678 48.9438 41.7097 49.4123 42.0365 50.3549C42.3422 51.2373 41.8625 52.2022 40.9957 52.548L37.7351 53.8531C36.8204 54.219 35.7785 53.7505 35.4516 52.8079C35.146 51.9255 35.6256 50.9606 36.4924 50.6137L36.5805 50.5791L33.9501 46.8934C33.8709 46.7819 33.7315 46.7328 33.5988 46.7674C32.027 47.1745 30.3783 47.3932 28.6782 47.3932C27.3329 47.3932 26.021 47.256 24.7527 46.9972C24.6188 46.9704 24.4816 47.0273 24.408 47.1422L21.7765 51.2707L21.8691 51.3042C22.7258 51.6165 23.2568 52.4253 23.2568 53.2865C23.2568 53.5274 23.2155 53.7717 23.1285 54.0104C23.1285 55.2453 22.1792 55.9102 21.0191 55.4863L17.7852 54.3072C16.7031 53.9134 16.1387 52.7254 16.5124 51.64C16.8961 50.5211 18.1712 49.9566 19.2822 50.3616L19.357 50.3883L19.8924 45.5504C19.908 45.4143 19.8366 45.2849 19.715 45.2213C17.6669 44.1638 15.8297 42.7549 14.2825 41.0738C14.1888 40.9723 14.0426 40.9388 13.9155 40.9912L9.96876 42.6099C10.415 43.4443 10.164 44.5018 9.34965 45.0372C8.49963 45.5961 7.35176 45.3362 6.77169 44.5018L5.76103 43.046C5.19547 42.2328 5.3271 41.0994 6.10573 40.4859C6.93567 39.8322 8.11923 40.0018 8.74058 40.8239L11.5204 37.6826C11.613 37.5778 11.6287 37.426 11.5606 37.3045C10.4194 35.2474 9.63857 32.9629 9.3028 30.5366C9.28383 30.4005 9.18455 30.2901 9.05181 30.26L4.60982 29.2337L4.60536 29.7546C4.6009 30.2756 4.38672 30.7474 4.04202 31.0877C3.69844 31.429 3.22546 31.6387 2.7034 31.6387C1.66597 31.6387 0.825987 30.7921 0.836027 29.7546L0.86503 26.5274C0.873954 25.4722 1.74629 24.5831 2.80045 24.611C3.82338 24.6378 4.63994 25.4789 4.63436 26.5051L9.044 25.4711C9.17786 25.4398 9.27714 25.3294 9.29499 25.1933C9.6408 22.6276 10.4852 20.2192 11.7268 18.0685C11.796 17.948 11.7837 17.7974 11.6934 17.6903L9.5906 15.2206L9.40766 15.4615C8.84097 16.2111 7.75892 16.3417 7.02826 15.7337C6.34333 15.1626 6.25967 14.1385 6.79735 13.4279L8.19844 11.5762C8.52417 11.1467 9.01834 10.9203 9.51921 10.9203C9.86613 10.9203 10.2164 11.0296 10.5154 11.2549C11.2081 11.7781 11.371 12.7397 10.9136 13.4603L13.8541 14.732C13.9835 14.7877 14.133 14.7543 14.2289 14.6505C15.6166 13.129 17.2419 11.8283 19.0468 10.8054C19.1651 10.7373 19.2309 10.6046 19.2108 10.4696L18.5337 5.96178L17.8912 6.20942C16.972 6.56304 15.9357 6.08002 15.6222 5.13407C15.3277 4.24723 15.8208 3.289 16.692 2.95435L19.9694 1.69381C20.8897 1.34019 21.9249 1.8221 22.2383 2.76917C22.5328 3.65489 22.0409 4.61312 21.1686 4.94889L21.0804 4.98236L23.6595 8.70149C23.7376 8.81416 23.8759 8.86547 24.0087 8.83312C25.5057 8.46612 27.0685 8.27202 28.6782 8.27202H28.6804C28.821 8.27202 28.947 8.18612 28.9939 8.05337L29.8484 5.66394C28.8589 5.35382 28.1997 4.37775 28.3257 3.31354C28.4696 2.10767 29.6242 1.25095 30.83 1.40266L32.0036 1.54991C33.1994 1.70051 34.0963 2.7714 33.9658 3.97058C33.8631 4.90427 33.1916 5.63159 32.3393 5.85469L32.6361 8.44492C32.6517 8.58436 32.7554 8.69814 32.8937 8.72826C34.8771 9.16443 36.7479 9.90179 38.4546 10.889C38.574 10.9571 38.7212 10.947 38.8272 10.86L42.3667 7.98756L41.829 7.56032C41.056 6.94678 40.9467 5.81007 41.6026 5.05933C42.2161 4.35544 43.2926 4.29297 44.0233 4.87415L46.773 7.05722C47.5461 7.66964 47.6554 8.80746 46.9995 9.55821C46.3859 10.261 45.3094 10.3235 44.5788 9.74338L44.504 9.68426L42.6088 13.7994C42.5508 13.9232 42.5775 14.0694 42.6735 14.1675C44.0076 15.534 45.1432 17.0958 46.0334 18.8047C46.0981 18.9285 46.2331 18.9988 46.3714 18.9799L49.0587 18.6039C48.6638 17.5018 49.2495 16.2803 50.3761 15.9111C51.4504 15.5586 52.6083 16.1554 53.0032 17.2151L53.6223 18.875C54.0127 19.9247 53.5442 21.1261 52.5179 21.5723C51.534 21.9996 50.4241 21.6136 49.8953 20.7413L47.6654 22.2539C47.5483 22.3331 47.4959 22.4781 47.5338 22.6142C47.9923 24.2763 48.2377 26.0255 48.2377 27.8326C48.2377 28.1349 48.231 28.435 48.2165 28.7328C48.2109 28.87 48.2879 28.9961 48.4128 29.0507L52.5938 30.8768L52.7254 30.202C52.9106 29.2616 53.822 28.6492 54.7612 28.8332Z" fill="#FF6969"/>
<path d="M37.1717 20.5116C38.6969 20.5116 39.9333 19.4778 39.9333 18.2026C39.9333 16.9273 38.6969 15.8936 37.1717 15.8936C35.6466 15.8936 34.4102 16.9273 34.4102 18.2026C34.4102 19.4778 35.6466 20.5116 37.1717 20.5116Z" fill="#EE6161"/>
<path d="M27.206 35.5999C28.873 35.5999 30.2244 34.2485 30.2244 32.5815C30.2244 30.9144 28.873 29.563 27.206 29.563C25.5389 29.563 24.1875 30.9144 24.1875 32.5815C24.1875 34.2485 25.5389 35.5999 27.206 35.5999Z" fill="#EE6161"/>
<path d="M38.9698 33.1701C40.1634 33.1701 41.131 32.2025 41.131 31.0089C41.131 29.8153 40.1634 28.8477 38.9698 28.8477C37.7762 28.8477 36.8086 29.8153 36.8086 31.0089C36.8086 32.2025 37.7762 33.1701 38.9698 33.1701Z" fill="#FF6969"/>
<path d="M30.9879 43.657C32.1484 43.657 33.0891 42.7162 33.0891 41.5558C33.0891 40.3953 32.1484 39.4546 30.9879 39.4546C29.8275 39.4546 28.8867 40.3953 28.8867 41.5558C28.8867 42.7162 29.8275 43.657 30.9879 43.657Z" fill="#FF6969"/>
<path d="M16.7828 26.8956C16.7828 19.3762 20.3699 12.693 25.924 8.46418C25.2755 8.55566 24.6353 8.67925 24.0086 8.83297C23.8759 8.86532 23.7376 8.81401 23.6595 8.70134L21.0804 4.98221L21.1685 4.94874C22.0409 4.61297 22.5328 3.65474 22.2383 2.76902C21.9249 1.82195 20.8897 1.34005 19.9694 1.69367L16.692 2.9542C15.8208 3.28885 15.3277 4.24708 15.6222 5.13392C15.9357 6.07988 16.972 6.5629 17.8912 6.20928L18.5337 5.96163L19.2108 10.4694C19.2309 10.6044 19.1651 10.7372 19.0468 10.8052C17.2419 11.8281 15.6166 13.1288 14.2289 14.6504C14.133 14.7541 13.9835 14.7876 13.8541 14.7318L10.9136 13.4601C11.371 12.7395 11.2081 11.7779 10.5154 11.2548C10.2164 11.0294 9.86613 10.9201 9.51921 10.9201C9.01834 10.9201 8.52416 11.1466 8.19843 11.576L6.79735 13.4278C6.25967 14.1384 6.34333 15.1624 7.02826 15.7336C7.75892 16.3415 8.84097 16.211 9.40765 15.4614L9.5906 15.2204L11.6933 17.6902C11.7837 17.7973 11.796 17.9479 11.7268 18.0683C10.4852 20.219 9.6408 22.6274 9.29499 25.1931C9.27714 25.3292 9.17786 25.4397 9.044 25.4709L4.63436 26.505C4.63994 25.4787 3.82338 24.6376 2.80045 24.6108C1.74629 24.583 0.873954 25.472 0.86503 26.5273L0.836027 29.7545C0.825987 30.7919 1.66597 31.6386 2.7034 31.6386C3.22546 31.6386 3.69844 31.4289 4.04202 31.0875C4.38671 30.7473 4.60089 30.2754 4.60536 29.7545L4.60982 29.2335L9.0518 30.2598C9.18455 30.2899 9.28383 30.4004 9.3028 30.5365C9.63857 32.9627 10.4194 35.2473 11.5606 37.3043C11.6286 37.4259 11.613 37.5776 11.5204 37.6825L8.74057 40.8238C8.11923 40.0016 6.93567 39.8321 6.10573 40.4858C5.3271 41.0993 5.19546 42.2327 5.76103 43.0459L6.77169 44.5016C7.35176 45.336 8.49962 45.5959 9.34965 45.0371C10.164 44.5016 10.415 43.4441 9.96876 42.6097L13.9155 40.9911C14.0426 40.9387 14.1888 40.9721 14.2825 41.0736C15.8297 42.7547 17.6669 44.1636 19.715 45.2211C19.8366 45.2847 19.908 45.4141 19.8924 45.5502L19.3569 50.3882L19.2822 50.3614C18.1712 49.9565 16.8961 50.5209 16.5124 51.6398C16.1387 52.7252 16.7031 53.9132 17.7852 54.307L21.0191 55.4861C22.1792 55.91 23.1285 55.2452 23.1285 54.0103C23.2155 53.7716 23.2568 53.5273 23.2568 53.2863C23.2568 52.4251 22.7258 51.6164 21.8691 51.304L21.7765 51.2706L24.408 47.142C24.4816 47.0271 24.6188 46.9703 24.7527 46.997C26.021 47.2558 27.3329 47.393 28.6782 47.393C28.8365 47.393 28.9973 47.391 29.1547 47.3873C21.8004 43.5093 16.7828 35.7876 16.7828 26.8956Z" fill="#F37C7C"/>
<path d="M17.8412 38.7186C19.0501 38.7186 20.0301 37.7386 20.0301 36.5297C20.0301 35.3208 19.0501 34.3408 17.8412 34.3408C16.6323 34.3408 15.6523 35.3208 15.6523 36.5297C15.6523 37.7386 16.6323 38.7186 17.8412 38.7186Z" fill="#EE6161"/>
<path d="M25.1722 24.2834C27.6703 22.3135 28.3618 19.0254 26.7166 16.9391C25.0715 14.8527 21.7128 14.7583 19.2146 16.7282C16.7165 18.698 16.025 21.9862 17.6702 24.0725C19.3153 26.1588 22.6741 26.2532 25.1722 24.2834Z" fill="#EE6161"/>
<path d="M54.9252 28.0131C54.2511 27.881 53.5663 28.0191 52.9962 28.4021C52.5241 28.7194 52.1777 29.1733 51.9975 29.7027L49.0683 28.4235C49.0743 28.2231 49.0773 28.0255 49.0773 27.8331C49.0773 26.1108 48.8617 24.4007 48.4362 22.7441L49.7502 21.8528C50.583 22.5822 51.7935 22.8003 52.8532 22.3399C54.2792 21.7203 54.9622 20.0701 54.408 18.5831L53.7895 16.9231C53.2287 15.4179 51.6156 14.6249 50.1173 15.1166C49.3591 15.3656 48.7489 15.8968 48.3993 16.6123C48.2004 17.0193 48.1001 17.4558 48.0999 17.8944L46.6092 18.1025C46.405 17.7282 46.1819 17.3488 45.9436 16.9708C45.6972 16.58 45.1804 16.463 44.7897 16.7093C44.3987 16.9557 44.2816 17.4723 44.528 17.8631C44.8092 18.3092 45.0669 18.7562 45.2939 19.192C45.5218 19.6288 46.0024 19.8765 46.4888 19.8087L49.1769 19.4335C49.4264 19.3987 49.6469 19.2533 49.7772 19.0378C49.9075 18.8223 49.9338 18.5595 49.8488 18.3224C49.7333 18.0007 49.7525 17.6543 49.9026 17.3471C50.0523 17.0408 50.3139 16.8133 50.6393 16.7065C51.2704 16.4994 51.9798 16.8587 52.2215 17.5075L52.8401 19.1675C53.0795 19.8099 52.7862 20.5447 52.1863 20.8055C51.612 21.055 50.9358 20.8411 50.6126 20.3083C50.4938 20.1123 50.2996 19.9736 50.0757 19.9247C49.8518 19.8758 49.6174 19.9212 49.4277 20.0498L47.1981 21.5621C46.7845 21.8425 46.5962 22.3553 46.7296 22.8381C47.1771 24.4586 47.404 26.1393 47.404 27.8332C47.404 28.1107 47.397 28.4008 47.3834 28.6954C47.3612 29.1753 47.6415 29.6266 48.0808 29.8184L52.2609 31.6438C52.4934 31.7454 52.7594 31.7359 52.984 31.6183C53.2087 31.5006 53.3678 31.2873 53.4167 31.0383L53.5492 30.3634C53.5954 30.1281 53.7305 29.9249 53.9295 29.7911C54.1284 29.6574 54.3675 29.6091 54.6029 29.6554C55.0887 29.7507 55.4064 30.2234 55.3112 30.7091L54.6257 34.2026C54.5779 34.4458 54.4366 34.6531 54.2275 34.7865C54.0187 34.9198 53.7704 34.9602 53.5284 34.9011C53.0711 34.7888 52.7771 34.299 52.8732 33.809L52.8915 33.7156C52.9408 33.4637 52.8717 33.203 52.7041 33.0085C52.5364 32.8139 52.2869 32.7063 52.0323 32.7189L47.5107 32.9252C47.032 32.9469 46.6087 33.268 46.4574 33.7245C46.0385 34.9892 45.4826 36.2113 44.8048 37.3565C44.5523 37.7828 44.5966 38.3234 44.9149 38.7016L46.9152 41.0779C47.0638 41.2545 47.2788 41.3617 47.509 41.3746C47.7394 41.3871 47.9649 41.3043 48.1319 41.1453C48.5804 40.7189 49.2619 40.6824 49.7528 41.058C50.0185 41.2612 50.1889 41.5557 50.2331 41.8873C50.2773 42.2188 50.1895 42.5476 49.9863 42.8132L49.4067 43.5708C48.9903 44.1148 48.2126 44.2547 47.673 43.8829C47.2144 43.5669 47.0183 42.9779 47.1961 42.4506C47.3347 42.04 47.1367 41.5915 46.7397 41.4173L43.8581 40.1516C43.3999 39.95 42.865 40.0639 42.5268 40.4351C41.2419 41.846 39.7582 43.0481 38.1167 44.008C37.7021 44.25 37.4757 44.7304 37.5531 45.203L38.2908 49.7012C38.3319 49.9515 38.4843 50.1697 38.7052 50.2945C38.9262 50.4192 39.1916 50.4368 39.4273 50.3426L40.0656 50.0872C40.2957 49.9952 40.5467 50.0012 40.7723 50.1043C40.9977 50.2071 41.1666 50.3935 41.2483 50.6291C41.4024 51.0741 41.1507 51.5871 40.6871 51.7725L37.4273 53.0766C37.1972 53.1687 36.9463 53.1626 36.7206 53.0596C36.4953 52.9568 36.3263 52.7703 36.2446 52.5349C36.0905 52.0899 36.3421 51.5769 36.8054 51.3915L36.8936 51.3562C37.1321 51.2608 37.3135 51.0613 37.3858 50.8148C37.458 50.5684 37.4131 50.3025 37.2639 50.0934L34.6341 46.4087C34.3558 46.0186 33.8562 45.8375 33.3917 45.958C31.8584 46.3555 30.2734 46.557 28.6804 46.557C27.4191 46.557 26.1547 46.4296 24.9225 46.1784C24.4521 46.0826 23.9632 46.2893 23.7052 46.6932L21.0729 50.8217C20.9365 51.0355 20.9046 51.2998 20.9862 51.54C21.0675 51.7803 21.2535 51.9706 21.4919 52.0575L21.5851 52.0916C21.9047 52.208 22.1598 52.4421 22.3034 52.7505C22.4469 53.0588 22.4618 53.4047 22.3453 53.7243C22.3117 53.8161 22.2947 53.9132 22.2947 54.0109C22.2947 54.3274 22.2013 54.5671 22.0317 54.6857C21.8623 54.8044 21.6053 54.8102 21.3078 54.7015L18.0741 53.5224C17.4265 53.2864 17.0818 52.5643 17.3055 51.9129C17.4123 51.6023 17.6421 51.3497 17.9526 51.2016C18.2807 51.0451 18.6621 51.0257 18.9986 51.1484L19.0727 51.1754C19.3138 51.2635 19.5822 51.2357 19.8004 51.1003C20.0187 50.9649 20.1626 50.7368 20.1908 50.4815L20.7267 45.6432C20.7794 45.1671 20.5282 44.6994 20.1017 44.4792C18.1456 43.4689 16.3955 42.1328 14.9003 40.5083C14.5713 40.1504 14.0488 40.0336 13.6001 40.2178L9.65395 41.8361C9.43498 41.9259 9.2643 42.1041 9.18421 42.3268C9.104 42.5494 9.12196 42.7956 9.2334 43.0043C9.48384 43.4729 9.33714 44.0468 8.89228 44.3393C8.43369 44.641 7.7916 44.4999 7.4614 44.0247L6.45063 42.5697C6.12646 42.1031 6.20366 41.4767 6.62633 41.1437C6.84486 40.9714 7.11604 40.896 7.38934 40.9311C7.66476 40.9666 7.90839 41.1078 8.07561 41.3289C8.22687 41.5291 8.46001 41.6508 8.71078 41.6605C8.96066 41.6701 9.20328 41.5668 9.36949 41.3788L12.1489 38.2373C12.4751 37.8686 12.5335 37.3309 12.2943 36.8988C11.9954 36.3598 11.7174 35.7922 11.4682 35.2117C11.2857 34.7872 10.7939 34.5908 10.3692 34.7732C9.94466 34.9555 9.74832 35.4475 9.9306 35.8721C10.154 36.392 10.3987 36.9029 10.6599 37.395L8.66917 39.6453C8.34902 39.449 7.98782 39.3209 7.60307 39.2714C6.87944 39.1784 6.16528 39.3766 5.59068 39.8292C4.47416 40.7092 4.24838 42.3322 5.07665 43.5243L6.08742 44.9791C6.93086 46.1933 8.60146 46.5332 9.81191 45.7371C10.7172 45.1418 11.1534 44.1033 11.0012 43.0918L13.9104 41.8986C15.4046 43.4675 17.1224 44.7788 19.0255 45.8029L18.6275 49.3968C18.1498 49.3832 17.6693 49.4825 17.2322 49.691C16.5129 50.0341 15.9769 50.6299 15.723 51.3689C15.2052 52.8768 16.0028 54.5479 17.5009 55.0942L20.7346 56.2733C21.0591 56.3917 21.3852 56.4501 21.6992 56.4501C22.1722 56.4501 22.618 56.3174 22.9912 56.0563C23.5766 55.6466 23.9267 54.9601 23.9646 54.1573C24.1815 53.4576 24.1318 52.7126 23.8203 52.0438C23.6208 51.615 23.328 51.2485 22.9656 50.9656L24.9302 47.8843C27.7513 48.4091 30.693 48.3319 33.4731 47.662L35.3822 50.3368C34.6308 51.0169 34.3187 52.087 34.6635 53.0825C34.8964 53.7543 35.3801 54.2867 36.0255 54.5815C36.6621 54.8721 37.3992 54.8897 38.0488 54.63L41.3086 53.326C42.6111 52.8049 43.2792 51.3796 42.8294 50.0813C42.5966 49.4094 42.1129 48.877 41.4675 48.5821C40.9379 48.3403 40.3382 48.2873 39.7776 48.4263L39.2605 45.274C40.8265 44.3221 42.2556 43.1653 43.5162 41.829L45.463 42.6841C45.4086 43.6841 45.8723 44.6742 46.7236 45.2608C48.0075 46.1455 49.7698 45.8497 50.7356 44.5877L51.3153 43.8302C51.7901 43.2096 51.9949 42.4412 51.8919 41.6666C51.7888 40.892 51.3903 40.2038 50.7697 39.729C49.8642 39.0361 48.6822 38.9429 47.7089 39.4224L46.4252 37.8973C47.0252 36.8409 47.5312 35.7282 47.9334 34.5808L51.2149 34.4311C51.3776 35.4314 52.1065 36.2748 53.1297 36.526C53.8202 36.6956 54.53 36.5785 55.128 36.1968C55.7176 35.8203 56.1331 35.2109 56.2677 34.5245L56.9532 31.031C57.2261 29.6399 56.3163 28.2861 54.9252 28.0131Z" fill="#CB1717"/>
<path d="M5.3904 30.273L8.52634 30.9973C8.59461 31.4333 8.67905 31.8761 8.77833 32.3177C8.86568 32.7068 9.21104 32.9713 9.59389 32.9712C9.65457 32.9712 9.71626 32.9645 9.77795 32.9507C10.2287 32.8494 10.5122 32.4019 10.4109 31.951C10.2957 31.4375 10.2021 30.9231 10.1329 30.4222C10.067 29.9456 9.70845 29.5527 9.24094 29.4448L4.79951 28.4191C4.55265 28.3621 4.29251 28.4202 4.09339 28.5772C3.89416 28.7342 3.77691 28.9732 3.77468 29.2268L3.77011 29.7468C3.76487 30.3289 3.28709 30.8025 2.7049 30.8025C2.4277 30.8025 2.16745 30.6941 1.97234 30.4972C1.77713 30.3002 1.67104 30.0392 1.6735 29.762L1.7025 26.5354C1.70507 26.2396 1.83078 25.9501 2.04731 25.7413C2.25078 25.545 2.5079 25.4397 2.77953 25.4477C3.34465 25.4626 3.80201 25.9352 3.79889 26.5011C3.79744 26.7573 3.91357 27.0002 4.11402 27.1599C4.31448 27.3198 4.5773 27.3789 4.8265 27.3202L9.2367 26.2861C9.70388 26.1766 10.0608 25.7827 10.1252 25.3059C10.4506 22.8927 11.2336 20.5987 12.4523 18.4872C12.6981 18.0609 12.6497 17.523 12.3313 17.1486L10.2282 14.6786C10.0637 14.4856 9.82201 14.3772 9.567 14.3847C9.31345 14.392 9.07685 14.514 8.9238 14.7162L8.74152 14.9572C8.60532 15.1372 8.40676 15.2504 8.18231 15.2762C7.95865 15.3019 7.73878 15.236 7.56443 15.0908C7.2349 14.8163 7.19051 14.2971 7.46548 13.9336L8.86635 12.0814C9.13831 11.7218 9.65212 11.6504 10.0116 11.9225C10.3483 12.1771 10.4345 12.6553 10.2081 13.0113C10.0767 13.218 10.0424 13.4717 10.1144 13.7059C10.1863 13.94 10.3572 14.1309 10.5819 14.2281L13.5227 15.5C13.9786 15.6973 14.5109 15.5829 14.8471 15.2147C16.1859 13.7482 17.7378 12.5095 19.4602 11.5332C19.8774 11.2965 20.11 10.8195 20.039 10.3458L19.3616 5.83826C19.3239 5.58738 19.1743 5.36718 18.9551 5.23956C18.7357 5.11183 18.4702 5.09064 18.2338 5.18167L17.592 5.42853C17.3607 5.51732 17.1099 5.50807 16.8858 5.40209C16.6618 5.29623 16.4954 5.1076 16.4169 4.87099C16.2687 4.4239 16.5272 3.91444 16.9933 3.73518L20.2703 2.47475C20.5016 2.38573 20.7524 2.39522 20.9765 2.50119C21.2005 2.60705 21.367 2.79569 21.4455 3.03229C21.5936 3.47939 21.3351 3.98884 20.869 4.16822L20.7804 4.20235C20.5408 4.29461 20.3567 4.49172 20.2812 4.73713C20.2058 4.98255 20.2471 5.24904 20.3935 5.45999L22.9733 9.1789C23.2461 9.57223 23.7427 9.75997 24.2088 9.64585C25.6628 9.28978 27.1667 9.10918 28.6807 9.10918H28.6812C29.1748 9.10918 29.6173 8.79806 29.7823 8.33545L30.6364 5.94535C30.7131 5.73095 30.699 5.49446 30.5974 5.29076C30.4959 5.08696 30.3157 4.93324 30.0983 4.86531C29.4763 4.67076 29.0806 4.0599 29.1574 3.4129C29.1983 3.06865 29.3791 2.75531 29.6665 2.53053C29.9682 2.29449 30.3543 2.18595 30.7263 2.23291L31.8994 2.3806C32.6598 2.47631 33.2136 3.14886 33.1341 3.87975C33.0726 4.44397 32.6776 4.90156 32.1278 5.04546C31.7251 5.15088 31.461 5.5364 31.5084 5.95003L31.8053 8.54004C31.8618 9.03432 32.2271 9.43836 32.7144 9.54557C34.5831 9.95608 36.3739 10.6518 38.0363 11.6132C38.4528 11.8541 38.9826 11.8126 39.3551 11.5103L42.8945 8.63731C43.0915 8.47746 43.2052 8.23684 43.2038 7.98317C43.2024 7.72962 43.086 7.49023 42.8875 7.33249L42.349 6.90492C42.1549 6.75086 42.0356 6.52999 42.013 6.2829C41.9906 6.03626 42.0685 5.7971 42.2326 5.60935C42.5423 5.25451 43.1125 5.21859 43.5038 5.52904L46.2536 7.71221C46.4477 7.86627 46.567 8.08714 46.5896 8.33412C46.612 8.58076 46.5341 8.81992 46.37 9.00778C46.0601 9.3624 45.4897 9.39832 45.099 9.0882L45.0248 9.02931C44.8236 8.86945 44.5601 8.811 44.3106 8.87057C44.0607 8.93014 43.8521 9.10114 43.7446 9.3344L41.8488 13.4498C41.6484 13.885 41.7393 14.4084 42.0747 14.7521C42.1936 14.8739 42.3111 15 42.4509 15.1518C42.7638 15.4918 43.2931 15.5137 43.6331 15.2007C43.973 14.8877 43.9949 14.3585 43.682 14.0185C43.6228 13.9541 43.5672 13.8939 43.5132 13.8362L44.8901 10.8473C45.8533 11.1623 46.9371 10.9023 47.6302 10.1088C48.0981 9.57323 48.3203 8.88908 48.2558 8.1824C48.1923 7.48565 47.8417 6.83676 47.2939 6.40193L44.5441 4.21886C43.4455 3.34664 41.8766 3.4737 40.9724 4.50879C40.5045 5.04435 40.2823 5.72849 40.3468 6.43517C40.3997 7.01502 40.6512 7.56184 41.0501 7.9796L38.5708 9.99255C36.951 9.09244 35.2238 8.42079 33.4273 7.99232L33.2435 6.38743C34.0939 5.91713 34.6903 5.05104 34.7982 4.06102C34.9759 2.42812 33.7695 0.929651 32.109 0.720492L30.936 0.572797C30.1254 0.470839 29.2869 0.703982 28.6364 1.21255C27.9952 1.71397 27.5903 2.42534 27.4965 3.21568C27.3599 4.36466 27.89 5.46255 28.8107 6.08345L28.3262 7.43891C26.9164 7.46301 25.5152 7.63134 24.151 7.94045L22.2788 5.24135C23.039 4.57159 23.3655 3.50571 23.0341 2.50576C22.8102 1.83077 22.3336 1.29197 21.6922 0.98855C21.0597 0.68948 20.3228 0.661927 19.6699 0.91303L16.3931 2.17334C15.0836 2.67688 14.3965 4.09314 14.829 5.39752C15.0528 6.07252 15.5292 6.61131 16.1707 6.91473C16.6971 7.1636 17.2955 7.22462 17.8584 7.0931L18.3332 10.252C16.6812 11.226 15.1784 12.4247 13.8578 13.8216L11.9689 13.0047C12.1224 12.1104 11.7807 11.1623 11.0213 10.5878C10.4907 10.1864 9.83573 10.0154 9.17646 10.1072C8.51741 10.1986 7.93344 10.5413 7.53219 11.0719L6.13121 12.9241C5.31142 14.0077 5.4706 15.5242 6.49353 16.3763C7.02284 16.8173 7.69026 17.0171 8.3734 16.9385C8.8041 16.8891 9.21327 16.7264 9.55931 16.4739L10.8266 17.9626C9.65558 20.075 8.87951 22.3507 8.51652 24.7363L5.27918 25.4954C4.88618 24.5147 3.93532 23.8043 2.82382 23.775C2.10018 23.7568 1.41447 24.0266 0.885273 24.5372C0.34804 25.0557 0.0359184 25.7785 0.0291137 26.5203L0.000110316 29.747C-0.00635968 30.474 0.271962 31.1588 0.783649 31.6752C1.29534 32.1916 1.9777 32.4759 2.70479 32.4759C4.02668 32.476 5.13941 31.5261 5.3904 30.273Z" fill="#CB1717"/>
<path d="M24.5357 25.7061C24.9439 25.4898 25.0995 24.9833 24.8831 24.5751C24.6668 24.167 24.1606 24.0111 23.752 24.2277C21.7526 25.2874 19.4737 25.0073 18.334 23.5612C17.6945 22.75 17.4745 21.6749 17.7146 20.5343C17.9662 19.3383 18.6859 18.2215 19.7411 17.3899C20.7961 16.5582 22.0501 16.1198 23.2717 16.1537C24.4369 16.1866 25.4307 16.6516 26.0703 17.4629C27.0306 18.6811 27.0184 20.4995 26.0392 22.0955C25.7976 22.4894 25.9209 23.0045 26.3149 23.2461C26.7086 23.4878 27.2238 23.3644 27.4654 22.9706C28.8154 20.7704 28.7835 18.2019 27.3843 16.427C26.4324 15.2193 24.9886 14.5283 23.319 14.4812C21.7055 14.4343 20.0675 15.0019 18.7052 16.0758C17.3428 17.1497 16.4095 18.6108 16.0771 20.1897C15.7331 21.8242 16.0679 23.3895 17.0198 24.597C18.0221 25.8685 19.5915 26.5374 21.28 26.5373C22.3557 26.5373 23.4795 26.266 24.5357 25.7061Z" fill="#CB1717"/>
<path d="M40.7707 18.2028C40.7707 16.4683 39.1566 15.0571 37.1725 15.0571C35.1885 15.0571 33.5742 16.4683 33.5742 18.2028C33.5742 19.9373 35.1885 21.3484 37.1725 21.3484C39.1566 21.3484 40.7707 19.9373 40.7707 18.2028ZM35.2476 18.2028C35.2476 17.3909 36.1111 16.7304 37.1727 16.7304C38.2341 16.7304 39.0976 17.3909 39.0976 18.2028C39.0976 19.0146 38.2341 19.6751 37.1727 19.6751C36.1111 19.6751 35.2476 19.0146 35.2476 18.2028Z" fill="#CB1717"/>
<path d="M31.0619 32.5822C31.0619 30.4564 29.3325 28.7271 27.2068 28.7271C25.0809 28.7271 23.3516 30.4564 23.3516 32.5822C23.3516 34.7079 25.0809 36.4373 27.2068 36.4373C29.3325 36.4373 31.0619 34.7079 31.0619 32.5822ZM25.0249 32.5822C25.0249 31.3791 26.0037 30.4003 27.2069 30.4003C28.4099 30.4003 29.3887 31.3791 29.3887 32.5822C29.3887 33.7852 28.41 34.764 27.2069 34.764C26.0037 34.764 25.0249 33.7852 25.0249 32.5822Z" fill="#CB1717"/>
<path d="M41.9684 31.0097C41.9684 29.3566 40.6236 28.0117 38.9705 28.0117C37.3175 28.0117 35.9727 29.3566 35.9727 31.0097C35.9727 32.6628 37.3175 34.0076 38.9705 34.0076C40.6236 34.0075 41.9684 32.6628 41.9684 31.0097ZM37.6458 31.0097C37.6458 30.2792 38.2401 29.685 38.9704 29.685C39.7008 29.685 40.2951 30.2792 40.2951 31.0097C40.2951 31.7401 39.7008 32.3343 38.9704 32.3343C38.2402 32.3342 37.6458 31.7401 37.6458 31.0097Z" fill="#CB1717"/>
<path d="M30.9887 44.4943C32.6086 44.4943 33.9265 43.1764 33.9265 41.5565C33.9265 39.9366 32.6087 38.6187 30.9887 38.6187C29.3688 38.6187 28.0508 39.9365 28.0508 41.5565C28.0508 43.1764 29.3687 44.4943 30.9887 44.4943ZM30.9887 40.2919C31.686 40.2919 32.2533 40.8592 32.2533 41.5565C32.2533 42.2538 31.686 42.821 30.9887 42.821C30.2914 42.821 29.7241 42.2538 29.7241 41.5565C29.7241 40.8592 30.2914 40.2919 30.9887 40.2919Z" fill="#CB1717"/>
<path d="M17.8419 39.5559C19.5102 39.5559 20.8674 38.1986 20.8674 36.5304C20.8674 34.8621 19.5102 33.5049 17.8419 33.5049C16.1737 33.5049 14.8164 34.8621 14.8164 36.5304C14.8164 38.1986 16.1737 39.5559 17.8419 39.5559ZM17.8419 35.1782C18.5876 35.1782 19.1941 35.7848 19.1941 36.5304C19.1941 37.276 18.5875 37.8826 17.8419 37.8826C17.0963 37.8826 16.4897 37.276 16.4897 36.5304C16.4897 35.7848 17.0963 35.1782 17.8419 35.1782Z" fill="#CB1717"/>
<path d="M34.8777 26.0598C34.8777 25.5977 34.5032 25.2231 34.0411 25.2231H33.3015C32.8393 25.2231 32.4648 25.5977 32.4648 26.0598C32.4648 26.5218 32.8393 26.8964 33.3015 26.8964H34.0411C34.5032 26.8964 34.8777 26.5218 34.8777 26.0598Z" fill="#CB1717"/>
<path d="M23.4304 41.5209H24.1903C24.6524 41.5209 25.0269 41.1463 25.0269 40.6843C25.0269 40.2222 24.6524 39.8477 24.1903 39.8477H23.4304C22.9682 39.8477 22.5938 40.2222 22.5938 40.6843C22.5938 41.1463 22.9683 41.5209 23.4304 41.5209Z" fill="#CB1717"/>
<path d="M16.385 29.3369C16.8472 29.3369 17.2217 28.9623 17.2217 28.5002C17.2217 28.0382 16.8472 27.6636 16.385 27.6636H15.653C15.1909 27.6636 14.8164 28.0382 14.8164 28.5002C14.8164 28.9623 15.1909 29.3369 15.653 29.3369H16.385Z" fill="#CB1717"/>
<path d="M36.8093 37.124C36.3471 37.124 35.9727 37.4986 35.9727 37.9607C35.9727 38.4227 36.3471 38.7973 36.8093 38.7973H37.9342C38.3963 38.7973 38.7708 38.4227 38.7708 37.9607C38.7708 37.4986 38.3963 37.124 37.9342 37.124H36.8093Z" fill="#CB1717"/>
</g>
<defs>
<clipPath id="clip0">
<rect width="57" height="57" fill="white"/>
</clipPath>
</defs>
</svg>
