<svg width="201" height="44" viewBox="0 0 201 44" fill="none" xmlns="http://www.w3.org/2000/svg">
<path d="M24.7646 7.76404C27.7552 9.34388 30.0737 11.596 31.7202 14.4531C33.3667 17.3103 34.1731 20.6381 34.1731 24.4028C34.1731 28.1339 33.3667 31.428 31.7202 34.3188C30.0737 37.2096 27.7552 39.4617 24.731 41.0415C21.7068 42.6214 18.2122 43.4281 14.2472 43.4281H0V5.37744H14.2472C18.2458 5.37744 21.7404 6.1842 24.7646 7.76404ZM21.8076 32.5373C23.7565 30.6213 24.731 27.8986 24.731 24.4028C24.731 20.907 23.7565 18.1843 21.8076 16.2347C19.8587 14.2851 17.137 13.3103 13.6424 13.3103H9.24052V35.428H13.6424C17.137 35.428 19.8587 34.4532 21.8076 32.5373Z" fill="#00ACDE"/>
<path d="M52.7228 14.3189C54.3357 13.3778 56.1502 12.8735 58.1327 12.8735V22.6886H55.5789C53.2604 22.6886 51.5467 23.1928 50.3706 24.1676C49.2282 25.176 48.6233 26.8903 48.6233 29.4113V43.4617H39.3828V13.2097H48.6569V18.2517C49.7322 16.571 51.0763 15.2601 52.7228 14.3189Z" fill="#00ACDE"/>
<path d="M120.967 5.37744L111.054 43.4281H99.8309L93.749 18.3859L87.4654 43.4281H76.2424L66.5986 5.37744H76.5112L81.9883 33.0751L88.7759 5.37744H98.9573L105.476 33.0751L110.987 5.37744H120.967Z" fill="#FF6969"/>
<path d="M126.308 8.6051C125.267 7.66392 124.763 6.4538 124.763 5.04203C124.763 3.59665 125.267 2.38658 126.308 1.4454C127.35 0.50422 128.661 0 130.307 0C131.886 0 133.197 0.470606 134.238 1.4454C135.28 2.38658 135.784 3.59665 135.784 5.04203C135.784 6.4538 135.28 7.63031 134.238 8.6051C133.197 9.5799 131.886 10.0505 130.307 10.0505C128.661 10.0505 127.316 9.5799 126.308 8.6051ZM134.877 13.2101V43.4623H125.603V13.2101H134.877Z" fill="#FF6969"/>
<path d="M146.839 42.5204C144.789 41.6128 143.142 40.3691 141.966 38.8229C140.79 37.2431 140.118 35.4952 139.95 33.5456H149.123C149.224 34.5876 149.728 35.4279 150.602 36.1002C151.476 36.7389 152.551 37.075 153.794 37.075C154.937 37.075 155.844 36.8397 156.482 36.4027C157.121 35.9658 157.423 35.3607 157.423 34.6549C157.423 33.7809 156.986 33.1422 156.079 32.7389C155.172 32.3355 153.727 31.8649 151.677 31.3607C149.493 30.8565 147.712 30.3187 146.267 29.7473C144.822 29.1758 143.579 28.3019 142.538 27.0918C141.496 25.8818 140.958 24.2347 140.958 22.1843C140.958 20.4364 141.429 18.8565 142.403 17.4448C143.344 16.033 144.755 14.8902 146.637 14.0498C148.485 13.2095 150.703 12.8062 153.29 12.8062C157.087 12.8062 160.078 13.7473 162.262 15.6296C164.446 17.512 165.689 19.9994 166.025 23.1254H157.457C157.322 22.0834 156.852 21.2431 156.079 20.638C155.306 20.033 154.298 19.7305 153.021 19.7305C151.946 19.7305 151.106 19.9322 150.535 20.3692C149.964 20.7725 149.661 21.3439 149.661 22.0834C149.661 22.9574 150.132 23.596 151.039 24.033C151.946 24.47 153.391 24.9069 155.34 25.3439C157.591 25.9153 159.406 26.4868 160.817 27.0582C162.228 27.6296 163.471 28.5372 164.513 29.7809C165.588 31.0246 166.126 32.7052 166.16 34.7893C166.16 36.5708 165.656 38.1506 164.681 39.5288C163.673 40.9069 162.262 42.0162 160.414 42.8229C158.566 43.6296 156.381 43.9994 153.929 43.9994C151.274 43.8649 148.922 43.4279 146.839 42.5204Z" fill="#FF6969"/>
<path d="M200.166 30.5541H179.199C179.333 32.4364 179.938 33.8818 181.013 34.8566C182.088 35.865 183.399 36.3356 184.945 36.3356C187.263 36.3356 188.876 35.3608 189.783 33.4112H199.629C199.125 35.3944 198.217 37.1759 196.907 38.7894C195.596 40.3692 193.95 41.6129 191.934 42.5205C189.951 43.428 187.734 43.865 185.281 43.865C182.324 43.865 179.669 43.2264 177.384 41.9827C175.066 40.7053 173.251 38.9238 171.974 36.5709C170.664 34.2179 170.025 31.4616 170.025 28.3356C170.025 25.1759 170.664 22.4532 171.941 20.1003C173.218 17.7473 175.032 15.9322 177.317 14.6885C179.636 13.4112 182.29 12.8062 185.281 12.8062C188.204 12.8062 190.791 13.4112 193.076 14.6549C195.361 15.8986 197.142 17.6465 198.419 19.8986C199.696 22.1843 200.334 24.8398 200.334 27.865C200.334 28.7053 200.267 29.6129 200.166 30.5541ZM190.859 25.3776C190.859 23.7977 190.321 22.5204 189.246 21.5793C188.17 20.6381 186.793 20.1675 185.18 20.1675C183.634 20.1675 182.324 20.6045 181.248 21.512C180.173 22.4196 179.535 23.6969 179.266 25.344H190.859V25.3776Z" fill="#FF6969"/>
</svg>
