<svg width="17" height="17" viewBox="0 0 17 17" fill="none" xmlns="http://www.w3.org/2000/svg">
<g clip-path="url(#clip0)">
<path d="M16.9878 3.66252C16.9878 3.64309 17.0012 3.62418 17.0003 3.60498L11.8125 8.60372L16.9941 13.4428C16.9971 13.4082 16.9878 13.3734 16.9878 13.338V3.66252Z" fill="white"/>
<path d="M11.0195 9.37158L8.9017 11.4092C8.79453 11.5123 8.65612 11.564 8.51764 11.564C8.38203 11.564 8.24643 11.5145 8.14 11.4153L6.02794 9.44721L0.8125 14.4743C0.939315 14.5199 1.07544 14.5553 1.21798 14.5553H15.8174C16.029 14.5553 16.2276 14.4908 16.4002 14.3946L11.0195 9.37158Z" fill="white"/>
<path d="M8.51263 10.2476L16.43 2.62094C16.2507 2.51437 16.0421 2.44287 15.8184 2.44287H1.21904C0.927813 2.44287 0.660963 2.55595 0.453125 2.72841L8.51263 10.2476Z" fill="white"/>
<path d="M0 3.84668V13.3363C0 13.4453 0.025038 13.5503 0.0522179 13.6507L5.20296 8.69061L0 3.84668Z" fill="white"/>
</g>
<defs>
<clipPath id="clip0">
<rect width="17" height="17" fill="white"/>
</clipPath>
</defs>
</svg>
