<?xml version="1.0" encoding="utf-8"?>
<!-- Generator: Adobe Illustrator 25.0.1, SVG Export Plug-In . SVG Version: 6.00 Build 0)  -->
<svg version="1.1" id="US_UK_Download_on_the" xmlns="http://www.w3.org/2000/svg" xmlns:xlink="http://www.w3.org/1999/xlink"
	 x="0px" y="0px" viewBox="0 0 135 40" style="enable-background:new 0 0 135 40;" xml:space="preserve">
<style type="text/css">
	.st0{fill:none;}
	.st1{fill:#888889;}
	.st2{fill:url(#SVGID_1_);}
	.st3{fill:url(#SVGID_2_);}
	.st4{fill:url(#SVGID_3_);}
	.st5{fill:url(#SVGID_4_);}
	.st6{opacity:0.2;fill:#020203;enable-background:new    ;}
	.st7{opacity:0.12;fill:#020203;enable-background:new    ;}
	.st8{opacity:0.25;fill:#FFFFFF;enable-background:new    ;}
</style>
<rect x="12.1" y="-1.8" class="st0" width="110.3" height="43.4"/>
<g>
	<path class="st1" d="M65.4,17.7c-2.3,0-4.2,1.7-4.2,4.2c0,2.4,1.9,4.2,4.2,4.2c2.3,0,4.2-1.8,4.2-4.2
		C69.6,19.4,67.7,17.7,65.4,17.7z M65.4,24.5c-1.2,0-2.4-1.1-2.4-2.6c0-1.5,1.1-2.6,2.4-2.6c1.3,0,2.4,1.1,2.4,2.6
		C67.8,23.4,66.7,24.5,65.4,24.5z M56.2,17.7c-2.3,0-4.2,1.7-4.2,4.2c0,2.4,1.9,4.2,4.2,4.2c2.3,0,4.2-1.8,4.2-4.2
		C60.4,19.4,58.5,17.7,56.2,17.7z M56.2,24.5c-1.2,0-2.4-1.1-2.4-2.6c0-1.5,1.1-2.6,2.4-2.6c1.2,0,2.4,1.1,2.4,2.6
		C58.6,23.4,57.4,24.5,56.2,24.5z M45.2,19v1.8h4.3c-0.2,1-0.5,1.7-1,2.2c-0.7,0.7-1.6,1.3-3.3,1.3c-2.6,0-4.7-2.1-4.7-4.8
		s2.1-4.8,4.7-4.8c1.4,0,2.5,0.6,3.2,1.2l1.2-1.2c-1.1-1-2.5-1.8-4.5-1.8c-3.6,0-6.6,3-6.6,6.5c0,3.6,3.1,6.5,6.6,6.5
		c2,0,3.4-0.7,4.5-1.8c1.2-1.2,1.6-2.8,1.6-4.2c0-0.4,0-0.8-0.1-1.2h-6V19z M90.2,20.3c-0.3-0.9-1.4-2.6-3.6-2.6c-2.1,0-4,1.7-4,4.2
		c0,2.4,1.8,4.2,4.2,4.2c1.9,0,3.1-1.2,3.6-1.9l-1.4-1c-0.5,0.7-1.2,1.2-2.1,1.2s-1.7-0.4-2.1-1.2l5.6-2.3L90.2,20.3z M84.4,21.7
		c-0.1-1.7,1.2-2.5,2.2-2.5c0.7,0,1.3,0.3,1.6,0.9L84.4,21.7z M79.8,25.9h1.8V13.5h-1.8V25.9z M76.8,18.6L76.8,18.6
		c-0.5-0.5-1.2-0.9-2.3-0.9c-2.1,0-4.1,1.8-4.1,4.2s1.9,4.2,4.1,4.2c1,0,1.8-0.4,2.2-1h0.1v0.7c0,1.7-0.8,2.5-2.2,2.5
		c-1.2,0-1.8-0.8-2.1-1.5l-1.7,0.7c0.5,1.2,1.7,2.5,3.7,2.5c2.1,0,4.1-1.2,4.1-4.4v-7.6h-1.7V18.6z M74.6,24.5
		c-1.2,0-2.3-1.1-2.3-2.6c0-1.5,1.1-2.6,2.3-2.6s2.2,1.1,2.2,2.6C76.9,23.4,75.9,24.5,74.6,24.5z M98.8,13.5h-4.5v12.4h1.8v-4.7h2.6
		c2.1,0,4.1-1.5,4.1-3.9S100.9,13.5,98.8,13.5z M98.9,19.4h-2.6v-4.2h2.6c1.4,0,2.1,1.2,2.1,2.1C101.1,18.3,100.2,19.4,98.9,19.4z
		 M110.3,17.7c-1.3,0-2.7,0.6-3.3,1.9l1.7,0.7c0.3-0.7,1-0.9,1.7-0.9c1,0,1.9,0.6,2,1.6v0.2c-0.3-0.2-1.1-0.5-1.9-0.5
		c-1.7,0-3.6,1-3.6,2.8c0,1.7,1.5,2.7,3.1,2.7c1.2,0,1.9-0.6,2.4-1.2h0.1v1h1.8v-4.8C114.1,18.9,112.5,17.7,110.3,17.7z M110.1,24.5
		c-0.6,0-1.5-0.3-1.5-1.1c0-1,1.1-1.3,2-1.3c0.8,0,1.2,0.2,1.7,0.4C112.1,23.6,111.2,24.5,110.1,24.5z M120.6,17.9l-2.1,5.4h-0.1
		l-2.2-5.4h-1.9l3.3,7.5l-1.9,4.2h1.9l5.1-11.7C122.6,17.9,120.6,17.9,120.6,17.9z M104,25.9h1.8V13.5H104V25.9z"/>
	<g>
		
			<linearGradient id="SVGID_1_" gradientUnits="userSpaceOnUse" x1="23.0876" y1="534.4866" x2="7.8441" y2="549.7302" gradientTransform="matrix(1 0 0 1 0 -524.7244)">
			<stop  offset="0" style="stop-color:#4696D2"/>
			<stop  offset="6.574450e-03" style="stop-color:#4598D3"/>
			<stop  offset="0.2601" style="stop-color:#3FB9EB"/>
			<stop  offset="0.5122" style="stop-color:#4AC1ED"/>
			<stop  offset="0.7604" style="stop-color:#5CC4E6"/>
			<stop  offset="1" style="stop-color:#60C4E5"/>
		</linearGradient>
		<path class="st2" d="M12.8,8.7c-0.2,0.2-0.4,0.7-0.4,1.2V30c0,0.6,0.2,1,0.4,1.2l0.1,0.1l11.2-11.2V20v-0.2L12.8,8.7L12.8,8.7z"/>
		
			<linearGradient id="SVGID_2_" gradientUnits="userSpaceOnUse" x1="34.0001" y1="544.7652" x2="12.0221" y2="544.7652" gradientTransform="matrix(1 0 0 1 0 -524.7244)">
			<stop  offset="0" style="stop-color:#FFE00A"/>
			<stop  offset="0.4087" style="stop-color:#FBBC0F"/>
			<stop  offset="0.7754" style="stop-color:#F7A418"/>
			<stop  offset="1" style="stop-color:#F59A1B"/>
		</linearGradient>
		<path class="st3" d="M27.8,23.9l-3.7-3.7V20v-0.2l3.7-3.7l0.1,0.1l4.5,2.6c1.2,0.7,1.2,1.9,0,2.6L27.8,23.9L27.8,23.9z"/>
		
			<linearGradient id="SVGID_3_" gradientUnits="userSpaceOnUse" x1="25.8158" y1="546.8057" x2="5.1444" y2="567.4771" gradientTransform="matrix(1 0 0 1 0 -524.7244)">
			<stop  offset="0" style="stop-color:#E8404A"/>
			<stop  offset="1" style="stop-color:#C31262"/>
		</linearGradient>
		<path class="st4" d="M27.9,23.8L24.1,20L12.8,31.3c0.4,0.4,1.1,0.5,1.9,0.1L27.9,23.8"/>
		
			<linearGradient id="SVGID_4_" gradientUnits="userSpaceOnUse" x1="9.8729" y1="526.7405" x2="19.1036" y2="535.9712" gradientTransform="matrix(1 0 0 1 0 -524.7244)">
			<stop  offset="0" style="stop-color:#32A071"/>
			<stop  offset="6.850000e-02" style="stop-color:#2DA771"/>
			<stop  offset="0.4762" style="stop-color:#4FB26F"/>
			<stop  offset="0.8009" style="stop-color:#61B668"/>
			<stop  offset="1" style="stop-color:#64B664"/>
		</linearGradient>
		<path class="st5" d="M27.9,16.2L14.7,8.7c-0.7-0.4-1.5-0.4-1.9,0.1L24.1,20L27.9,16.2z"/>
		<g>
			<path class="st6" d="M27.8,23.7l-13.1,7.5c-0.7,0.4-1.4,0.4-1.8,0l0,0l-0.1,0.1l0,0l0.1,0.1l0,0c0.4,0.4,1.1,0.4,1.8,0l13.2-7.5
				L27.8,23.7z"/>
			<path class="st7" d="M12.8,31.2c-0.2-0.2-0.4-0.7-0.4-1.2v0.2c0,0.6,0.2,1,0.4,1.2V31.2L12.8,31.2z"/>
		</g>
		<path class="st7" d="M32.4,21.2l-4.5,2.6l0.1,0.1L32.4,21.2c0.7-0.2,1-0.7,1-1.2l0,0C33.3,20.4,32.9,20.8,32.4,21.2z"/>
		<path class="st8" d="M14.7,8.8l17.7,10.1c0.6,0.3,0.9,0.7,1,1.2l0,0c0-0.5-0.3-1-1-1.3L14.7,8.6c-1.2-0.7-2.3-0.1-2.3,1.3v0.2
			C12.4,8.7,13.3,8,14.7,8.8z"/>
	</g>
</g>
</svg>
