<svg width="15" height="19" viewBox="0 0 15 19" fill="none" xmlns="http://www.w3.org/2000/svg">
<path d="M7.5 0.59375C5.76781 0.59375 4.10656 1.28186 2.88171 2.50671C1.65686 3.73156 0.96875 5.3928 0.96875 7.125C0.96875 10.5747 6.7875 17.8719 7.03688 18.1866C7.09251 18.2559 7.16301 18.3119 7.24317 18.3503C7.32332 18.3888 7.41109 18.4088 7.5 18.4088C7.58891 18.4088 7.67668 18.3888 7.75683 18.3503C7.83699 18.3119 7.90749 18.2559 7.96313 18.1866C8.2125 17.8719 14.0312 10.5747 14.0312 7.125C14.0312 5.3928 13.3431 3.73156 12.1183 2.50671C10.8934 1.28186 9.23219 0.59375 7.5 0.59375ZM7.5 8.90625C7.03027 8.90625 6.57109 8.76696 6.18052 8.50599C5.78995 8.24502 5.48554 7.8741 5.30579 7.44012C5.12603 7.00615 5.07899 6.52861 5.17063 6.06791C5.26227 5.60721 5.48847 5.18402 5.82062 4.85187C6.15277 4.51972 6.57596 4.29352 7.03666 4.20188C7.49737 4.11024 7.9749 4.15728 8.40887 4.33704C8.84285 4.51679 9.21377 4.8212 9.47474 5.21177C9.73571 5.60234 9.875 6.06152 9.875 6.53125C9.875 7.16114 9.62478 7.76523 9.17938 8.21063C8.73398 8.65603 8.12989 8.90625 7.5 8.90625Z" fill="white"/>
</svg>
