<svg width="242" height="65" viewBox="0 0 242 65" fill="none" xmlns="http://www.w3.org/2000/svg">
<path d="M101.708 21.4268C104.092 22.6857 105.939 24.4804 107.251 26.7572C108.563 29.0341 109.206 31.686 109.206 34.6861C109.206 37.6594 108.563 40.2844 107.251 42.5881C105.939 44.8917 104.092 46.6864 101.682 47.9454C99.2717 49.2043 96.4868 49.8472 93.3271 49.8472H81.9736V19.5249H93.3271C96.5136 19.5249 99.2984 20.1678 101.708 21.4268ZM99.352 41.1684C100.905 39.6415 101.682 37.4718 101.682 34.6861C101.682 31.9003 100.905 29.7306 99.352 28.1769C97.7989 26.6233 95.63 25.8465 92.8451 25.8465H89.3373V43.472H92.8451C95.63 43.472 97.7989 42.6952 99.352 41.1684Z" fill="#00ACDE"/>
<path d="M123.987 26.6504C125.272 25.9003 126.718 25.4985 128.298 25.4985V33.3201H126.263C124.415 33.3201 123.05 33.7219 122.113 34.4987C121.202 35.3023 120.72 36.6684 120.72 38.6774V49.874H113.356V25.7664H120.747V29.7843C121.604 28.445 122.675 27.4004 123.987 26.6504Z" fill="#00ACDE"/>
<path d="M178.371 19.5249L170.472 49.8472H161.528L156.682 29.8913L151.674 49.8472H142.731L135.046 19.5249H142.945L147.31 41.5969L152.719 19.5249H160.832L166.027 41.5969L170.418 19.5249H178.371Z" fill="#FF6969"/>
<path d="M182.629 22.0966C181.799 21.3466 181.397 20.3822 181.397 19.2572C181.397 18.1054 181.799 17.1411 182.629 16.3911C183.459 15.6411 184.504 15.2393 185.816 15.2393C187.074 15.2393 188.119 15.6143 188.949 16.3911C189.779 17.1411 190.18 18.1054 190.18 19.2572C190.18 20.3822 189.779 21.3198 188.949 22.0966C188.119 22.8734 187.074 23.2484 185.816 23.2484C184.504 23.2484 183.433 22.8734 182.629 22.0966ZM189.457 25.7663V49.8741H182.067V25.7663H189.457Z" fill="#FF6969"/>
<path d="M198.989 49.1239C197.356 48.4006 196.044 47.4095 195.107 46.1774C194.169 44.9184 193.634 43.5255 193.5 41.9719H200.81C200.89 42.8023 201.292 43.472 201.988 44.0077C202.685 44.5166 203.541 44.7845 204.532 44.7845C205.443 44.7845 206.166 44.597 206.674 44.2488C207.183 43.9005 207.424 43.4184 207.424 42.8559C207.424 42.1595 207.076 41.6505 206.353 41.3291C205.63 41.0076 204.479 40.6326 202.845 40.2308C201.105 39.829 199.685 39.4004 198.534 38.9451C197.383 38.4897 196.392 37.7933 195.562 36.829C194.732 35.8647 194.303 34.5521 194.303 32.9182C194.303 31.5253 194.678 30.2663 195.455 29.1413C196.204 28.0163 197.329 27.1056 198.829 26.4359C200.301 25.7662 202.069 25.4448 204.13 25.4448C207.156 25.4448 209.539 26.1948 211.28 27.6948C213.02 29.1949 214.011 31.1771 214.279 33.6682H207.451C207.344 32.8378 206.969 32.1682 206.353 31.686C205.737 31.2039 204.934 30.9628 203.916 30.9628C203.059 30.9628 202.39 31.1235 201.935 31.4717C201.48 31.7932 201.239 32.2485 201.239 32.8378C201.239 33.5343 201.613 34.0432 202.336 34.3914C203.059 34.7396 204.211 35.0879 205.764 35.4361C207.558 35.8914 209.004 36.3468 210.129 36.8022C211.253 37.2575 212.244 37.9808 213.074 38.9719C213.931 39.963 214.359 41.3023 214.386 42.963C214.386 44.3827 213.984 45.6417 213.208 46.7399C212.405 47.8381 211.28 48.7221 209.807 49.3649C208.334 50.0078 206.594 50.3025 204.639 50.3025C202.524 50.1953 200.649 49.8471 198.989 49.1239Z" fill="#FF6969"/>
<path d="M241.485 39.588H224.776C224.883 41.088 225.365 42.2399 226.222 43.0167C227.079 43.8203 228.123 44.1953 229.355 44.1953C231.202 44.1953 232.488 43.4184 233.211 41.8648H241.056C240.655 43.4452 239.932 44.8649 238.887 46.1507C237.843 47.4096 236.531 48.4007 234.924 49.1239C233.345 49.8472 231.577 50.1954 229.623 50.1954C227.266 50.1954 225.151 49.6865 223.33 48.6954C221.482 47.6775 220.036 46.2578 219.019 44.3828C217.975 42.5077 217.466 40.3112 217.466 37.8201C217.466 35.3022 217.975 33.1325 218.992 31.2575C220.01 29.3824 221.456 27.9359 223.276 26.9449C225.124 25.927 227.239 25.4448 229.623 25.4448C231.952 25.4448 234.014 25.927 235.835 26.9181C237.656 27.9092 239.075 29.3021 240.092 31.0967C241.11 32.9182 241.619 35.0343 241.619 37.4451C241.619 38.1147 241.565 38.838 241.485 39.588ZM234.068 35.4629C234.068 34.2039 233.639 33.1861 232.782 32.4361C231.925 31.686 230.828 31.311 229.542 31.311C228.311 31.311 227.266 31.6592 226.409 32.3825C225.552 33.1057 225.044 34.1236 224.83 35.4361H234.068V35.4629Z" fill="#FF6969"/>
<path d="M32.9176 7.41751H14.2272C9.19314 7.41751 4.8017 4.68529 2.44531 0.61377H28.071L32.9176 7.41751Z" fill="#FF6969"/>
<path d="M63.363 0.61377C61.0066 4.68529 56.6151 7.41751 51.581 7.41751H32.8906L37.7373 0.61377H63.363Z" fill="#FF6969"/>
<path d="M14.2278 10.4443C6.73018 10.4443 0.625 16.5248 0.625 24.0518C0.625 27.8019 2.15129 31.2038 4.61479 33.6681C7.07828 36.1325 10.479 37.6593 14.2278 37.6593H31.2045V10.4711H14.2278V10.4443ZM17.6017 31.7931C13.3173 31.7931 9.83632 28.3108 9.83632 24.025C9.83632 19.7392 13.3173 16.257 17.6017 16.257C21.886 16.257 25.367 19.7392 25.367 24.025C25.367 28.3108 21.886 31.7931 17.6017 31.7931Z" fill="#00ACDE"/>
<path d="M61.2219 14.4355C58.7584 11.9711 55.3577 10.4443 51.6089 10.4443H34.6055V37.6325H51.6089C59.1065 37.6325 65.2117 31.552 65.2117 24.025C65.1849 20.3017 63.6586 16.8998 61.2219 14.4355ZM48.1815 31.7931C43.8971 31.7931 40.4161 28.3108 40.4161 24.025C40.4161 19.7392 43.8971 16.257 48.1815 16.257C52.4658 16.257 55.9468 19.7392 55.9468 24.025C55.9468 28.3108 52.4658 31.7931 48.1815 31.7931Z" fill="#FF6969"/>
<path d="M17.6019 19.8198C17.5215 19.8198 17.4412 19.8198 17.3609 19.8198V23.3288H13.4246C13.3711 23.5699 13.3711 23.811 13.3711 24.0521C13.3711 26.3825 15.2723 28.2843 17.6019 28.2843C19.9315 28.2843 21.8327 26.3825 21.8327 24.0521C21.8327 21.6949 19.9315 19.8198 17.6019 19.8198Z" fill="#0E497D"/>
<path d="M48.181 19.8198C48.1006 19.8198 48.0203 19.8198 47.94 19.8198V23.3288H44.0038C43.9502 23.5699 43.9502 23.811 43.9502 24.0521C43.9502 26.3825 45.8514 28.2843 48.181 28.2843C50.5106 28.2843 52.4118 26.3825 52.4118 24.0521C52.4118 21.6949 50.5374 19.8198 48.181 19.8198Z" fill="#DE2546"/>
<path d="M51.6087 40.659H49.6808C49.2523 48.8288 42.4777 55.3379 34.2036 55.3379H24.0015C23.3321 58.2308 20.7079 60.4005 17.6018 60.4005C13.9869 60.4005 11.0414 57.454 11.0414 53.8379C11.0414 50.2217 13.9869 47.2752 17.6018 47.2752C20.7079 47.2752 23.3053 49.4449 24.0015 52.3378H34.5517C41.0853 52.3378 46.414 47.168 46.655 40.6858H40.4159L32.8915 46.2841L25.3672 40.6858H14.2011C10.372 40.6858 6.81062 39.3732 3.99902 37.1768V64.8738H34.0965C49.3862 64.8738 61.784 52.4717 61.784 37.1768C58.9724 39.3464 55.4379 40.659 51.6087 40.659Z" fill="#FF6969"/>
<path d="M21.1629 53.8117C21.1629 51.8563 19.583 50.2759 17.6283 50.2759C17.5748 50.2759 17.4944 50.2759 17.4409 50.2759V50.3027C15.7807 50.383 14.4419 51.6152 14.1473 53.2224C14.1205 53.4099 14.0938 53.6242 14.0938 53.8385C14.0938 55.7939 15.6736 57.3744 17.6283 57.3744C17.6819 57.3744 17.7622 57.3744 17.8158 57.3744V57.3476C19.4759 57.2672 20.8148 56.035 21.1093 54.4278C21.1361 54.2403 21.1629 54.026 21.1629 53.8117Z" fill="#DE2546"/>
</svg>
