<svg width="20" height="20" viewBox="0 0 20 20" fill="none" xmlns="http://www.w3.org/2000/svg">
<path d="M1.66732 5.83317H18.334C18.555 5.83317 18.767 5.74537 18.9232 5.58909C19.0795 5.43281 19.1673 5.22085 19.1673 4.99984C19.1673 4.77882 19.0795 4.56686 18.9232 4.41058C18.767 4.2543 18.555 4.1665 18.334 4.1665H1.66732C1.4463 4.1665 1.23434 4.2543 1.07806 4.41058C0.921782 4.56686 0.833984 4.77882 0.833984 4.99984C0.833984 5.22085 0.921782 5.43281 1.07806 5.58909C1.23434 5.74537 1.4463 5.83317 1.66732 5.83317Z" fill="white"/>
<path d="M18.334 9.1665H1.66732C1.4463 9.1665 1.23434 9.2543 1.07806 9.41058C0.921782 9.56686 0.833984 9.77883 0.833984 9.99984C0.833984 10.2209 0.921782 10.4328 1.07806 10.5891C1.23434 10.7454 1.4463 10.8332 1.66732 10.8332H18.334C18.555 10.8332 18.767 10.7454 18.9232 10.5891C19.0795 10.4328 19.1673 10.2209 19.1673 9.99984C19.1673 9.77883 19.0795 9.56686 18.9232 9.41058C18.767 9.2543 18.555 9.1665 18.334 9.1665Z" fill="white"/>
<path d="M18.334 14.1665H1.66732C1.4463 14.1665 1.23434 14.2543 1.07806 14.4106C0.921782 14.5669 0.833984 14.7788 0.833984 14.9998C0.833984 15.2209 0.921782 15.4328 1.07806 15.5891C1.23434 15.7454 1.4463 15.8332 1.66732 15.8332H18.334C18.555 15.8332 18.767 15.7454 18.9232 15.5891C19.0795 15.4328 19.1673 15.2209 19.1673 14.9998C19.1673 14.7788 19.0795 14.5669 18.9232 14.4106C18.767 14.2543 18.555 14.1665 18.334 14.1665Z" fill="white"/>
</svg>
