<svg width="59" height="59" viewBox="0 0 59 59" fill="none" xmlns="http://www.w3.org/2000/svg">
<circle cx="29.5" cy="29.5" r="29.5" fill="#00ACDE"/>
<path d="M36.4441 27.8229C36.4483 27.6324 36.3931 27.4453 36.286 27.2877C36.179 27.1301 36.0254 27.0097 35.8468 26.9434C35.6682 26.877 35.4734 26.868 35.2894 26.9174C35.1054 26.9669 34.9415 27.0725 34.8203 27.2195L30.015 32.8288L25.2113 27.2195C25.1366 27.1178 25.0417 27.0327 24.9325 26.9694C24.8234 26.9061 24.7022 26.866 24.5769 26.8516C24.4515 26.8373 24.3245 26.849 24.2038 26.886C24.0832 26.923 23.9714 26.9845 23.8757 27.0667C23.7799 27.1489 23.7022 27.25 23.6473 27.3636C23.5924 27.4773 23.5615 27.601 23.5567 27.7271C23.5518 27.8532 23.573 27.979 23.6189 28.0965C23.6649 28.214 23.7347 28.3208 23.8238 28.4101L29.3185 34.8322C29.4046 34.933 29.5114 35.014 29.6318 35.0695C29.7522 35.1251 29.8832 35.1538 30.0158 35.1538C30.1484 35.1538 30.2794 35.1251 30.3998 35.0695C30.5202 35.014 30.6272 34.933 30.7132 34.8322L36.2132 28.4101C36.3573 28.2479 36.4392 28.0398 36.4443 27.8229L36.4441 27.8229Z" fill="white"/>
</svg>
