<svg width="59" height="59" viewBox="0 0 59 59" fill="none" xmlns="http://www.w3.org/2000/svg">
<g clip-path="url(#clip0)">
<path d="M56.6846 29.8451C57.658 30.0368 58.2919 30.9802 58.1014 31.9524L57.3912 35.5688C57.1949 36.5699 56.2019 37.2118 55.1997 36.9659C54.261 36.7361 53.6917 35.7766 53.8776 34.8286L53.8972 34.7316L49.2163 34.9453C49.0754 34.951 48.953 35.0446 48.9091 35.1796C48.4519 36.5606 47.8503 37.8769 47.1217 39.1078C47.0478 39.2325 47.0594 39.3907 47.1529 39.5015L49.2232 41.961C49.6343 41.5695 50.1712 41.3663 50.7139 41.3663C51.1711 41.3663 51.633 41.5106 52.0244 41.8108C52.9724 42.536 53.1525 43.8927 52.4274 44.8418L51.8269 45.6258C51.1226 46.5473 49.8098 46.7944 48.8537 46.135C48.0304 45.5681 47.7325 44.5485 48.0304 43.6629L45.048 42.3524C44.9129 42.2935 44.757 42.3281 44.6588 42.4367C43.2779 43.9527 41.6706 45.2575 39.8901 46.299C39.7677 46.3706 39.7019 46.5092 39.725 46.6489L40.4882 51.3044L41.1487 51.04C42.0966 50.6613 43.1751 51.1463 43.5134 52.1219C43.8298 53.0353 43.3333 54.0341 42.4361 54.392L39.061 55.7429C38.1142 56.1217 37.0358 55.6367 36.6975 54.661C36.3811 53.7477 36.8776 52.7489 37.7748 52.3898L37.866 52.354L35.1433 48.539C35.0613 48.4236 34.917 48.3728 34.7796 48.4086C33.1527 48.83 31.4461 49.0563 29.6864 49.0563C28.2939 49.0563 26.936 48.9143 25.6231 48.6464C25.4846 48.6187 25.3426 48.6776 25.2664 48.7965L22.5425 53.0699L22.6384 53.1046C23.5251 53.4279 24.0747 54.265 24.0747 55.1564C24.0747 55.4058 24.032 55.6587 23.942 55.9058C23.942 57.184 22.9593 57.8721 21.7585 57.4334L18.4111 56.2129C17.2911 55.8053 16.7069 54.5756 17.0937 53.4521C17.4909 52.294 18.8107 51.7097 19.9607 52.1289L20.0381 52.1566L20.5923 47.1488C20.6085 47.008 20.5346 46.874 20.4087 46.8082C18.2888 45.7136 16.387 44.2553 14.7855 42.5152C14.6885 42.4101 14.5373 42.3755 14.4056 42.4297L10.3205 44.1052C10.7823 44.9688 10.5225 46.0635 9.67963 46.6177C8.79978 47.1962 7.61164 46.9271 7.01121 46.0635L5.96509 44.5566C5.37968 43.7149 5.51593 42.5417 6.32188 41.9067C7.18095 41.2301 8.40604 41.4056 9.04918 42.2565L11.9266 39.005C12.0224 38.8965 12.0386 38.7395 11.9682 38.6136C10.7869 36.4844 9.97868 34.1197 9.63113 31.6083C9.6115 31.4674 9.50874 31.3531 9.37133 31.3219L4.77349 30.2597L4.76887 30.7989C4.76425 31.3381 4.54256 31.8265 4.18577 32.1787C3.83013 32.532 3.34056 32.7491 2.80018 32.7491C1.72635 32.7491 0.856888 31.8727 0.86728 30.7989L0.897301 27.4585C0.906538 26.3661 1.80948 25.4459 2.90063 25.4748C3.95945 25.5025 4.80466 26.3731 4.79889 27.4354L9.36325 26.365C9.50181 26.3327 9.60457 26.2184 9.62305 26.0775C9.98099 23.4218 10.8551 20.9289 12.1402 18.7027C12.2118 18.578 12.1991 18.4221 12.1056 18.3113L9.92903 15.7548L9.73967 16.0043C9.1531 16.7802 8.03309 16.9153 7.27678 16.286C6.56783 15.6948 6.48123 14.6348 7.03777 13.8993L8.48802 11.9826C8.82518 11.538 9.33669 11.3036 9.85514 11.3036C10.2142 11.3036 10.5768 11.4168 10.8862 11.65C11.6033 12.1916 11.7719 13.1869 11.2985 13.9328L14.3421 15.2491C14.4761 15.3068 14.6308 15.2722 14.7301 15.1648C16.1665 13.5899 17.8488 12.2435 19.7171 11.1847C19.8395 11.1143 19.9076 10.9769 19.8868 10.8372L19.1859 6.17119L18.5208 6.42752C17.5694 6.79355 16.4967 6.29358 16.1723 5.31443C15.8674 4.39648 16.3778 3.40463 17.2796 3.05823L20.672 1.75347C21.6246 1.38744 22.6961 1.88625 23.0205 2.86656C23.3254 3.78336 22.8162 4.77521 21.9132 5.12276L21.822 5.1574L24.4916 9.00703C24.5724 9.12365 24.7156 9.17676 24.853 9.14328C26.4025 8.76339 28.0202 8.56248 29.6864 8.56248H29.6887C29.8342 8.56248 29.9647 8.47358 30.0132 8.33617L30.8976 5.86289C29.8734 5.5419 29.191 4.53157 29.3215 3.43003C29.4705 2.18185 30.6655 1.29507 31.9137 1.4521L33.1284 1.60452C34.3662 1.7604 35.2946 2.86887 35.1595 4.11012C35.0532 5.07657 34.3581 5.82941 33.476 6.06034L33.7831 8.74146C33.7993 8.88579 33.9067 9.00356 34.0498 9.03474C36.1028 9.48621 38.0392 10.2494 39.8058 11.2713C39.9294 11.3417 40.0818 11.3314 40.1915 11.2413L43.8552 8.26805L43.2986 7.82581C42.4985 7.19075 42.3853 6.01415 43.0642 5.23707C43.6993 4.50848 44.8136 4.44382 45.5699 5.0454L48.4161 7.30506C49.2163 7.93897 49.3294 9.11672 48.6505 9.8938C48.0154 10.6212 46.9012 10.6859 46.1449 10.0855L46.0675 10.0243L44.1057 14.2838C44.0457 14.412 44.0734 14.5632 44.1727 14.6649C45.5537 16.0793 46.7291 17.6958 47.6505 19.4648C47.7175 19.5929 47.8572 19.6657 48.0004 19.646L50.782 19.2569C50.3732 18.1161 50.9794 16.8518 52.1456 16.4696C53.2576 16.1047 54.4561 16.7225 54.8649 17.8194L55.5057 19.5375C55.9098 20.624 55.4249 21.8676 54.3626 22.3295C53.3442 22.7717 52.1953 22.3722 51.648 21.4692L49.3398 23.035C49.2186 23.1169 49.1643 23.267 49.2036 23.4079C49.6781 25.1284 49.9322 26.9389 49.9322 28.8094C49.9322 29.1223 49.9252 29.4329 49.9102 29.7412C49.9044 29.8832 49.9841 30.0137 50.1134 30.0703L54.4411 31.9605L54.5773 31.2619C54.769 30.2885 55.7124 29.6546 56.6846 29.8451Z" fill="#FF6969"/>
<path d="M38.4796 21.2317C40.0583 21.2317 41.338 20.1617 41.338 18.8417C41.338 17.5217 40.0583 16.4517 38.4796 16.4517C36.9009 16.4517 35.6211 17.5217 35.6211 18.8417C35.6211 20.1617 36.9009 21.2317 38.4796 21.2317Z" fill="#EE6161"/>
<path d="M28.1625 36.8491C29.888 36.8491 31.2869 35.4503 31.2869 33.7247C31.2869 31.9992 29.888 30.6003 28.1625 30.6003C26.4369 30.6003 25.0381 31.9992 25.0381 33.7247C25.0381 35.4503 26.4369 36.8491 28.1625 36.8491Z" fill="#EE6161"/>
<path d="M40.3396 34.3342C41.575 34.3342 42.5766 33.3326 42.5766 32.0971C42.5766 30.8617 41.575 29.8601 40.3396 29.8601C39.1041 29.8601 38.1025 30.8617 38.1025 32.0971C38.1025 33.3326 39.1041 34.3342 40.3396 34.3342Z" fill="#FF6969"/>
<path d="M32.0773 45.1892C33.2784 45.1892 34.2522 44.2154 34.2522 43.0143C34.2522 41.8131 33.2784 40.8394 32.0773 40.8394C30.8761 40.8394 29.9023 41.8131 29.9023 43.0143C29.9023 44.2154 30.8761 45.1892 32.0773 45.1892Z" fill="#FF6969"/>
<path d="M17.3736 27.8397C17.3736 20.0563 21.0866 13.1387 26.8355 8.76148C26.1643 8.85616 25.5017 8.9841 24.853 9.14321C24.7156 9.17669 24.5724 9.12358 24.4916 9.00696L21.822 5.15733L21.9132 5.12269C22.8162 4.77514 23.3254 3.78329 23.0205 2.86649C22.6961 1.88619 21.6246 1.38737 20.672 1.7534L17.2796 3.05816C16.3778 3.40456 15.8674 4.39641 16.1723 5.31436C16.4967 6.29351 17.5694 6.79348 18.5208 6.42745L19.1859 6.17112L19.8868 10.8371C19.9076 10.9768 19.8395 11.1142 19.7171 11.1846C17.8488 12.2435 16.1665 13.5898 14.7301 15.1647C14.6308 15.2721 14.4761 15.3068 14.3421 15.249L11.2985 13.9327C11.7719 13.1868 11.6033 12.1915 10.8862 11.65C10.5768 11.4167 10.2142 11.3036 9.85513 11.3036C9.33669 11.3036 8.82518 11.538 8.48802 11.9825L7.03777 13.8992C6.48122 14.6348 6.56782 15.6947 7.27678 16.2859C8.03308 16.9152 9.1531 16.7801 9.73967 16.0042L9.92903 15.7548L12.1056 18.3112C12.1991 18.422 12.2118 18.5779 12.1402 18.7026C10.8551 20.9288 9.98099 23.4217 9.62305 26.0774C9.60457 26.2183 9.50181 26.3326 9.36325 26.3649L4.79889 27.4353C4.80466 26.373 3.95945 25.5024 2.90063 25.4747C1.80948 25.4458 0.906538 26.3661 0.897301 27.4584L0.86728 30.7988C0.856888 31.8726 1.72634 32.749 2.80018 32.749C3.34056 32.749 3.83013 32.532 4.18576 32.1786C4.54255 31.8265 4.76425 31.338 4.76887 30.7988L4.77349 30.2596L9.37133 31.3219C9.50873 31.353 9.6115 31.4674 9.63113 31.6082C9.97868 34.1196 10.7869 36.4843 11.9682 38.6135C12.0386 38.7394 12.0224 38.8964 11.9266 39.005L9.04918 42.2565C8.40604 41.4055 7.18095 41.23 6.32188 41.9066C5.51593 42.5417 5.37968 43.7148 5.96509 44.5566L7.01121 46.0634C7.61163 46.9271 8.79977 47.1961 9.67962 46.6176C10.5225 46.0634 10.7823 44.9688 10.3205 44.1051L14.4056 42.4297C14.5373 42.3754 14.6885 42.41 14.7855 42.5151C16.387 44.2552 18.2887 45.7135 20.4087 46.8081C20.5346 46.874 20.6085 47.0079 20.5923 47.1488L20.0381 52.1565L19.9607 52.1288C18.8107 51.7097 17.4909 52.2939 17.0937 53.452C16.7069 54.5755 17.2911 55.8052 18.4111 56.2128L21.7585 57.4333C22.9593 57.8721 23.9419 57.1839 23.9419 55.9057C24.032 55.6586 24.0747 55.4057 24.0747 55.1563C24.0747 54.2649 23.5251 53.4278 22.6383 53.1045L22.5425 53.0698L25.2663 48.7965C25.3426 48.6775 25.4846 48.6186 25.6231 48.6464C26.936 48.9142 28.2939 49.0563 29.6864 49.0563C29.8502 49.0563 30.0167 49.0542 30.1796 49.0504C22.5672 45.0362 17.3736 37.0437 17.3736 27.8397Z" fill="#F37C7C"/>
<path d="M18.4688 40.0775C19.7201 40.0775 20.7345 39.0631 20.7345 37.8118C20.7345 36.5605 19.7201 35.5461 18.4688 35.5461C17.2175 35.5461 16.2031 36.5605 16.2031 37.8118C16.2031 39.0631 17.2175 40.0775 18.4688 40.0775Z" fill="#EE6161"/>
<path d="M26.0595 25.1367C28.6452 23.0977 29.361 19.6942 27.6581 17.5347C25.9553 15.3752 22.4787 15.2774 19.8929 17.3164C17.3071 19.3554 16.5914 22.7589 18.2942 24.9184C19.9971 27.078 23.4737 27.1757 26.0595 25.1367Z" fill="#EE6161"/>
<path d="M56.8509 28.9961C56.1532 28.8594 55.4443 29.0024 54.8543 29.3988C54.3656 29.7271 54.007 30.197 53.8205 30.745L50.7885 29.4209C50.7948 29.2134 50.7979 29.0089 50.7979 28.8098C50.7979 27.0271 50.5747 25.257 50.1343 23.5422L51.4944 22.6196C52.3564 23.3747 53.6093 23.6004 54.7063 23.1239C56.1823 22.4825 56.8893 20.7744 56.3156 19.2352L55.6754 17.517C55.0949 15.959 53.4252 15.1382 51.8744 15.6471C51.0895 15.9048 50.4579 16.4547 50.0961 17.1953C49.8902 17.6165 49.7864 18.0683 49.7862 18.5223L48.2432 18.7378C48.0318 18.3503 47.8008 17.9576 47.5542 17.5664C47.2991 17.1618 46.7642 17.0407 46.3598 17.2956C45.9551 17.5507 45.8339 18.0854 46.0889 18.49C46.38 18.9518 46.6468 19.4144 46.8817 19.8654C47.1176 20.3176 47.6151 20.5741 48.1185 20.5039L50.901 20.1154C51.1592 20.0794 51.3874 19.9289 51.5223 19.7059C51.6572 19.4828 51.6844 19.2107 51.5964 18.9654C51.4769 18.6324 51.4968 18.2739 51.6521 17.9559C51.807 17.6388 52.0778 17.4034 52.4146 17.2927C53.0679 17.0784 53.8022 17.4504 54.0524 18.1219L54.6926 19.8402C54.9404 20.5051 54.6369 21.2657 54.0159 21.5357C53.4215 21.7938 52.7215 21.5725 52.387 21.0209C52.2641 20.818 52.063 20.6745 51.8313 20.6239C51.5995 20.5732 51.357 20.6202 51.1605 20.7534L48.8527 22.3187C48.4246 22.609 48.2297 23.1398 48.3678 23.6396C48.831 25.3169 49.0659 27.0565 49.0659 28.8099C49.0659 29.0972 49.0586 29.3974 49.0445 29.7023C49.0215 30.199 49.3117 30.6662 49.7664 30.8647L54.0931 32.7542C54.3338 32.8594 54.6092 32.8496 54.8416 32.7277C55.0743 32.6059 55.2389 32.3852 55.2895 32.1274L55.4267 31.4289C55.4745 31.1854 55.6143 30.975 55.8203 30.8365C56.0262 30.6981 56.2737 30.6481 56.5173 30.696C57.0202 30.7946 57.3491 31.284 57.2504 31.7867L56.5409 35.4027C56.4915 35.6545 56.3452 35.8691 56.1288 36.0072C55.9127 36.1452 55.6556 36.187 55.4052 36.1258C54.9318 36.0095 54.6275 35.5025 54.7269 34.9954L54.7459 34.8987C54.7969 34.6379 54.7254 34.3681 54.5519 34.1668C54.3783 33.9653 54.1201 33.854 53.8566 33.8671L49.1763 34.0805C48.6808 34.1031 48.2426 34.4354 48.086 34.9079C47.6525 36.217 47.077 37.4819 46.3754 38.6673C46.1141 39.1086 46.16 39.6682 46.4894 40.0596L48.5599 42.5194C48.7137 42.7021 48.9362 42.8131 49.1745 42.8264C49.413 42.8393 49.6464 42.7536 49.8193 42.5891C50.2835 42.1477 50.989 42.1099 51.497 42.4987C51.7721 42.7091 51.9485 43.0139 51.9942 43.3571C52.0399 43.7002 51.9491 44.0406 51.7388 44.3155L51.1388 45.0997C50.7078 45.6628 49.9028 45.8076 49.3443 45.4228C48.8696 45.0956 48.6666 44.486 48.8507 43.9402C48.9941 43.5151 48.7891 43.051 48.3783 42.8706L45.3956 41.5605C44.9212 41.3519 44.3676 41.4698 44.0175 41.8539C42.6876 43.3143 41.1517 44.5586 39.4527 45.5522C39.0235 45.8027 38.7892 46.2999 38.8693 46.7892L39.6329 51.4452C39.6754 51.7043 39.8331 51.9302 40.0619 52.0593C40.2906 52.1884 40.5653 52.2066 40.8093 52.1091L41.47 51.8447C41.7082 51.7495 41.968 51.7557 42.2014 51.8624C42.4348 51.9689 42.6096 52.1618 42.6941 52.4057C42.8537 52.8663 42.5931 53.3973 42.1132 53.5892L38.7391 54.939C38.5009 55.0344 38.2412 55.028 38.0076 54.9214C37.7744 54.815 37.5994 54.622 37.5149 54.3783C37.3553 53.9177 37.6158 53.3867 38.0954 53.1948L38.1867 53.1583C38.4336 53.0595 38.6213 52.853 38.6961 52.5979C38.7708 52.3428 38.7244 52.0676 38.5699 51.8512L35.8478 48.0371C35.5599 47.6333 35.0427 47.4459 34.5619 47.5706C32.9748 47.982 31.3342 48.1907 29.6853 48.1907C28.3797 48.1907 27.0709 48.0588 25.7955 47.7988C25.3086 47.6996 24.8026 47.9136 24.5355 48.3317L21.8109 52.605C21.6697 52.8263 21.6366 53.0998 21.7211 53.3486C21.8052 53.5973 21.9978 53.7943 22.2446 53.8842L22.341 53.9194C22.6718 54.04 22.9359 54.2822 23.0845 54.6015C23.2331 54.9206 23.2484 55.2787 23.1279 55.6095C23.0931 55.7045 23.0755 55.805 23.0755 55.9061C23.0755 56.2337 22.9788 56.4818 22.8033 56.6046C22.6279 56.7274 22.3619 56.7334 22.0539 56.621L18.7068 55.4005C18.0365 55.1562 17.6797 54.4088 17.9113 53.7344C18.0218 53.413 18.2596 53.1516 18.5811 52.9982C18.9207 52.8362 19.3154 52.8161 19.6638 52.9432L19.7405 52.9711C19.99 53.0623 20.2678 53.0336 20.4936 52.8934C20.7196 52.7532 20.8686 52.5171 20.8978 52.2529L21.4525 47.2448C21.5071 46.752 21.2471 46.2678 20.8055 46.0399C18.7808 44.9943 16.9693 43.6112 15.4217 41.9297C15.0811 41.5593 14.5402 41.4384 14.0758 41.629L9.99123 43.3041C9.76457 43.397 9.58791 43.5815 9.505 43.812C9.42198 44.0425 9.44057 44.2973 9.55592 44.5133C9.81515 44.9983 9.66331 45.5924 9.20283 45.8951C8.72815 46.2075 8.06353 46.0614 7.72175 45.5695L6.67552 44.0635C6.33997 43.5805 6.41987 42.9322 6.85737 42.5874C7.08357 42.4091 7.36427 42.331 7.64716 42.3674C7.93224 42.4041 8.18442 42.5503 8.35751 42.7792C8.51408 42.9863 8.7554 43.1123 9.01497 43.1223C9.27361 43.1323 9.52475 43.0253 9.69679 42.8308L12.5737 39.579C12.9114 39.1974 12.9719 38.6409 12.7242 38.1936C12.4149 37.6356 12.1271 37.0481 11.8692 36.4472C11.6803 36.0079 11.1712 35.8046 10.7316 35.9934C10.2921 36.1821 10.0889 36.6913 10.2776 37.1308C10.5089 37.669 10.7621 38.1978 11.0325 38.7071L8.9719 41.0364C8.64051 40.8332 8.26663 40.7007 7.86839 40.6494C7.11937 40.5532 6.38015 40.7583 5.78539 41.2268C4.62969 42.1376 4.39599 43.8177 5.25332 45.0515L6.29956 46.5574C7.1726 47.8142 8.90181 48.166 10.1547 47.342C11.0917 46.7258 11.5433 45.6509 11.3857 44.6039L14.3971 43.3688C15.9436 44.9928 17.7218 46.3501 19.6916 47.4101L19.2796 51.1301C18.7852 51.116 18.2878 51.2188 17.8354 51.4346C17.0909 51.7898 16.5361 52.4065 16.2733 53.1714C15.7373 54.7322 16.5628 56.462 18.1136 57.0274L21.4607 58.2479C21.7966 58.3704 22.1341 58.4309 22.4591 58.4309C22.9487 58.4309 23.4102 58.2935 23.7964 58.0233C24.4024 57.5992 24.7647 56.8886 24.804 56.0576C25.0286 55.3334 24.9771 54.5622 24.6547 53.87C24.4481 53.4261 24.145 53.0467 23.77 52.7539L25.8035 49.5645C28.7236 50.1078 31.7685 50.0279 34.6462 49.3344L36.6223 52.1031C35.8445 52.807 35.5214 53.9147 35.8783 54.9451C36.1194 55.6405 36.6201 56.1916 37.2881 56.4967C37.947 56.7975 38.71 56.8158 39.3823 56.547L42.7566 55.1972C44.1048 54.6578 44.7963 53.1825 44.3307 51.8386C44.0898 51.1432 43.5891 50.592 42.921 50.2869C42.3729 50.0365 41.7522 49.9817 41.1718 50.1256L40.6367 46.8626C42.2576 45.8773 43.7368 44.68 45.0417 43.2968L47.0568 44.1818C47.0004 45.217 47.4804 46.2417 48.3615 46.849C49.6906 47.7647 51.5147 47.4585 52.5144 46.1523L53.1143 45.3681C53.6059 44.7258 53.8179 43.9305 53.7112 43.1287C53.6045 42.3269 53.1921 41.6146 52.5496 41.123C51.6124 40.4059 50.3889 40.3093 49.3815 40.8057L48.0527 39.2271C48.6738 38.1336 49.1975 36.9819 49.6138 35.7943L53.0104 35.6393C53.1789 36.6747 53.9333 37.5476 54.9924 37.8077C55.7071 37.9833 56.4418 37.8621 57.0608 37.4669C57.6712 37.0772 58.1012 36.4464 58.2406 35.736L58.9501 32.1199C59.2325 30.68 58.2909 29.2787 56.8509 28.9961Z" fill="#CB1717"/>
<path d="M5.57953 31.3354L8.82551 32.0852C8.89617 32.5365 8.98358 32.9948 9.08634 33.4519C9.17675 33.8547 9.53424 34.1284 9.93052 34.1283C9.99333 34.1283 10.0572 34.1214 10.121 34.1071C10.5876 34.0022 10.881 33.5391 10.7762 33.0724C10.6569 32.5408 10.56 32.0084 10.4884 31.4899C10.4202 30.9966 10.0491 30.5899 9.56518 30.4782L4.96791 29.4165C4.71239 29.3575 4.44312 29.4177 4.23701 29.5801C4.03079 29.7427 3.90944 29.99 3.90713 30.2526L3.90239 30.7908C3.89697 31.3933 3.40243 31.8836 2.79981 31.8836C2.51288 31.8836 2.2435 31.7713 2.04155 31.5675C1.83948 31.3636 1.72968 31.0934 1.73222 30.8065L1.76224 27.4668C1.76489 27.1605 1.89502 26.8609 2.11914 26.6448C2.32975 26.4415 2.5959 26.3325 2.87706 26.3409C3.46201 26.3563 3.93542 26.8454 3.93218 27.4312C3.93068 27.6964 4.05088 27.9478 4.25838 28.1131C4.46587 28.2786 4.7379 28.3398 4.99585 28.2791L9.56079 27.2087C10.0444 27.0953 10.4139 26.6876 10.4805 26.1941C10.8173 23.6962 11.6277 21.3217 12.8892 19.1361C13.1437 18.6948 13.0936 18.1381 12.7639 17.7506L10.5871 15.1939C10.4169 14.9942 10.1666 14.8819 9.90269 14.8897C9.64023 14.8973 9.39533 15.0235 9.23691 15.2328L9.04824 15.4822C8.90726 15.6686 8.70173 15.7858 8.46941 15.8125C8.2379 15.839 8.01032 15.7709 7.82985 15.6206C7.48876 15.3364 7.44281 14.799 7.72743 14.4227L9.17745 12.5055C9.45895 12.1334 9.99079 12.0595 10.3629 12.3411C10.7114 12.6046 10.8007 13.0996 10.5663 13.468C10.4303 13.682 10.3948 13.9447 10.4693 14.187C10.5438 14.4294 10.7206 14.627 10.9532 14.7275L13.9972 16.0441C14.4691 16.2483 15.02 16.1299 15.368 15.7488C16.7538 14.2308 18.3602 12.9487 20.143 11.9381C20.5748 11.6931 20.8156 11.1994 20.7421 10.7091L20.0409 6.04337C20.0019 5.78368 19.8471 5.55575 19.6202 5.42366C19.393 5.29145 19.1182 5.26951 18.8736 5.36373L18.2093 5.61926C17.9698 5.71117 17.7102 5.70159 17.4783 5.5919C17.2464 5.48232 17.0742 5.28707 16.993 5.04216C16.8395 4.57938 17.1071 4.05204 17.5896 3.86649L20.9815 2.56184C21.221 2.4697 21.4806 2.47952 21.7125 2.58921C21.9444 2.69879 22.1168 2.89404 22.1979 3.13894C22.3513 3.60173 22.0837 4.12906 21.6012 4.31473L21.5095 4.35006C21.2615 4.44555 21.071 4.64958 20.9928 4.9036C20.9148 5.15763 20.9575 5.43348 21.1091 5.65182L23.7794 9.50122C24.0618 9.90835 24.5757 10.1027 25.0583 9.98456C26.5632 9.61599 28.1199 9.42905 29.687 9.42905H29.6875C30.1984 9.42905 30.6565 9.10702 30.8273 8.62818L31.7114 6.15421C31.7907 5.93229 31.7762 5.6875 31.671 5.47666C31.5659 5.2657 31.3794 5.10659 31.1544 5.03627C30.5106 4.8349 30.101 4.20261 30.1804 3.53291C30.2228 3.17658 30.41 2.85224 30.7074 2.61958C31.0198 2.37525 31.4194 2.2629 31.8045 2.31151L33.0187 2.46439C33.8057 2.56346 34.379 3.2596 34.2967 4.01613C34.2331 4.60016 33.8242 5.0738 33.2551 5.22275C32.8382 5.33187 32.5649 5.73092 32.614 6.15906L32.9212 8.83995C32.9798 9.35157 33.3578 9.76979 33.8623 9.88075C35.7966 10.3057 37.6501 11.0258 39.3709 12.0209C39.802 12.2703 40.3504 12.2274 40.736 11.9145L44.3996 8.94063C44.6035 8.77517 44.7212 8.52611 44.7198 8.26354C44.7183 8.00109 44.5978 7.7533 44.3923 7.59003L43.835 7.14745C43.634 6.98799 43.5105 6.75937 43.4872 6.50361C43.464 6.24832 43.5446 6.00076 43.7144 5.80643C44.0351 5.43913 44.6252 5.40195 45.0303 5.7233L47.8765 7.98308C48.0774 8.14253 48.2009 8.37116 48.2243 8.6268C48.2475 8.88209 48.1669 9.12965 47.997 9.32409C47.6763 9.69116 47.0858 9.72834 46.6814 9.40734L46.6046 9.34638C46.3963 9.18092 46.1236 9.12041 45.8653 9.18207C45.6067 9.24373 45.3907 9.42074 45.2795 9.66218L43.3172 13.9219C43.1097 14.3725 43.2038 14.9143 43.551 15.27C43.6741 15.3961 43.7957 15.5266 43.9404 15.6837C44.2643 16.0357 44.8121 16.0583 45.1641 15.7343C45.5159 15.4103 45.5385 14.8625 45.2147 14.5106C45.1535 14.444 45.0958 14.3816 45.04 14.3219L46.4651 11.2281C47.4622 11.5542 48.5841 11.285 49.3014 10.4637C49.7857 9.90939 50.0157 9.20124 49.949 8.46976C49.8833 7.74856 49.5204 7.0769 48.9533 6.62681L46.1071 4.36715C44.9699 3.46432 43.346 3.59584 42.41 4.66725C41.9257 5.2216 41.6957 5.92975 41.7625 6.66122C41.8172 7.26141 42.0776 7.82743 42.4905 8.25985L39.9241 10.3434C38.2476 9.41173 36.4597 8.71651 34.6002 8.27301L34.4099 6.6118C35.2901 6.125 35.9075 5.22852 36.0192 4.20377C36.2031 2.51358 34.9544 0.962527 33.2357 0.746029L32.0214 0.593152C31.1824 0.487617 30.3145 0.72894 29.6412 1.25535C28.9775 1.77437 28.5584 2.51069 28.4613 3.32877C28.3199 4.51806 28.8686 5.65448 29.8216 6.29716L29.3201 7.70018C27.8608 7.72513 26.4105 7.89936 24.9984 8.21932L23.0605 5.42551C23.8474 4.73225 24.1853 3.62898 23.8423 2.59394C23.6105 1.89526 23.1173 1.33756 22.4534 1.02349C21.7987 0.71393 21.0359 0.68541 20.3601 0.945323L16.9683 2.24985C15.6128 2.77107 14.9017 4.23702 15.3493 5.58716C15.5809 6.28584 16.0741 6.84354 16.7381 7.15761C17.2829 7.41521 17.9024 7.47837 18.485 7.34224L18.9764 10.612C17.2665 11.6201 15.711 12.8609 14.3441 14.3068L12.3889 13.4612C12.5478 12.5355 12.1941 11.5542 11.408 10.9596C10.8587 10.5441 10.1808 10.3671 9.49844 10.4621C8.81627 10.5567 8.21181 10.9114 7.79648 11.4607L6.34634 13.3779C5.49778 14.4995 5.66255 16.0691 6.72137 16.9512C7.26926 17.4076 7.96009 17.6144 8.6672 17.5331C9.11302 17.482 9.53655 17.3135 9.89472 17.0522L11.2065 18.5931C9.99437 20.7797 9.19107 23.1352 8.81535 25.6045L5.46442 26.3903C5.05763 25.3751 4.0734 24.6398 2.9229 24.6094C2.17387 24.5906 1.4641 24.8699 0.916335 25.3984C0.360252 25.9351 0.0371787 26.6832 0.0301353 27.4511L0.000114187 30.791C-0.00658283 31.5435 0.281504 32.2524 0.811146 32.7868C1.34079 33.3213 2.04709 33.6157 2.7997 33.6157C4.16797 33.6158 5.31974 32.6326 5.57953 31.3354Z" fill="#CB1717"/>
<path d="M25.3996 26.6083C25.8221 26.3844 25.9832 25.8602 25.7592 25.4376C25.5353 25.0153 25.0113 24.8538 24.5884 25.0781C22.5189 26.175 20.16 25.8851 18.9803 24.3882C18.3183 23.5485 18.0906 22.4358 18.3391 21.2551C18.5996 20.0171 19.3446 18.8612 20.4368 18.0004C21.5288 17.1395 22.8268 16.6857 24.0913 16.7208C25.2973 16.7548 26.326 17.2361 26.9881 18.0759C27.982 19.3369 27.9694 21.2191 26.9559 22.8711C26.7058 23.2788 26.8334 23.812 27.2412 24.0621C27.6488 24.3122 28.182 24.1845 28.4321 23.7769C29.8295 21.4994 29.7965 18.8408 28.3482 17.0037C27.3629 15.7536 25.8684 15.0383 24.1402 14.9896C22.4701 14.9411 20.7747 15.5286 19.3646 16.6402C17.9543 17.7518 16.9883 19.2641 16.6442 20.8984C16.2881 22.5902 16.6347 24.2105 17.62 25.4604C18.6575 26.7765 20.282 27.4688 22.0296 27.4687C23.1431 27.4687 24.3064 27.1879 25.3996 26.6083Z" fill="#CB1717"/>
<path d="M42.2029 18.8424C42.2029 17.0471 40.5322 15.5864 38.4785 15.5864C36.4248 15.5864 34.7539 17.0471 34.7539 18.8424C34.7539 20.6378 36.4248 22.0985 38.4785 22.0985C40.5322 22.0985 42.2029 20.6378 42.2029 18.8424ZM36.486 18.8424C36.486 18.0021 37.3798 17.3184 38.4786 17.3184C39.5773 17.3184 40.4711 18.0021 40.4711 18.8424C40.4711 19.6828 39.5773 20.3665 38.4786 20.3665C37.3798 20.3665 36.486 19.6828 36.486 18.8424Z" fill="#CB1717"/>
<path d="M32.1518 33.7255C32.1518 31.5252 30.3617 29.7351 28.1614 29.7351C25.961 29.7351 24.1709 31.5252 24.1709 33.7255C24.1709 35.9258 25.961 37.7159 28.1614 37.7159C30.3617 37.7159 32.1518 35.9258 32.1518 33.7255ZM25.903 33.7255C25.903 32.4802 26.9161 31.4671 28.1615 31.4671C29.4067 31.4671 30.4199 32.4802 30.4199 33.7255C30.4199 34.9708 29.4068 35.9839 28.1615 35.9839C26.9161 35.9839 25.903 34.9708 25.903 33.7255Z" fill="#CB1717"/>
<path d="M43.4405 32.0978C43.4405 30.3867 42.0485 28.9946 40.3374 28.9946C38.6264 28.9946 37.2344 30.3867 37.2344 32.0978C37.2344 33.8089 38.6264 35.2009 40.3374 35.2009C42.0485 35.2008 43.4405 33.8089 43.4405 32.0978ZM38.9662 32.0978C38.9662 31.3417 39.5813 30.7266 40.3373 30.7266C41.0933 30.7266 41.7084 31.3417 41.7084 32.0978C41.7084 32.8538 41.0933 33.4689 40.3373 33.4689C39.5814 33.4688 38.9662 32.8538 38.9662 32.0978Z" fill="#CB1717"/>
<path d="M32.0762 46.0557C33.7529 46.0557 35.1171 44.6916 35.1171 43.0148C35.1171 41.3381 33.753 39.9739 32.0762 39.9739C30.3994 39.9739 29.0352 41.338 29.0352 43.0148C29.0352 44.6916 30.3993 46.0557 32.0762 46.0557ZM32.0762 41.7059C32.798 41.7059 33.3851 42.293 33.3851 43.0148C33.3851 43.7366 32.798 44.3237 32.0762 44.3237C31.3544 44.3237 30.7671 43.7366 30.7671 43.0148C30.7671 42.293 31.3544 41.7059 32.0762 41.7059Z" fill="#CB1717"/>
<path d="M18.4676 40.944C20.1944 40.944 21.5993 39.5391 21.5993 37.8123C21.5993 36.0855 20.1944 34.6807 18.4676 34.6807C16.7408 34.6807 15.3359 36.0855 15.3359 37.8123C15.3359 39.5391 16.7408 40.944 18.4676 40.944ZM18.4676 36.4127C19.2395 36.4127 19.8673 37.0406 19.8673 37.8123C19.8673 38.5841 19.2394 39.212 18.4676 39.212C17.6958 39.212 17.0679 38.5841 17.0679 37.8123C17.0679 37.0406 17.6958 36.4127 18.4676 36.4127Z" fill="#CB1717"/>
<path d="M36.102 26.9741C36.102 26.4959 35.7144 26.1082 35.236 26.1082H34.4705C33.9921 26.1082 33.6045 26.4959 33.6045 26.9741C33.6045 27.4524 33.9921 27.8401 34.4705 27.8401H35.236C35.7144 27.8401 36.102 27.4524 36.102 26.9741Z" fill="#CB1717"/>
<path d="M24.2488 42.9786H25.0354C25.5137 42.9786 25.9014 42.5908 25.9014 42.1126C25.9014 41.6343 25.5137 41.2466 25.0354 41.2466H24.2488C23.7704 41.2466 23.3828 41.6343 23.3828 42.1126C23.3828 42.5908 23.7705 42.9786 24.2488 42.9786Z" fill="#CB1717"/>
<path d="M16.9596 30.3668C17.438 30.3668 17.8256 29.979 17.8256 29.5008C17.8256 29.0225 17.438 28.6348 16.9596 28.6348H16.2019C15.7236 28.6348 15.3359 29.0225 15.3359 29.5008C15.3359 29.979 15.7236 30.3668 16.2019 30.3668H16.9596Z" fill="#CB1717"/>
<path d="M38.1013 38.4265C37.623 38.4265 37.2354 38.8142 37.2354 39.2925C37.2354 39.7708 37.623 40.1585 38.1013 40.1585H39.2657C39.7441 40.1585 40.1317 39.7708 40.1317 39.2925C40.1317 38.8142 39.7441 38.4265 39.2657 38.4265H38.1013Z" fill="#CB1717"/>
</g>
<defs>
<clipPath id="clip0">
<rect width="59" height="59" fill="white"/>
</clipPath>
</defs>
</svg>
