<svg width="11" height="11" viewBox="0 0 11 11" fill="none" xmlns="http://www.w3.org/2000/svg">
<g clip-path="url(#clip0)">
<path d="M0.53721 11.0001C0.430965 11.0001 0.327101 10.9686 0.238755 10.9096C0.15041 10.8506 0.0815517 10.7667 0.0408909 10.6685C0.00023008 10.5704 -0.0104066 10.4624 0.0103261 10.3581C0.0310589 10.2539 0.0822297 10.1582 0.157366 10.0831L10.0831 0.157336C10.1839 0.0565956 10.3205 0 10.463 0C10.6055 0 10.7421 0.0565956 10.8428 0.157336C10.9436 0.258077 11.0002 0.394711 11.0002 0.53718C11.0002 0.679649 10.9436 0.816283 10.8428 0.917024L0.917054 10.8428C0.867218 10.8927 0.808007 10.9323 0.742821 10.9593C0.677636 10.9863 0.607761 11.0002 0.53721 11.0001Z" fill="#D40000"/>
<path d="M10.463 11.0001C10.3924 11.0002 10.3225 10.9863 10.2573 10.9593C10.1922 10.9323 10.133 10.8927 10.0831 10.8428L0.157336 0.917024C0.0565956 0.816283 0 0.679649 0 0.53718C0 0.394711 0.0565956 0.258077 0.157336 0.157336C0.258077 0.0565956 0.394711 0 0.53718 0C0.679649 0 0.816283 0.0565956 0.917024 0.157336L10.8428 10.0831C10.9179 10.1582 10.9691 10.2539 10.9898 10.3581C11.0106 10.4624 10.9999 10.5704 10.9593 10.6685C10.9186 10.7667 10.8498 10.8506 10.7614 10.9096C10.6731 10.9686 10.5692 11.0001 10.463 11.0001Z" fill="#D40000"/>
</g>
<defs>
<clipPath id="clip0">
<rect width="11" height="11" fill="white"/>
</clipPath>
</defs>
</svg>
