<svg width="86" height="94" viewBox="0 0 86 94" fill="none" xmlns="http://www.w3.org/2000/svg">
<g clip-path="url(#clip0)">
<path d="M84.8222 15.1758C85.3171 15.2733 85.6394 15.7529 85.5425 16.2473L85.1815 18.0861C85.0817 18.5951 84.5767 18.9216 84.0671 18.7965C83.5898 18.6797 83.3004 18.1918 83.3949 17.7098L83.4049 17.6605L81.0247 17.7691C80.9531 17.772 80.8908 17.8196 80.8685 17.8883C80.636 18.5904 80.3301 19.2598 79.9597 19.8856C79.9221 19.949 79.928 20.0295 79.9755 20.0858L81.0282 21.3364C81.2372 21.1373 81.5102 21.034 81.7862 21.034C82.0187 21.034 82.2535 21.1074 82.4526 21.2601C82.9346 21.6288 83.0262 22.3186 82.6575 22.8012L82.3522 23.1999C81.994 23.6684 81.3265 23.794 80.8403 23.4588C80.4217 23.1705 80.2703 22.6521 80.4217 22.2018L78.9052 21.5354C78.8365 21.5055 78.7573 21.5231 78.7074 21.5783C78.0052 22.3491 77.1879 23.0126 76.2826 23.5422C76.2204 23.5786 76.1869 23.649 76.1986 23.7201L76.5867 26.0873L76.9225 25.9529C77.4046 25.7603 77.9529 26.0069 78.1249 26.503C78.2858 26.9674 78.0334 27.4752 77.5772 27.6572L75.861 28.3442C75.3796 28.5367 74.8312 28.2902 74.6592 27.794C74.4983 27.3296 74.7508 26.8218 75.207 26.6392L75.2534 26.621L73.869 24.6812C73.8273 24.6225 73.7539 24.5966 73.684 24.6148C72.8568 24.8291 71.989 24.9442 71.0943 24.9442C70.3862 24.9442 69.6958 24.872 69.0282 24.7358C68.9577 24.7217 68.8855 24.7516 68.8468 24.8121L67.4618 26.985L67.5105 27.0026C67.9614 27.167 68.2409 27.5927 68.2409 28.0459C68.2409 28.1727 68.2192 28.3013 68.1734 28.427C68.1734 29.0769 67.6737 29.4268 67.0631 29.2037L65.3611 28.5831C64.7916 28.3759 64.4945 27.7506 64.6912 27.1793C64.8932 26.5905 65.5642 26.2934 66.149 26.5065L66.1883 26.5206L66.4701 23.9743C66.4784 23.9027 66.4408 23.8345 66.3768 23.8011C65.2989 23.2445 64.3319 22.503 63.5175 21.6182C63.4682 21.5648 63.3913 21.5472 63.3244 21.5747L61.2472 22.4266C61.482 22.8658 61.3499 23.4224 60.9213 23.7042C60.4739 23.9984 59.8698 23.8616 59.5645 23.4224L59.0326 22.6562C58.7349 22.2282 58.8042 21.6317 59.214 21.3088C59.6508 20.9647 60.2737 21.054 60.6008 21.4867L62.0639 19.8334C62.1126 19.7782 62.1208 19.6983 62.085 19.6343C61.4844 18.5517 61.0734 17.3493 60.8967 16.0723C60.8867 16.0007 60.8344 15.9426 60.7646 15.9267L58.4267 15.3866L58.4243 15.6607C58.422 15.9349 58.3093 16.1833 58.1278 16.3623C57.947 16.542 57.6981 16.6524 57.4233 16.6524C56.8773 16.6524 56.4352 16.2068 56.4405 15.6607L56.4557 13.9622C56.4604 13.4068 56.9196 12.9389 57.4744 12.9536C58.0128 12.9677 58.4425 13.4103 58.4396 13.9505L60.7605 13.4062C60.8309 13.3898 60.8832 13.3317 60.8926 13.26C61.0746 11.9097 61.519 10.6421 62.1725 9.51014C62.2089 9.44673 62.2024 9.36747 62.1549 9.31111L61.0481 8.01124L60.9519 8.13805C60.6536 8.53259 60.0841 8.60129 59.6995 8.28131C59.3391 7.98071 59.295 7.44174 59.578 7.06774L60.3154 6.09314C60.4869 5.8671 60.747 5.74791 61.0106 5.74791C61.1932 5.74791 61.3775 5.80545 61.5349 5.92405C61.8995 6.1994 61.9852 6.7055 61.7445 7.08477L63.2921 7.75408C63.3602 7.78344 63.4389 7.76582 63.4894 7.71122C64.2197 6.9104 65.0752 6.22582 66.0251 5.68744C66.0873 5.65163 66.122 5.58176 66.1114 5.51072L65.755 3.13819L65.4169 3.26853C64.9331 3.45464 64.3877 3.20042 64.2227 2.70255C64.0677 2.2358 64.3272 1.73146 64.7857 1.55533L66.5107 0.891892C66.995 0.705777 67.5399 0.95941 67.7048 1.45787C67.8598 1.92404 67.6009 2.42837 67.1418 2.60509L67.0954 2.6227L68.4528 4.58014C68.4939 4.63944 68.5667 4.66645 68.6366 4.64942C69.4245 4.45626 70.2471 4.3541 71.0943 4.3541H71.0954C71.1694 4.3541 71.2358 4.3089 71.2604 4.23903L71.7101 2.98143C71.1894 2.81821 70.8424 2.30449 70.9087 1.74438C70.9845 1.10971 71.5921 0.658807 72.2268 0.738655L72.8444 0.816154C73.4738 0.895414 73.9459 1.45904 73.8772 2.09019C73.8232 2.58161 73.4697 2.9644 73.0212 3.08183L73.1773 4.44511C73.1856 4.5185 73.2402 4.57838 73.313 4.59423C74.3568 4.82379 75.3414 5.21188 76.2397 5.73147C76.3025 5.76729 76.38 5.762 76.4358 5.71621L78.2987 4.20439L78.0157 3.97952C77.6089 3.65661 77.5513 3.05834 77.8966 2.66322C78.2195 2.29275 78.786 2.25987 79.1706 2.56575L80.6178 3.71474C81.0247 4.03706 81.0822 4.63592 80.737 5.03105C80.4141 5.40093 79.8475 5.43381 79.463 5.12851L79.4236 5.09739L78.4261 7.26325C78.3956 7.32842 78.4097 7.40534 78.4602 7.457C79.1624 8.17622 79.7601 8.99818 80.2286 9.89764C80.2626 9.9628 80.3337 9.99979 80.4065 9.98981L81.8208 9.79195C81.613 9.21189 81.9212 8.569 82.5142 8.37466C83.0796 8.18913 83.689 8.50324 83.8969 9.061L84.2227 9.93462C84.4282 10.4871 84.1816 11.1194 83.6415 11.3543C83.1236 11.5791 82.5395 11.376 82.2612 10.9169L81.0875 11.713C81.0259 11.7547 80.9983 11.831 81.0182 11.9026C81.2595 12.7774 81.3887 13.698 81.3887 14.6491C81.3887 14.8083 81.3852 14.9662 81.3776 15.1229C81.3746 15.1952 81.4151 15.2615 81.4809 15.2903L83.6814 16.2514L83.7507 15.8962C83.8481 15.4012 84.3278 15.0789 84.8222 15.1758Z" fill="#FF6969"/>
<path d="M75.5658 10.7967C76.3685 10.7967 77.0192 10.2527 77.0192 9.58148C77.0192 8.9103 76.3685 8.36621 75.5658 8.36621C74.763 8.36621 74.1123 8.9103 74.1123 9.58148C74.1123 10.2527 74.763 10.7967 75.5658 10.7967Z" fill="#EE6161"/>
<path d="M70.3182 18.7369C71.1956 18.7369 71.9068 18.0256 71.9068 17.1482C71.9068 16.2708 71.1956 15.5596 70.3182 15.5596C69.4408 15.5596 68.7295 16.2708 68.7295 17.1482C68.7295 18.0256 69.4408 18.7369 70.3182 18.7369Z" fill="#EE6161"/>
<path d="M76.5115 17.4583C77.1397 17.4583 77.649 16.949 77.649 16.3208C77.649 15.6926 77.1397 15.1833 76.5115 15.1833C75.8833 15.1833 75.374 15.6926 75.374 16.3208C75.374 16.949 75.8833 17.4583 76.5115 17.4583Z" fill="#FF6969"/>
<path d="M72.3119 22.9784C72.9227 22.9784 73.4178 22.4833 73.4178 21.8725C73.4178 21.2617 72.9227 20.7666 72.3119 20.7666C71.7012 20.7666 71.2061 21.2617 71.2061 21.8725C71.2061 22.4833 71.7012 22.9784 72.3119 22.9784Z" fill="#FF6969"/>
<path d="M64.8335 14.1558C64.8335 10.1982 66.7215 6.68075 69.6447 4.45506C69.3034 4.50321 68.9664 4.56826 68.6366 4.64916C68.5667 4.66619 68.4939 4.63918 68.4528 4.57988L67.0954 2.62245L67.1418 2.60483C67.6009 2.42811 67.8598 1.92378 67.7048 1.45761C67.5399 0.959153 66.995 0.705519 66.5107 0.891634L64.7857 1.55507C64.3272 1.73121 64.0677 2.23554 64.2227 2.70229C64.3877 3.20017 64.9331 3.45439 65.4169 3.26827L65.755 3.13793L66.1114 5.51046C66.122 5.5815 66.0873 5.65137 66.0251 5.68718C65.0752 6.22556 64.2197 6.91014 63.4894 7.71096C63.4389 7.76556 63.3602 7.78318 63.2921 7.75382L61.7445 7.08451C61.9852 6.70524 61.8995 6.19914 61.5349 5.92379C61.3775 5.80519 61.1932 5.74765 61.0106 5.74765C60.747 5.74765 60.4869 5.86684 60.3154 6.09288L59.578 7.06749C59.295 7.44148 59.3391 7.98045 59.6995 8.28105C60.0841 8.60103 60.6536 8.53234 60.9519 8.13779L61.0481 8.01098L62.1549 9.31085C62.2024 9.36721 62.2089 9.44647 62.1725 9.50988C61.519 10.6418 61.0746 11.9094 60.8926 13.2598C60.8832 13.3314 60.8309 13.3895 60.7605 13.406L58.4396 13.9502C58.4425 13.4101 58.0128 12.9674 57.4744 12.9533C56.9196 12.9386 56.4604 13.4066 56.4557 13.962L56.4405 15.6605C56.4352 16.2065 56.8773 16.6521 57.4233 16.6521C57.6981 16.6521 57.947 16.5417 58.1278 16.3621C58.3093 16.183 58.422 15.9347 58.4243 15.6605L58.4267 15.3863L60.7646 15.9264C60.8344 15.9423 60.8867 16.0004 60.8967 16.0721C61.0734 17.349 61.4844 18.5514 62.085 19.6341C62.1208 19.6981 62.1126 19.7779 62.0639 19.8331L60.6008 21.4864C60.2737 21.0537 59.6508 20.9645 59.214 21.3085C58.8042 21.6314 58.7349 22.2279 59.0326 22.656L59.5645 23.4221C59.8698 23.8613 60.4739 23.9981 60.9213 23.7039C61.3499 23.4221 61.482 22.8655 61.2472 22.4264L63.3244 21.5745C63.3913 21.5469 63.4682 21.5645 63.5175 21.6179C64.3319 22.5027 65.2989 23.2442 66.3768 23.8008C66.4408 23.8343 66.4784 23.9024 66.4701 23.974L66.1883 26.5203L66.149 26.5062C65.5642 26.2931 64.8932 26.5902 64.6912 27.1791C64.4945 27.7503 64.7916 28.3756 65.3611 28.5829L67.0631 29.2034C67.6737 29.4265 68.1734 29.0766 68.1734 28.4267C68.2192 28.3011 68.2409 28.1725 68.2409 28.0457C68.2409 27.5924 67.9614 27.1667 67.5105 27.0024L67.4618 26.9847L68.8468 24.8118C68.8855 24.7514 68.9577 24.7214 69.0282 24.7355C69.6957 24.8717 70.3862 24.9439 71.0943 24.9439C71.1776 24.9439 71.2622 24.9429 71.3451 24.9409C67.4743 22.8998 64.8335 18.8358 64.8335 14.1558Z" fill="#F37C7C"/>
<path d="M65.3903 20.3788C66.0266 20.3788 66.5424 19.863 66.5424 19.2267C66.5424 18.5905 66.0266 18.0747 65.3903 18.0747C64.7541 18.0747 64.2383 18.5905 64.2383 19.2267C64.2383 19.863 64.7541 20.3788 65.3903 20.3788Z" fill="#EE6161"/>
<path d="M69.2486 12.7811C70.5634 11.7443 70.9274 10.0137 70.0615 8.91564C69.1956 7.81758 67.4279 7.76789 66.1131 8.80466C64.7983 9.84142 64.4343 11.572 65.3002 12.6701C66.1661 13.7682 67.9338 13.8178 69.2486 12.7811Z" fill="#EE6161"/>
<path d="M84.9086 14.7433C84.5538 14.6738 84.1934 14.7465 83.8934 14.9481C83.6449 15.115 83.4626 15.3539 83.3677 15.6326L81.826 14.9593C81.8292 14.8538 81.8308 14.7498 81.8308 14.6486C81.8308 13.7421 81.7173 12.8421 81.4934 11.9701L82.1849 11.501C82.6233 11.885 83.2603 11.9997 83.8181 11.7574C84.5686 11.4313 84.9281 10.5628 84.6364 9.78016L84.3109 8.90647C84.0157 8.11428 83.1667 7.6969 82.3782 7.9557C81.9791 8.08674 81.6579 8.36633 81.4739 8.7429C81.3693 8.95708 81.3165 9.18682 81.3164 9.41767L80.5318 9.52723C80.4243 9.33019 80.3069 9.13051 80.1815 8.9316C80.0518 8.72588 79.7798 8.66429 79.5742 8.79392C79.3684 8.92362 79.3067 9.19551 79.4364 9.40123C79.5844 9.63602 79.7201 9.87128 79.8395 10.1006C79.9595 10.3305 80.2124 10.4609 80.4684 10.4252L81.8832 10.2277C82.0145 10.2094 82.1306 10.1329 82.1991 10.0195C82.2677 9.90603 82.2816 9.76771 82.2368 9.64295C82.1761 9.47362 82.1862 9.29133 82.2651 9.12963C82.3439 8.96841 82.4816 8.8487 82.6529 8.79245C82.9851 8.68349 83.3584 8.8726 83.4856 9.21406L83.8112 10.0877C83.9372 10.4259 83.7828 10.8126 83.4671 10.9499C83.1648 11.0811 82.8089 10.9686 82.6388 10.6881C82.5763 10.585 82.4741 10.512 82.3563 10.4863C82.2384 10.4605 82.1151 10.4844 82.0152 10.5521L80.8417 11.348C80.624 11.4956 80.5249 11.7655 80.5951 12.0196C80.8307 12.8725 80.9501 13.7571 80.9501 14.6486C80.9501 14.7947 80.9464 14.9473 80.9393 15.1024C80.9276 15.355 81.0751 15.5925 81.3063 15.6935L83.5064 16.6542C83.6287 16.7077 83.7687 16.7027 83.8869 16.6408C84.0052 16.5788 84.0889 16.4666 84.1147 16.3355L84.1844 15.9803C84.2087 15.8565 84.2798 15.7495 84.3846 15.6791C84.4892 15.6087 84.6151 15.5833 84.739 15.6077C84.9947 15.6578 85.1619 15.9066 85.1118 16.1623L84.751 18.0009C84.7258 18.1289 84.6515 18.2381 84.5414 18.3083C84.4315 18.3784 84.3008 18.3997 84.1735 18.3686C83.9328 18.3095 83.7781 18.0517 83.8286 17.7938L83.8382 17.7447C83.8642 17.612 83.8279 17.4748 83.7396 17.3725C83.6514 17.27 83.52 17.2134 83.3861 17.2201L81.0062 17.3286C80.7543 17.3401 80.5315 17.509 80.4519 17.7493C80.2314 18.415 79.9388 19.0581 79.5821 19.6609C79.4492 19.8853 79.4725 20.1698 79.64 20.3688L80.6928 21.6195C80.771 21.7125 80.8842 21.7689 81.0054 21.7757C81.1266 21.7822 81.2453 21.7387 81.3332 21.655C81.5692 21.4306 81.928 21.4114 82.1863 21.609C82.3261 21.716 82.4158 21.871 82.4391 22.0455C82.4623 22.22 82.4161 22.3931 82.3092 22.5329L82.0042 22.9316C81.785 23.2179 81.3757 23.2915 81.0917 23.0958C80.8503 22.9295 80.7471 22.6195 80.8407 22.342C80.9136 22.1259 80.8094 21.8899 80.6005 21.7981L79.0839 21.132C78.8427 21.0259 78.5611 21.0859 78.3831 21.2812C77.7069 22.0238 76.926 22.6564 76.062 23.1617C75.8438 23.2891 75.7247 23.5419 75.7654 23.7906L76.1537 26.1581C76.1753 26.2899 76.2555 26.4047 76.3718 26.4703C76.4881 26.536 76.6278 26.5453 76.7518 26.4957L77.0878 26.3613C77.2089 26.3128 77.341 26.316 77.4597 26.3702C77.5784 26.4244 77.6673 26.5225 77.7102 26.6465C77.7914 26.8807 77.6589 27.1507 77.4149 27.2483L75.6992 27.9346C75.5781 27.9831 75.446 27.9799 75.3273 27.9257C75.2087 27.8715 75.1197 27.7734 75.0767 27.6495C74.9956 27.4153 75.1281 27.1453 75.3719 27.0477L75.4183 27.0292C75.5438 26.979 75.6393 26.8739 75.6774 26.7442C75.7153 26.6145 75.6917 26.4746 75.6132 26.3645L74.2291 24.4252C74.0826 24.2199 73.8197 24.1246 73.5752 24.188C72.7682 24.3972 71.934 24.5033 71.0956 24.5033C70.4317 24.5033 69.7662 24.4362 69.1177 24.304C68.8701 24.2536 68.6129 24.3624 68.4771 24.575L67.0916 26.7478C67.0198 26.8604 67.003 26.9994 67.046 27.1259C67.0888 27.2524 67.1867 27.3525 67.3122 27.3983L67.3612 27.4162C67.5294 27.4775 67.6637 27.6007 67.7392 27.763C67.8148 27.9253 67.8226 28.1073 67.7613 28.2755C67.7436 28.3239 67.7346 28.3749 67.7346 28.4264C67.7346 28.5929 67.6855 28.7191 67.5963 28.7815C67.5071 28.844 67.3718 28.847 67.2152 28.7899L65.5133 28.1693C65.1725 28.045 64.9911 27.665 65.1088 27.3221C65.165 27.1587 65.2859 27.0257 65.4494 26.9478C65.622 26.8654 65.8228 26.8552 65.9999 26.9198L66.0389 26.934C66.1658 26.9804 66.307 26.9657 66.4219 26.8945C66.5368 26.8232 66.6125 26.7031 66.6273 26.5688L66.9094 24.0223C66.9372 23.7717 66.8049 23.5256 66.5804 23.4097C65.5509 22.878 64.6298 22.1747 63.8429 21.3197C63.6697 21.1314 63.3947 21.0699 63.1586 21.1668L61.0816 22.0185C60.9664 22.0658 60.8766 22.1596 60.8344 22.2768C60.7922 22.394 60.8016 22.5236 60.8603 22.6334C60.9921 22.88 60.9149 23.1821 60.6808 23.336C60.4394 23.4948 60.1015 23.4206 59.9277 23.1705L59.3957 22.4047C59.2251 22.1591 59.2657 21.8294 59.4882 21.6541C59.6032 21.5635 59.7459 21.5238 59.8897 21.5423C60.0347 21.561 60.1629 21.6353 60.2509 21.7516C60.3305 21.857 60.4533 21.921 60.5852 21.9261C60.7168 21.9312 60.8444 21.8768 60.9319 21.7779L62.3948 20.1245C62.5665 19.9304 62.5972 19.6474 62.4713 19.42C62.314 19.1363 62.1677 18.8376 62.0365 18.532C61.9405 18.3086 61.6816 18.2052 61.4581 18.3012C61.2346 18.3972 61.1313 18.6561 61.2272 18.8796C61.3448 19.1533 61.4736 19.4222 61.6111 19.6811L60.5633 20.8655C60.3948 20.7622 60.2047 20.6948 60.0022 20.6687C59.6214 20.6198 59.2455 20.7241 58.9431 20.9623C58.3554 21.4254 58.2366 22.2797 58.6725 22.9071L59.2045 23.6728C59.6484 24.3118 60.5277 24.4907 61.1648 24.0717C61.6412 23.7584 61.8708 23.2119 61.7907 22.6795L63.3219 22.0515C64.1083 22.8772 65.0124 23.5674 66.014 24.1064L65.8046 25.9979C65.5532 25.9907 65.3002 26.043 65.0702 26.1527C64.6916 26.3333 64.4095 26.6469 64.2759 27.0358C64.0034 27.8294 64.4231 28.709 65.2116 28.9965L66.9136 29.6171C67.0844 29.6794 67.256 29.7102 67.4212 29.7102C67.6702 29.7102 67.9049 29.6403 68.1012 29.5029C68.4094 29.2873 68.5936 28.9259 68.6136 28.5034C68.7277 28.1352 68.7016 27.743 68.5376 27.3911C68.4326 27.1654 68.2785 26.9724 68.0878 26.8235L69.1218 25.2018C70.6066 25.4781 72.1549 25.4374 73.6181 25.0848L74.6228 26.4926C74.2274 26.8506 74.0631 27.4138 74.2446 27.9377C74.3672 28.2913 74.6217 28.5715 74.9614 28.7267C75.2964 28.8796 75.6844 28.8889 76.0263 28.7522L77.742 28.0659C78.4275 27.7916 78.7791 27.0415 78.5424 26.3581C78.4199 26.0045 78.1653 25.7243 77.8256 25.5691C77.5469 25.4418 77.2313 25.4139 76.9362 25.4871L76.6641 23.828C77.4883 23.327 78.2404 22.7182 78.9039 22.0148L79.9285 22.4649C79.8999 22.9912 80.1439 23.5123 80.592 23.821C81.2677 24.2867 82.1953 24.131 82.7036 23.4668L83.0087 23.0681C83.2586 22.7415 83.3664 22.3371 83.3121 21.9294C83.2579 21.5217 83.0482 21.1595 82.7215 20.9095C82.2449 20.5449 81.6228 20.4958 81.1106 20.7482L80.4349 19.9455C80.7507 19.3895 81.017 18.8039 81.2287 18.2L82.9558 18.1212C83.0415 18.6477 83.4251 19.0915 83.9636 19.2238C84.327 19.3131 84.7006 19.2514 85.0154 19.0505C85.3257 18.8524 85.5443 18.5316 85.6152 18.1704L85.976 16.3317C86.1196 15.5995 85.6408 14.887 84.9086 14.7433Z" fill="#CB1717"/>
<path d="M58.8371 15.9333L60.4875 16.3146C60.5235 16.5441 60.5679 16.7771 60.6202 17.0095C60.6661 17.2143 60.8479 17.3535 61.0494 17.3534C61.0814 17.3534 61.1138 17.3499 61.1463 17.3426C61.3835 17.2893 61.5327 17.0538 61.4794 16.8165C61.4188 16.5462 61.3695 16.2755 61.3331 16.0119C61.2984 15.761 61.1097 15.5542 60.8637 15.4975L58.5261 14.9576C58.3961 14.9276 58.2592 14.9582 58.1544 15.0408C58.0496 15.1235 57.9878 15.2492 57.9867 15.3827L57.9843 15.6564C57.9815 15.9628 57.73 16.212 57.4236 16.212C57.2777 16.212 57.1408 16.155 57.0381 16.0513C56.9353 15.9477 56.8795 15.8103 56.8808 15.6644L56.8961 13.9662C56.8974 13.8105 56.9636 13.6582 57.0775 13.5482C57.1846 13.4449 57.3199 13.3895 57.4629 13.3937C57.7603 13.4016 58.0011 13.6503 57.9994 13.9481C57.9987 14.083 58.0598 14.2108 58.1653 14.2949C58.2708 14.379 58.4091 14.4101 58.5403 14.3792L60.8614 13.835C61.1073 13.7773 61.2952 13.57 61.3291 13.3191C61.5003 12.049 61.9124 10.8416 62.5538 9.7303C62.6832 9.50591 62.6578 9.2228 62.4901 9.02577L61.3832 7.72578C61.2967 7.62421 61.1695 7.56714 61.0353 7.57107C60.9018 7.57495 60.7773 7.63912 60.6967 7.74556L60.6008 7.87238C60.5291 7.96714 60.4246 8.02673 60.3065 8.0403C60.1888 8.0538 60.073 8.01916 59.9813 7.94272C59.8078 7.79823 59.7845 7.52499 59.9292 7.33364L60.6665 6.3588C60.8096 6.16957 61.0801 6.132 61.2693 6.2752C61.4465 6.40918 61.4919 6.66087 61.3727 6.84822C61.3035 6.95701 61.2855 7.09058 61.3234 7.21382C61.3612 7.33705 61.4512 7.43751 61.5694 7.48864L63.1172 8.15807C63.3572 8.26193 63.6373 8.20169 63.8143 8.00795C64.5189 7.23607 65.3357 6.58414 66.2422 6.07029C66.4618 5.94571 66.5842 5.69466 66.5469 5.44537L66.1903 3.07296C66.1705 2.94092 66.0917 2.82502 65.9764 2.75786C65.8609 2.69063 65.7211 2.67948 65.5967 2.72738L65.259 2.85731C65.1372 2.90405 65.0052 2.89917 64.8873 2.8434C64.7694 2.78768 64.6818 2.6884 64.6405 2.56387C64.5625 2.32856 64.6985 2.06042 64.9439 1.96607L66.6686 1.30269C66.7903 1.25584 66.9223 1.26083 67.0403 1.31661C67.1582 1.37233 67.2458 1.47161 67.2871 1.59613C67.3651 1.83145 67.229 2.09958 66.9837 2.19399L66.9371 2.21196C66.8109 2.26051 66.7141 2.36425 66.6743 2.49342C66.6346 2.62258 66.6564 2.76285 66.7334 2.87387L68.0912 4.83119C68.2348 5.03821 68.4961 5.13702 68.7415 5.07696C69.5067 4.88955 70.2983 4.7945 71.0951 4.7945H71.0953C71.3551 4.7945 71.5881 4.63075 71.6749 4.38727L72.1244 3.12932C72.1648 3.01648 72.1574 2.89201 72.1039 2.7848C72.0505 2.67754 71.9556 2.59663 71.8412 2.56088C71.5138 2.45849 71.3056 2.13698 71.346 1.79646C71.3675 1.61527 71.4627 1.45035 71.6139 1.33205C71.7728 1.20782 71.976 1.15069 72.1718 1.17541L72.7892 1.25314C73.1893 1.30352 73.4808 1.65749 73.439 2.04216C73.4066 2.33913 73.1987 2.57996 72.9094 2.6557C72.6974 2.71118 72.5584 2.91409 72.5834 3.13179L72.7396 4.49495C72.7694 4.7551 72.9616 4.96775 73.2181 5.02417C74.2016 5.24023 75.1441 5.60642 76.0191 6.11239C76.2383 6.23921 76.5172 6.21737 76.7132 6.05826L78.5761 4.54615C78.6797 4.46201 78.7396 4.33537 78.7389 4.20186C78.7381 4.06841 78.6769 3.94242 78.5724 3.8594L78.289 3.63436C78.1868 3.55328 78.124 3.43703 78.1121 3.30698C78.1003 3.17717 78.1413 3.0513 78.2277 2.95248C78.3907 2.76572 78.6908 2.74682 78.8967 2.91021L80.344 4.05925C80.4461 4.14033 80.509 4.25658 80.5208 4.38657C80.5326 4.51638 80.4916 4.64226 80.4053 4.74113C80.2422 4.92777 79.9419 4.94668 79.7363 4.78346L79.6973 4.75246C79.5914 4.66832 79.4527 4.63756 79.3213 4.66891C79.1898 4.70026 79.08 4.79027 79.0235 4.91303L78.0257 7.07901C77.9202 7.30811 77.968 7.58358 78.1446 7.76447C78.2072 7.82858 78.269 7.89493 78.3426 7.97483C78.5072 8.15378 78.7858 8.16529 78.9648 8.00055C79.1437 7.8358 79.1552 7.55728 78.9905 7.37832C78.9594 7.34445 78.9301 7.31274 78.9017 7.28239L79.6263 5.70928C80.1333 5.87508 80.7038 5.73822 81.0685 5.32061C81.3148 5.03873 81.4317 4.67866 81.3978 4.30672C81.3644 3.94001 81.1798 3.59849 80.8915 3.36963L79.4443 2.22065C78.866 1.76158 78.0403 1.82845 77.5644 2.37324C77.3182 2.65511 77.2012 3.01519 77.2351 3.38712C77.263 3.69231 77.3954 3.98011 77.6053 4.19998L76.3004 5.25943C75.4479 4.78569 74.5388 4.43219 73.5933 4.20668L73.4966 3.362C73.9441 3.11447 74.2581 2.65863 74.3148 2.13757C74.4084 1.27815 73.7734 0.489483 72.8995 0.379399L72.2821 0.301665C71.8555 0.248003 71.4141 0.37071 71.0718 0.638375C70.7343 0.902282 70.5212 1.27669 70.4718 1.69266C70.4 2.29738 70.679 2.87522 71.1635 3.20201L70.9085 3.91541C70.1665 3.92809 69.4291 4.01669 68.7111 4.17938L67.7257 2.7588C68.1258 2.40629 68.2976 1.8453 68.1232 1.31902C68.0054 0.963753 67.7545 0.680177 67.417 0.520482C67.0841 0.363077 66.6962 0.348575 66.3526 0.480735L64.6279 1.14406C63.9387 1.40908 63.5771 2.15448 63.8047 2.84099C63.9225 3.19625 64.1733 3.47983 64.5109 3.63952C64.7879 3.77051 65.1029 3.80263 65.3992 3.7334L65.649 5.39599C64.7796 5.9086 63.9886 6.53952 63.2936 7.2747L62.2994 6.84476C62.3802 6.37407 62.2004 5.87508 61.8007 5.57271C61.5214 5.36147 61.1767 5.27147 60.8297 5.31979C60.4828 5.36787 60.1755 5.54823 59.9643 5.82752L59.227 6.80237C58.7955 7.37269 58.8793 8.17081 59.4176 8.61931C59.6962 8.85139 60.0475 8.95654 60.4071 8.91521C60.6337 8.8892 60.8491 8.80354 61.0312 8.67068L61.6982 9.45418C61.0819 10.566 60.6734 11.7637 60.4824 13.0193L58.7785 13.4188C58.5717 12.9027 58.0712 12.5288 57.4862 12.5133C57.1054 12.5038 56.7445 12.6458 56.4659 12.9145C56.1832 13.1874 56.0189 13.5678 56.0153 13.9582L56.0001 15.6565C55.9967 16.0391 56.1431 16.3996 56.4124 16.6713C56.6818 16.9431 57.0409 17.0928 57.4236 17.0928C58.1193 17.0928 58.705 16.5929 58.8371 15.9333Z" fill="#CB1717"/>
<path d="M68.9148 13.5294C69.1296 13.4155 69.2115 13.149 69.0976 12.9341C68.9838 12.7193 68.7174 12.6372 68.5023 12.7513C67.45 13.309 66.2506 13.1616 65.6508 12.4005C65.3142 11.9735 65.1984 11.4077 65.3247 10.8074C65.4572 10.1779 65.836 9.59012 66.3913 9.15243C66.9466 8.71468 67.6066 8.48394 68.2496 8.50179C68.8628 8.51911 69.3859 8.76382 69.7225 9.19083C70.2279 9.83201 70.2215 10.7891 69.7061 11.6291C69.579 11.8364 69.6438 12.1075 69.8512 12.2347C70.0585 12.3618 70.3296 12.2969 70.4568 12.0896C71.1673 10.9316 71.1505 9.57979 70.4141 8.64563C69.9131 8.01002 69.1532 7.64631 68.2745 7.62153C67.4253 7.59687 66.5631 7.8956 65.8462 8.46081C65.129 9.02602 64.6379 9.79503 64.4629 10.626C64.2818 11.4863 64.4581 12.3101 64.9591 12.9457C65.4866 13.6148 66.3126 13.9669 67.2013 13.9668C67.7674 13.9668 68.3589 13.824 68.9148 13.5294Z" fill="#CB1717"/>
<path d="M77.4585 9.58065C77.4585 8.66775 76.609 7.92505 75.5648 7.92505C74.5205 7.92505 73.6709 8.66775 73.6709 9.58065C73.6709 10.4936 74.5205 11.2363 75.5648 11.2363C76.609 11.2363 77.4585 10.4936 77.4585 9.58065ZM74.5516 9.58065C74.5516 9.15335 75.0061 8.80572 75.5648 8.80572C76.1234 8.80572 76.5779 9.15335 76.5779 9.58065C76.5779 10.008 76.1234 10.3556 75.5648 10.3556C75.0061 10.3556 74.5516 10.008 74.5516 9.58065Z" fill="#CB1717"/>
<path d="M72.3471 17.1484C72.3471 16.0296 71.4369 15.1194 70.3181 15.1194C69.1993 15.1194 68.2891 16.0296 68.2891 17.1484C68.2891 18.2672 69.1993 19.1774 70.3181 19.1774C71.4369 19.1774 72.3471 18.2672 72.3471 17.1484ZM69.1698 17.1484C69.1698 16.5152 69.6849 16.0001 70.3182 16.0001C70.9513 16.0001 71.4665 16.5152 71.4665 17.1484C71.4665 17.7816 70.9514 18.2967 70.3182 18.2967C69.6849 18.2967 69.1698 17.7816 69.1698 17.1484Z" fill="#CB1717"/>
<path d="M78.0893 16.3208C78.0893 15.4507 77.3814 14.7429 76.5114 14.7429C75.6414 14.7429 74.9336 15.4507 74.9336 16.3208C74.9336 17.1908 75.6414 17.8987 76.5114 17.8987C77.3814 17.8986 78.0893 17.1908 78.0893 16.3208ZM75.8142 16.3208C75.8142 15.9363 76.127 15.6236 76.5113 15.6236C76.8958 15.6236 77.2085 15.9363 77.2085 16.3208C77.2085 16.7052 76.8958 17.018 76.5113 17.018C76.127 17.0179 75.8142 16.7052 75.8142 16.3208Z" fill="#CB1717"/>
<path d="M72.3119 23.4189C73.1645 23.4189 73.8581 22.7252 73.8581 21.8726C73.8581 21.0201 73.1645 20.3264 72.3119 20.3264C71.4593 20.3264 70.7656 21.02 70.7656 21.8726C70.7656 22.7252 71.4592 23.4189 72.3119 23.4189ZM72.3119 21.2071C72.6789 21.2071 72.9775 21.5056 72.9775 21.8726C72.9775 22.2396 72.6789 22.5382 72.3119 22.5382C71.9449 22.5382 71.6463 22.2396 71.6463 21.8726C71.6463 21.5056 71.9449 21.2071 72.3119 21.2071Z" fill="#CB1717"/>
<path d="M65.3892 20.8198C66.2673 20.8198 66.9816 20.1054 66.9816 19.2274C66.9816 18.3494 66.2673 17.635 65.3892 17.635C64.5112 17.635 63.7969 18.3494 63.7969 19.2274C63.7969 20.1054 64.5112 20.8198 65.3892 20.8198ZM65.3892 18.5157C65.7817 18.5157 66.1009 18.835 66.1009 19.2274C66.1009 19.6198 65.7817 19.9391 65.3892 19.9391C64.9968 19.9391 64.6775 19.6198 64.6775 19.2274C64.6775 18.835 64.9968 18.5157 65.3892 18.5157Z" fill="#CB1717"/>
<path d="M74.3568 13.716C74.3568 13.4728 74.1597 13.2756 73.9165 13.2756H73.5272C73.284 13.2756 73.0869 13.4728 73.0869 13.716C73.0869 13.9592 73.284 14.1563 73.5272 14.1563H73.9165C74.1597 14.1563 74.3568 13.9592 74.3568 13.716Z" fill="#CB1717"/>
<path d="M68.33 21.8531H68.7299C68.9732 21.8531 69.1703 21.6559 69.1703 21.4127C69.1703 21.1696 68.9732 20.9724 68.7299 20.9724H68.33C68.0867 20.9724 67.8896 21.1696 67.8896 21.4127C67.8896 21.6559 68.0868 21.8531 68.33 21.8531Z" fill="#CB1717"/>
<path d="M64.6225 15.4415C64.8657 15.4415 65.0628 15.2443 65.0628 15.0011C65.0628 14.7579 64.8657 14.5608 64.6225 14.5608H64.2372C63.994 14.5608 63.7969 14.7579 63.7969 15.0011C63.7969 15.2443 63.994 15.4415 64.2372 15.4415H64.6225Z" fill="#CB1717"/>
<path d="M75.3739 19.5391C75.1307 19.5391 74.9336 19.7362 74.9336 19.9794C74.9336 20.2226 75.1307 20.4197 75.3739 20.4197H75.966C76.2092 20.4197 76.4063 20.2226 76.4063 19.9794C76.4063 19.7362 76.2092 19.5391 75.966 19.5391H75.3739Z" fill="#CB1717"/>
</g>
<g clip-path="url(#clip1)">
<path d="M24.0186 25.647C24.4311 25.7282 24.6997 26.1279 24.619 26.5399L24.3181 28.0723C24.2349 28.4964 23.8141 28.7685 23.3894 28.6643C22.9917 28.5669 22.7505 28.1603 22.8292 27.7586L22.8376 27.7175L20.8541 27.8081C20.7944 27.8105 20.7425 27.8501 20.7239 27.9074C20.5302 28.4925 20.2753 29.0503 19.9666 29.5718C19.9352 29.6247 19.9401 29.6917 19.9798 29.7387L20.857 30.7808C21.0312 30.6149 21.2587 30.5288 21.4887 30.5288C21.6824 30.5288 21.8781 30.59 22.044 30.7172C22.4457 31.0245 22.522 31.5993 22.2147 32.0015L21.9603 32.3337C21.6619 32.7242 21.1056 32.8289 20.7005 32.5495C20.3516 32.3093 20.2254 31.8772 20.3516 31.502L19.0878 30.9467C19.0306 30.9217 18.9646 30.9364 18.923 30.9824C18.3378 31.6248 17.6568 32.1776 16.9023 32.619C16.8505 32.6493 16.8226 32.708 16.8324 32.7672L17.1558 34.7399L17.4356 34.6279C17.8373 34.4674 18.2943 34.6729 18.4376 35.0863C18.5717 35.4733 18.3613 35.8965 17.9811 36.0482L16.551 36.6206C16.1498 36.7811 15.6929 36.5756 15.5495 36.1622C15.4155 35.7752 15.6258 35.352 16.006 35.1998L16.0446 35.1847L14.891 33.5681C14.8562 33.5192 14.7951 33.4977 14.7368 33.5128C14.0475 33.6914 13.3243 33.7873 12.5787 33.7873C11.9887 33.7873 11.4133 33.7271 10.857 33.6136C10.7983 33.6019 10.7381 33.6268 10.7058 33.6772L9.55165 35.488L9.59226 35.5027C9.96801 35.6397 10.2009 35.9944 10.2009 36.3721C10.2009 36.4778 10.1828 36.5849 10.1446 36.6896C10.1446 37.2312 9.72827 37.5228 9.21944 37.3369L7.80107 36.8198C7.32649 36.6471 7.07892 36.126 7.24282 35.6499C7.41113 35.1592 7.97035 34.9116 8.45766 35.0892L8.49044 35.101L8.72528 32.9791C8.73213 32.9194 8.70082 32.8626 8.64749 32.8347C7.74921 32.3709 6.94339 31.753 6.26479 31.0157C6.22369 30.9711 6.1596 30.9565 6.10382 30.9794L4.37281 31.6894C4.56852 32.0553 4.45843 32.5192 4.10127 32.754C3.72845 32.9991 3.225 32.8851 2.97059 32.5192L2.52732 31.8807C2.27926 31.524 2.33699 31.0269 2.6785 30.7578C3.04251 30.4711 3.56162 30.5455 3.83414 30.9061L5.05338 29.5283C5.09398 29.4823 5.10083 29.4158 5.07099 29.3624C4.57047 28.4602 4.22799 27.4582 4.08072 26.3941C4.07241 26.3344 4.02886 26.286 3.97064 26.2727L2.0224 25.8226L2.02044 26.0511C2.01848 26.2796 1.92455 26.4866 1.77336 26.6358C1.62267 26.7855 1.41523 26.8775 1.18625 26.8775C0.731237 26.8775 0.362823 26.5061 0.367227 26.0511L0.379947 24.6357C0.383861 24.1728 0.766464 23.7829 1.22882 23.7951C1.67747 23.8069 2.03561 24.1758 2.03316 24.6259L3.96721 24.1723C4.02593 24.1586 4.06947 24.1102 4.0773 24.0505C4.22897 22.9252 4.59934 21.8689 5.14389 20.9256C5.17422 20.8728 5.16884 20.8067 5.12921 20.7597L4.20695 19.6765L4.12671 19.7822C3.87817 20.111 3.40358 20.1682 3.08312 19.9016C2.78271 19.6511 2.74602 19.2019 2.98184 18.8903L3.59635 18.0781C3.73922 17.8897 3.95596 17.7904 4.17564 17.7904C4.3278 17.7904 4.48143 17.8384 4.61255 17.9372C4.91638 18.1667 4.98781 18.5884 4.78722 18.9045L6.07691 19.4622C6.13367 19.4867 6.19923 19.472 6.2413 19.4265C6.84994 18.7592 7.5628 18.1887 8.35442 17.74C8.40629 17.7102 8.43515 17.652 8.42635 17.5928L8.12936 15.6156L7.84755 15.7243C7.4444 15.8794 6.98987 15.6675 6.85239 15.2526C6.72323 14.8637 6.93948 14.4434 7.32159 14.2966L8.75904 13.7437C9.16269 13.5886 9.61672 13.8 9.7542 14.2154C9.88337 14.6039 9.6676 15.0241 9.285 15.1714L9.24635 15.1861L10.3775 16.8173C10.4118 16.8667 10.4724 16.8892 10.5307 16.875C11.1873 16.714 11.8727 16.6289 12.5787 16.6289H12.5797C12.6413 16.6289 12.6966 16.5912 12.7172 16.533L13.0919 15.485C12.658 15.349 12.3688 14.9209 12.4241 14.4541C12.4872 13.9252 12.9936 13.5495 13.5225 13.616L14.0372 13.6806C14.5617 13.7467 14.9551 14.2164 14.8978 14.7423C14.8528 15.1518 14.5583 15.4708 14.1845 15.5687L14.3146 16.7047C14.3215 16.7659 14.367 16.8158 14.4276 16.829C15.2975 17.0203 16.118 17.3437 16.8666 17.7767C16.919 17.8066 16.9835 17.8022 17.03 17.764L18.5824 16.5041L18.3466 16.3168C18.0076 16.0477 17.9596 15.5491 18.2473 15.2198C18.5164 14.9111 18.9885 14.8837 19.309 15.1386L20.515 16.0961C20.8541 16.3647 20.902 16.8638 20.6143 17.193C20.3453 17.5013 19.8731 17.5287 19.5526 17.2742L19.5199 17.2483L18.6886 19.0532C18.6632 19.1075 18.6749 19.1716 18.717 19.2147C19.3021 19.814 19.8002 20.499 20.1906 21.2485C20.219 21.3028 20.2782 21.3336 20.3389 21.3253L21.5175 21.1605C21.3443 20.6771 21.6012 20.1413 22.0953 19.9794C22.5665 19.8248 23.0744 20.0865 23.2476 20.5513L23.5191 21.2793C23.6903 21.7397 23.4848 22.2667 23.0347 22.4624C22.6032 22.6498 22.1164 22.4805 21.8845 22.0979L20.9064 22.7613C20.8551 22.7961 20.8321 22.8597 20.8487 22.9193C21.0498 23.6483 21.1574 24.4155 21.1574 25.2081C21.1574 25.3407 21.1545 25.4723 21.1481 25.6029C21.1457 25.6631 21.1794 25.7184 21.2342 25.7424L23.068 26.5433L23.1257 26.2473C23.2069 25.8349 23.6067 25.5663 24.0186 25.647Z" fill="#FF6969"/>
<path d="M16.304 21.9971C16.9729 21.9971 17.5152 21.5437 17.5152 20.9844C17.5152 20.4251 16.9729 19.9717 16.304 19.9717C15.6351 19.9717 15.0928 20.4251 15.0928 20.9844C15.0928 21.5437 15.6351 21.9971 16.304 21.9971Z" fill="#EE6161"/>
<path d="M11.9323 28.6143C12.6635 28.6143 13.2562 28.0216 13.2562 27.2904C13.2562 26.5593 12.6635 25.9666 11.9323 25.9666C11.2011 25.9666 10.6084 26.5593 10.6084 27.2904C10.6084 28.0216 11.2011 28.6143 11.9323 28.6143Z" fill="#EE6161"/>
<path d="M17.0934 27.5489C17.6169 27.5489 18.0413 27.1245 18.0413 26.601C18.0413 26.0775 17.6169 25.6531 17.0934 25.6531C16.5699 25.6531 16.1455 26.0775 16.1455 26.601C16.1455 27.1245 16.5699 27.5489 17.0934 27.5489Z" fill="#FF6969"/>
<path d="M13.5934 32.1488C14.1024 32.1488 14.515 31.7362 14.515 31.2272C14.515 30.7183 14.1024 30.3057 13.5934 30.3057C13.0845 30.3057 12.6719 30.7183 12.6719 31.2272C12.6719 31.7362 13.0845 32.1488 13.5934 32.1488Z" fill="#FF6969"/>
<path d="M7.36142 24.7968C7.36142 21.4988 8.93474 18.5675 11.3707 16.7128C11.0863 16.7529 10.8055 16.8071 10.5307 16.8745C10.4724 16.8887 10.4118 16.8662 10.3775 16.8168L9.24635 15.1856L9.285 15.1709C9.6676 15.0237 9.88337 14.6034 9.7542 14.2149C9.61672 13.7995 9.16268 13.5882 8.75904 13.7433L7.32159 14.2961C6.93948 14.4429 6.72322 14.8632 6.85239 15.2522C6.98987 15.667 7.4444 15.8789 7.84755 15.7238L8.12936 15.6152L8.42634 17.5923C8.43515 17.6515 8.40629 17.7097 8.35442 17.7396C7.5628 18.1882 6.84994 18.7587 6.2413 19.426C6.19923 19.4715 6.13366 19.4862 6.07691 19.4618L4.78722 18.904C4.98781 18.5879 4.91638 18.1662 4.61255 17.9367C4.48143 17.8379 4.3278 17.79 4.17564 17.79C3.95596 17.79 3.73922 17.8893 3.59635 18.0776L2.98184 18.8898C2.74602 19.2015 2.78271 19.6506 3.08312 19.9011C3.40358 20.1678 3.87817 20.1105 4.12671 19.7817L4.20695 19.6761L5.12921 20.7593C5.16884 20.8063 5.17422 20.8723 5.14389 20.9251C4.59934 21.8684 4.22897 22.9248 4.0773 24.0501C4.06947 24.1097 4.02593 24.1582 3.96721 24.1719L2.03316 24.6254C2.03561 24.1753 1.67747 23.8064 1.22882 23.7947C0.766464 23.7824 0.383861 24.1724 0.379947 24.6352L0.367227 26.0506C0.362823 26.5057 0.731237 26.877 1.18625 26.877C1.41523 26.877 1.62267 26.785 1.77336 26.6353C1.92455 26.4861 2.01848 26.2791 2.02044 26.0506L2.0224 25.8222L3.97064 26.2723C4.02886 26.2855 4.07241 26.3339 4.08072 26.3936C4.22799 27.4578 4.57047 28.4598 5.07099 29.362C5.10083 29.4153 5.09398 29.4818 5.05337 29.5278L3.83413 30.9056C3.56162 30.545 3.04251 30.4706 2.6785 30.7573C2.33699 31.0264 2.27926 31.5235 2.52732 31.8802L2.97059 32.5187C3.225 32.8847 3.72845 32.9987 4.10127 32.7535C4.45843 32.5187 4.56852 32.0549 4.37281 31.6889L6.10382 30.979C6.1596 30.956 6.22369 30.9707 6.26479 31.0152C6.94339 31.7525 7.74921 32.3704 8.64749 32.8343C8.70082 32.8622 8.73213 32.9189 8.72528 32.9786L8.49044 35.1005L8.45766 35.0888C7.97035 34.9112 7.41113 35.1587 7.24282 35.6495C7.07892 36.1255 7.32648 36.6466 7.80107 36.8193L9.21944 37.3365C9.72827 37.5224 10.1446 37.2308 10.1446 36.6892C10.1828 36.5845 10.2009 36.4773 10.2009 36.3716C10.2009 35.9939 9.96801 35.6392 9.59226 35.5022L9.55165 35.4875L10.7058 33.6768C10.7381 33.6264 10.7983 33.6014 10.857 33.6132C11.4133 33.7267 11.9887 33.7869 12.5787 33.7869C12.6481 33.7869 12.7187 33.786 12.7877 33.7844C9.56212 32.0834 7.36142 28.6968 7.36142 24.7968Z" fill="#F37C7C"/>
<path d="M7.82722 29.9816C8.35743 29.9816 8.78725 29.5518 8.78725 29.0216C8.78725 28.4913 8.35743 28.0615 7.82722 28.0615C7.29701 28.0615 6.86719 28.4913 6.86719 29.0216C6.86719 29.5518 7.29701 29.9816 7.82722 29.9816Z" fill="#EE6161"/>
<path d="M11.0421 23.6507C12.1378 22.7867 12.4411 21.3445 11.7195 20.4295C10.998 19.5144 9.52485 19.473 8.42919 20.337C7.33352 21.201 7.03024 22.6432 7.75179 23.5582C8.47334 24.4733 9.94648 24.5147 11.0421 23.6507Z" fill="#EE6161"/>
<path d="M24.0899 25.2875C23.7942 25.2296 23.4938 25.2902 23.2438 25.4581C23.0368 25.5973 22.8848 25.7964 22.8058 26.0286L21.521 25.4675C21.5237 25.3796 21.525 25.293 21.525 25.2086C21.525 24.4532 21.4304 23.7032 21.2438 22.9765L21.8201 22.5856C22.1854 22.9056 22.7163 23.0012 23.1811 22.7993C23.8065 22.5275 24.1061 21.8037 23.863 21.1516L23.5917 20.4235C23.3458 19.7633 22.6383 19.4155 21.9811 19.6312C21.6486 19.7404 21.381 19.9734 21.2276 20.2872C21.1404 20.4657 21.0964 20.6571 21.0963 20.8495L20.4425 20.9408C20.3529 20.7766 20.2551 20.6102 20.1506 20.4444C20.0425 20.273 19.8158 20.2217 19.6445 20.3297C19.473 20.4378 19.4216 20.6643 19.5297 20.8358C19.653 21.0314 19.7661 21.2275 19.8656 21.4186C19.9656 21.6102 20.1764 21.7189 20.3897 21.6891L21.5687 21.5245C21.6781 21.5093 21.7748 21.4455 21.832 21.351C21.8891 21.2565 21.9007 21.1412 21.8634 21.0372C21.8127 20.8961 21.8212 20.7442 21.887 20.6095C21.9526 20.4751 22.0674 20.3753 22.2101 20.3285C22.4869 20.2377 22.798 20.3953 22.904 20.6798L23.1753 21.4079C23.2803 21.6896 23.1517 22.0119 22.8886 22.1263C22.6367 22.2357 22.3401 22.1419 22.1984 21.9082C22.1463 21.8222 22.0611 21.7614 21.9629 21.74C21.8647 21.7185 21.7619 21.7384 21.6787 21.7948L20.7008 22.4581C20.5194 22.5811 20.4368 22.806 20.4953 23.0178C20.6916 23.7285 20.7911 24.4657 20.7911 25.2086C20.7911 25.3303 20.788 25.4575 20.7821 25.5868C20.7723 25.7972 20.8953 25.9952 21.0879 26.0793L22.9213 26.8799C23.0233 26.9245 23.14 26.9203 23.2384 26.8687C23.337 26.8171 23.4068 26.7236 23.4282 26.6144L23.4864 26.3184C23.5066 26.2152 23.5659 26.126 23.6531 26.0674C23.7404 26.0087 23.8453 25.9875 23.9485 26.0078C24.1616 26.0496 24.3009 26.257 24.2591 26.47L23.9585 28.0022C23.9376 28.1089 23.8756 28.1998 23.7839 28.2583C23.6923 28.3168 23.5834 28.3345 23.4773 28.3086C23.2767 28.2593 23.1477 28.0445 23.1899 27.8296L23.1979 27.7886C23.2195 27.6781 23.1892 27.5638 23.1157 27.4785C23.0422 27.3931 22.9327 27.346 22.8211 27.3515L20.8379 27.4419C20.6279 27.4515 20.4423 27.5923 20.3759 27.7925C20.1922 28.3472 19.9484 28.8832 19.6511 29.3855C19.5404 29.5725 19.5598 29.8096 19.6994 29.9754L20.5767 31.0177C20.6419 31.0952 20.7362 31.1422 20.8372 31.1478C20.9382 31.1533 21.0371 31.117 21.1104 31.0473C21.307 30.8602 21.606 30.8442 21.8213 31.009C21.9378 31.0981 22.0126 31.2273 22.0319 31.3727C22.0513 31.5181 22.0128 31.6623 21.9237 31.7788L21.6695 32.1111C21.4868 32.3497 21.1457 32.411 20.9091 32.248C20.7079 32.1094 20.6219 31.851 20.6999 31.6198C20.7607 31.4397 20.6738 31.243 20.4998 31.1665L19.2359 30.6114C19.0349 30.523 18.8003 30.573 18.652 30.7358C18.0884 31.3546 17.4377 31.8818 16.7177 32.3028C16.5359 32.409 16.4366 32.6197 16.4705 32.827L16.7941 34.7999C16.8121 34.9096 16.8789 35.0053 16.9758 35.06C17.0728 35.1147 17.1892 35.1225 17.2925 35.0812L17.5725 34.9691C17.6734 34.9288 17.7835 34.9314 17.8825 34.9766C17.9813 35.0217 18.0554 35.1035 18.0912 35.2068C18.1588 35.402 18.0484 35.627 17.8451 35.7083L16.4154 36.2803C16.3144 36.3207 16.2044 36.318 16.1054 36.2728C16.0066 36.2277 15.9324 36.146 15.8966 36.0427C15.829 35.8475 15.9394 35.6225 16.1426 35.5412L16.1813 35.5257C16.2859 35.4839 16.3654 35.3964 16.3972 35.2883C16.4288 35.1802 16.4091 35.0636 16.3437 34.9719L15.1902 33.3558C15.0682 33.1847 14.8491 33.1052 14.6453 33.1581C13.9729 33.3324 13.2777 33.4208 12.579 33.4208C12.0258 33.4208 11.4712 33.3649 10.9308 33.2548C10.7245 33.2127 10.5101 33.3034 10.3969 33.4806L9.24238 35.2913C9.18254 35.3851 9.16855 35.501 9.20432 35.6064C9.23998 35.7117 9.32159 35.7952 9.42615 35.8333L9.467 35.8482C9.60717 35.8993 9.71907 36.002 9.78204 36.1373C9.845 36.2725 9.85151 36.4242 9.80043 36.5644C9.78571 36.6046 9.77822 36.6472 9.77822 36.6901C9.77822 36.8289 9.73727 36.934 9.6629 36.986C9.58858 37.0381 9.47586 37.0406 9.34537 36.993L7.9271 36.4758C7.64308 36.3723 7.4919 36.0556 7.59 35.7699C7.63682 35.6337 7.73761 35.5229 7.87382 35.4579C8.01771 35.3893 8.18499 35.3808 8.3326 35.4346L8.36509 35.4464C8.47081 35.4851 8.58853 35.4729 8.68423 35.4135C8.77998 35.3541 8.84309 35.254 8.85547 35.1421L9.09051 33.02C9.11366 32.8112 9.00347 32.6061 8.81638 32.5095C7.95846 32.0664 7.19086 31.4804 6.5351 30.7678C6.39077 30.6109 6.1616 30.5597 5.96482 30.6404L4.23405 31.3502C4.13801 31.3896 4.06315 31.4678 4.02802 31.5654C3.99285 31.6631 4.00072 31.7711 4.0496 31.8626C4.15944 32.0681 4.0951 32.3198 3.89998 32.4481C3.69885 32.5805 3.41723 32.5186 3.27241 32.3101L2.82909 31.672C2.68691 31.4673 2.72077 31.1926 2.90615 31.0465C3.00199 30.971 3.12093 30.9379 3.2408 30.9533C3.3616 30.9689 3.46846 31.0308 3.5418 31.1278C3.60814 31.2156 3.7104 31.269 3.82038 31.2732C3.92998 31.2774 4.03639 31.2321 4.10929 31.1497L5.32834 29.7718C5.4714 29.6101 5.49703 29.3743 5.39209 29.1847C5.26101 28.9483 5.13909 28.6994 5.02979 28.4448C4.94974 28.2586 4.73403 28.1725 4.54777 28.2525C4.36155 28.3324 4.27544 28.5482 4.35539 28.7344C4.45339 28.9625 4.56068 29.1866 4.67527 29.4024L3.80213 30.3894C3.66171 30.3032 3.50329 30.2471 3.33454 30.2254C3.01716 30.1846 2.70394 30.2715 2.45192 30.47C1.96221 30.856 1.86319 31.5678 2.22646 32.0907L2.66978 32.7288C3.03972 33.2613 3.77243 33.4104 4.30333 33.0612C4.70037 32.8001 4.89172 32.3446 4.82493 31.901L6.10093 31.3777C6.75625 32.0658 7.50971 32.6409 8.34439 33.0901L8.16982 34.6663C7.96032 34.6604 7.74955 34.7039 7.55785 34.7954C7.24238 34.9459 7.00729 35.2072 6.89593 35.5313C6.66881 36.1926 7.01864 36.9256 7.67572 37.1652L9.09399 37.6823C9.23631 37.7343 9.37932 37.7599 9.51705 37.7599C9.7245 37.7599 9.92006 37.7017 10.0837 37.5872C10.3405 37.4075 10.494 37.1064 10.5106 36.7543C10.6058 36.4474 10.584 36.1206 10.4474 35.8273C10.3599 35.6392 10.2314 35.4785 10.0725 35.3544L10.9341 34.0029C12.1715 34.2331 13.4617 34.1993 14.6811 33.9054L15.5184 35.0786C15.1888 35.3769 15.0519 35.8462 15.2032 36.2829C15.3053 36.5775 15.5175 36.811 15.8005 36.9403C16.0797 37.0678 16.403 37.0755 16.6879 36.9616L18.1177 36.3897C18.6889 36.1611 18.982 35.536 18.7847 34.9665C18.6826 34.6719 18.4704 34.4383 18.1874 34.309C17.9551 34.203 17.6921 34.1797 17.4462 34.2407L17.2194 32.8581C17.9062 32.4406 18.533 31.9332 19.0859 31.3471L19.9398 31.7222C19.9159 32.1608 20.1193 32.595 20.4927 32.8523C21.0558 33.2403 21.8287 33.1106 22.2523 32.5571L22.5066 32.2248C22.7148 31.9526 22.8047 31.6156 22.7595 31.2759C22.7143 30.9362 22.5395 30.6343 22.2673 30.4261C21.8701 30.1222 21.3517 30.0813 20.9248 30.2916L20.3618 29.6227C20.625 29.1594 20.8469 28.6713 21.0233 28.1681L22.4625 28.1024C22.5339 28.5412 22.8536 28.9111 23.3023 29.0212C23.6052 29.0957 23.9165 29.0443 24.1788 28.8769C24.4374 28.7117 24.6196 28.4444 24.6787 28.1434L24.9793 26.6112C25.099 26.001 24.7 25.4073 24.0899 25.2875Z" fill="#CB1717"/>
<path d="M2.36421 26.2779L3.73962 26.5956C3.76956 26.7868 3.8066 26.981 3.85015 27.1747C3.88846 27.3454 4.03993 27.4614 4.20785 27.4613C4.23446 27.4613 4.26152 27.4584 4.28857 27.4523C4.48628 27.4079 4.61061 27.2117 4.56618 27.0139C4.51564 26.7886 4.47459 26.563 4.44426 26.3434C4.41534 26.1343 4.25809 25.962 4.05304 25.9147L2.10505 25.4648C1.99677 25.4398 1.88268 25.4653 1.79534 25.5341C1.70796 25.603 1.65654 25.7078 1.65556 25.8191L1.65356 26.0471C1.65126 26.3024 1.44171 26.5102 1.18636 26.5102C1.06478 26.5102 0.950635 26.4626 0.865063 26.3762C0.779442 26.2898 0.732913 26.1754 0.73399 26.0538L0.746711 24.6386C0.747836 24.5089 0.802976 24.3819 0.897941 24.2903C0.987183 24.2042 1.09996 24.158 1.21909 24.1616C1.46695 24.1681 1.66755 24.3754 1.66618 24.6236C1.66554 24.7359 1.71648 24.8425 1.8044 24.9125C1.89232 24.9826 2.00759 25.0086 2.11689 24.9828L4.05118 24.5293C4.25609 24.4812 4.41265 24.3085 4.44088 24.0994C4.5836 23.0409 4.92701 22.0348 5.46153 21.1087C5.56936 20.9217 5.54813 20.6858 5.40844 20.5216L4.48604 19.4383C4.41392 19.3536 4.3079 19.3061 4.19605 19.3094C4.08485 19.3126 3.98107 19.3661 3.91395 19.4548L3.834 19.5604C3.77426 19.6394 3.68717 19.6891 3.58873 19.7004C3.49064 19.7116 3.3942 19.6828 3.31773 19.6191C3.1732 19.4986 3.15373 19.2709 3.27433 19.1115L3.88875 18.2991C4.00803 18.1414 4.23339 18.1101 4.39107 18.2295C4.53873 18.3411 4.57655 18.5508 4.47723 18.707C4.4196 18.7976 4.40458 18.9089 4.43613 19.0116C4.46769 19.1143 4.54265 19.198 4.64118 19.2407L5.93103 19.7985C6.13099 19.8851 6.36441 19.8349 6.51188 19.6734C7.09909 19.0302 7.77975 18.4869 8.53517 18.0587C8.71815 17.9549 8.82016 17.7457 8.78905 17.5379L8.49192 15.5609C8.47538 15.4509 8.40977 15.3543 8.31363 15.2983C8.21739 15.2423 8.10095 15.233 7.99727 15.2729L7.7158 15.3812C7.61433 15.4202 7.50434 15.4161 7.40605 15.3696C7.30781 15.3232 7.23481 15.2405 7.20041 15.1367C7.13539 14.9406 7.24875 14.7171 7.45322 14.6385L8.89047 14.0857C8.99194 14.0467 9.10193 14.0508 9.20022 14.0973C9.29847 14.1437 9.37151 14.2265 9.40591 14.3302C9.47088 14.5263 9.35752 14.7498 9.15306 14.8284L9.11421 14.8434C9.00912 14.8839 8.92839 14.9703 8.89526 15.078C8.86219 15.1856 8.88029 15.3025 8.94453 15.395L10.076 17.0261C10.1957 17.1986 10.4134 17.281 10.6179 17.2309C11.2556 17.0747 11.9152 16.9955 12.5793 16.9955H12.5795C12.796 16.9955 12.99 16.8591 13.0624 16.6562L13.437 15.6079C13.4706 15.5139 13.4645 15.4101 13.4199 15.3208C13.3754 15.2314 13.2964 15.164 13.201 15.1342C12.9282 15.0489 12.7547 14.7809 12.7883 14.4972C12.8063 14.3462 12.8856 14.2087 13.0116 14.1102C13.144 14.0066 13.3133 13.959 13.4765 13.9796L13.991 14.0444C14.3245 14.0864 14.5674 14.3814 14.5325 14.7019C14.5055 14.9494 14.3323 15.1501 14.0911 15.2132C13.9145 15.2594 13.7987 15.4285 13.8195 15.6099L13.9497 16.7459C13.9745 16.9627 14.1347 17.1399 14.3484 17.1869C15.168 17.367 15.9535 17.6721 16.6826 18.0938C16.8652 18.1995 17.0976 18.1813 17.261 18.0487L18.8134 16.7886C18.8998 16.7185 18.9496 16.6129 18.9491 16.5017C18.9484 16.3905 18.8974 16.2855 18.8103 16.2163L18.5741 16.0288C18.489 15.9612 18.4366 15.8643 18.4268 15.7559C18.4169 15.6478 18.4511 15.5429 18.5231 15.4605C18.6589 15.3049 18.909 15.2891 19.0806 15.4253L20.2866 16.3828C20.3718 16.4504 20.4241 16.5473 20.434 16.6556C20.4438 16.7638 20.4097 16.8687 20.3377 16.9511C20.2018 17.1066 19.9516 17.1224 19.7803 16.9863L19.7477 16.9605C19.6595 16.8904 19.5439 16.8648 19.4345 16.8909C19.3249 16.917 19.2334 16.992 19.1862 17.0943L18.3547 18.8993C18.2668 19.0902 18.3067 19.3198 18.4538 19.4705C18.506 19.5239 18.5575 19.5792 18.6188 19.6458C18.756 19.7949 18.9882 19.8045 19.1373 19.6672C19.2864 19.53 19.296 19.2979 19.1588 19.1487C19.1328 19.1205 19.1084 19.0941 19.0847 19.0688L19.6886 17.7579C20.1111 17.896 20.5865 17.782 20.8904 17.434C21.0956 17.1991 21.1931 16.899 21.1648 16.5891C21.137 16.2835 20.9832 15.9989 20.7429 15.8081L19.5369 14.8507C19.055 14.4681 18.3669 14.5238 17.9703 14.9778C17.7651 15.2127 17.6677 15.5128 17.696 15.8227C17.7191 16.077 17.8295 16.3169 18.0044 16.5001L16.917 17.383C16.2066 16.9882 15.449 16.6936 14.6611 16.5057L14.5805 15.8018C14.9535 15.5955 15.2151 15.2157 15.2624 14.7814C15.3403 14.0652 14.8112 13.408 14.0829 13.3163L13.5684 13.2515C13.2129 13.2068 12.8451 13.309 12.5598 13.5321C12.2786 13.752 12.101 14.064 12.0599 14.4107C12 14.9146 12.2325 15.3961 12.6363 15.6685L12.4238 16.263C11.8054 16.2735 11.1909 16.3474 10.5926 16.4829L9.77139 15.2991C10.1048 15.0054 10.248 14.5379 10.1027 14.0993C10.0045 13.8032 9.79546 13.5669 9.51413 13.4339C9.23672 13.3027 8.91351 13.2906 8.62715 13.4007L7.18994 13.9535C6.6156 14.1744 6.31426 14.7955 6.50395 15.3676C6.6021 15.6637 6.81106 15.9 7.09243 16.0331C7.32327 16.1422 7.58576 16.169 7.83264 16.1113L8.04087 17.4968C7.31632 17.924 6.65719 18.4497 6.078 19.0624L5.24953 18.7041C5.31685 18.3118 5.16699 17.896 4.8339 17.6441C4.60116 17.468 4.31392 17.393 4.02476 17.4333C3.73571 17.4733 3.47958 17.6236 3.30359 17.8564L2.68913 18.6688C2.32957 19.144 2.39939 19.8091 2.84804 20.1829C3.08019 20.3763 3.37292 20.4639 3.67254 20.4295C3.86145 20.4078 4.04091 20.3364 4.19268 20.2257L4.74853 20.8786C4.2349 21.8051 3.89452 22.8032 3.73532 23.8496L2.31543 24.1825C2.14306 23.7523 1.72602 23.4408 1.23852 23.4279C0.921132 23.4199 0.620383 23.5383 0.388278 23.7622C0.152649 23.9896 0.0157537 24.3066 0.0127692 24.632L4.83843e-05 26.0472C-0.00278933 26.3661 0.119281 26.6664 0.343706 26.8929C0.56813 27.1194 0.867411 27.2441 1.18631 27.2441C1.76609 27.2441 2.25413 26.8275 2.36421 26.2779Z" fill="#CB1717"/>
<path d="M10.7638 24.275C10.9428 24.1801 11.0111 23.958 10.9162 23.7789C10.8213 23.5999 10.5993 23.5315 10.4201 23.6265C9.54315 24.0913 8.54364 23.9685 8.04376 23.3342C7.76327 22.9784 7.66679 22.5069 7.77208 22.0066C7.88245 21.4821 8.19813 20.9923 8.66092 20.6275C9.12361 20.2627 9.67364 20.0704 10.2094 20.0853C10.7205 20.0997 11.1563 20.3037 11.4369 20.6595C11.858 21.1938 11.8527 21.9914 11.4232 22.6914C11.3173 22.8641 11.3713 23.0901 11.5441 23.196C11.7168 23.302 11.9428 23.2479 12.0488 23.0752C12.6409 22.1102 12.6269 20.9836 12.0132 20.2052C11.5957 19.6755 10.9625 19.3724 10.2302 19.3518C9.52251 19.3312 8.80408 19.5802 8.20659 20.0512C7.60901 20.5222 7.19969 21.163 7.05389 21.8555C6.903 22.5724 7.04988 23.2589 7.46736 23.7885C7.90697 24.3462 8.59531 24.6396 9.33585 24.6395C9.80765 24.6395 10.3006 24.5205 10.7638 24.275Z" fill="#CB1717"/>
<path d="M17.882 20.9839C17.882 20.2232 17.174 19.6042 16.3038 19.6042C15.4336 19.6042 14.7256 20.2232 14.7256 20.9839C14.7256 21.7447 15.4336 22.3636 16.3038 22.3636C17.174 22.3636 17.882 21.7447 17.882 20.9839ZM15.4595 20.9839C15.4595 20.6278 15.8383 20.3381 16.3038 20.3381C16.7694 20.3381 17.1481 20.6278 17.1481 20.9839C17.1481 21.34 16.7694 21.6297 16.3038 21.6297C15.8383 21.6297 15.4595 21.34 15.4595 20.9839Z" fill="#CB1717"/>
<path d="M13.6229 27.2902C13.6229 26.3579 12.8644 25.5994 11.9321 25.5994C10.9997 25.5994 10.2412 26.3579 10.2412 27.2902C10.2412 28.2225 10.9997 28.981 11.9321 28.981C12.8644 28.981 13.6229 28.2225 13.6229 27.2902ZM10.9752 27.2902C10.9752 26.7625 11.4044 26.3333 11.9321 26.3333C12.4598 26.3333 12.8891 26.7625 12.8891 27.2902C12.8891 27.8179 12.4598 28.2471 11.9321 28.2471C11.4044 28.2471 10.9752 27.8179 10.9752 27.2902Z" fill="#CB1717"/>
<path d="M18.408 26.6008C18.408 25.8757 17.8182 25.2859 17.0932 25.2859C16.3682 25.2859 15.7783 25.8757 15.7783 26.6008C15.7783 27.3258 16.3682 27.9157 17.0932 27.9157C17.8182 27.9156 18.408 27.3258 18.408 26.6008ZM16.5122 26.6008C16.5122 26.2804 16.7728 26.0198 17.0931 26.0198C17.4135 26.0198 17.6741 26.2804 17.6741 26.6008C17.6741 26.9211 17.4135 27.1818 17.0931 27.1818C16.7728 27.1817 16.5122 26.9211 16.5122 26.6008Z" fill="#CB1717"/>
<path d="M13.5933 32.5155C14.3037 32.5155 14.8818 31.9375 14.8818 31.227C14.8818 30.5165 14.3038 29.9385 13.5933 29.9385C12.8828 29.9385 12.3047 30.5165 12.3047 31.227C12.3047 31.9375 12.8827 32.5155 13.5933 32.5155ZM13.5933 30.6724C13.8991 30.6724 14.1479 30.9212 14.1479 31.227C14.1479 31.5328 13.8991 31.7816 13.5933 31.7816C13.2874 31.7816 13.0386 31.5328 13.0386 31.227C13.0386 30.9212 13.2874 30.6724 13.5933 30.6724Z" fill="#CB1717"/>
<path d="M7.826 30.349C8.55769 30.349 9.15298 29.7537 9.15298 29.022C9.15298 28.2904 8.55769 27.6951 7.826 27.6951C7.09431 27.6951 6.49902 28.2904 6.49902 29.022C6.49902 29.7537 7.09431 30.349 7.826 30.349ZM7.826 28.429C8.15307 28.429 8.41908 28.695 8.41908 29.022C8.41908 29.3491 8.15302 29.6151 7.826 29.6151C7.49898 29.6151 7.23292 29.3491 7.23292 29.022C7.23292 28.695 7.49898 28.429 7.826 28.429Z" fill="#CB1717"/>
<path d="M15.2966 24.4302C15.2966 24.2275 15.1323 24.0632 14.9296 24.0632H14.6052C14.4025 24.0632 14.2383 24.2275 14.2383 24.4302C14.2383 24.6328 14.4025 24.7971 14.6052 24.7971H14.9296C15.1323 24.7971 15.2966 24.6328 15.2966 24.4302Z" fill="#CB1717"/>
<path d="M10.2732 31.2114H10.6065C10.8092 31.2114 10.9734 31.0471 10.9734 30.8445C10.9734 30.6418 10.8092 30.4775 10.6065 30.4775H10.2732C10.0705 30.4775 9.90625 30.6418 9.90625 30.8445C9.90625 31.0471 10.0705 31.2114 10.2732 31.2114Z" fill="#CB1717"/>
<path d="M7.18703 25.8674C7.38973 25.8674 7.55397 25.7031 7.55397 25.5005C7.55397 25.2978 7.38973 25.1335 7.18703 25.1335H6.86597C6.66327 25.1335 6.49902 25.2978 6.49902 25.5005C6.49902 25.7031 6.66327 25.8674 6.86597 25.8674H7.18703Z" fill="#CB1717"/>
<path d="M16.1453 29.2827C15.9426 29.2827 15.7783 29.447 15.7783 29.6497C15.7783 29.8523 15.9426 30.0166 16.1453 30.0166H16.6386C16.8413 30.0166 17.0056 29.8523 17.0056 29.6497C17.0056 29.447 16.8413 29.2827 16.6386 29.2827H16.1453Z" fill="#CB1717"/>
</g>
<path d="M72.2739 71.8341C72.9998 71.9771 73.4726 72.6806 73.3305 73.4056L72.8009 76.1026C72.6545 76.8491 71.914 77.3279 71.1666 77.1445C70.4665 76.9731 70.042 76.2576 70.1806 75.5506L70.1952 75.4783L66.7043 75.6376C66.5993 75.6419 66.508 75.7116 66.4753 75.8124C66.1343 76.8423 65.6857 77.8239 65.1423 78.7418C65.0872 78.8348 65.0958 78.9528 65.1656 79.0355L66.7095 80.8696C67.0161 80.5777 67.4165 80.4262 67.8212 80.4262C68.1622 80.4262 68.5066 80.5338 68.7985 80.7577C69.5055 81.2984 69.6398 82.3102 69.0991 83.0181L68.6513 83.6027C68.126 84.2899 67.1469 84.4742 66.434 83.9825C65.82 83.5597 65.5978 82.7993 65.82 82.1389L63.5958 81.1615C63.495 81.1176 63.3788 81.1435 63.3056 81.2244C62.2757 82.355 61.0771 83.3281 59.7492 84.1048C59.658 84.1582 59.6089 84.2615 59.6261 84.3657L60.1953 87.8376L60.6878 87.6404C61.3948 87.358 62.1991 87.7197 62.4514 88.4473C62.6873 89.1284 62.317 89.8733 61.648 90.1402L59.131 91.1477C58.4249 91.4301 57.6206 91.0685 57.3683 90.3409C57.1324 89.6597 57.5026 88.9149 58.1717 88.6471L58.2397 88.6204L56.2093 85.7753C56.1481 85.6892 56.0405 85.6513 55.938 85.678C54.7247 85.9923 53.452 86.1611 52.1397 86.1611C51.1012 86.1611 50.0886 86.0552 49.1095 85.8554C49.0062 85.8347 48.9002 85.8786 48.8434 85.9673L46.8121 89.1543L46.8836 89.1801C47.5449 89.4212 47.9548 90.0455 47.9548 90.7103C47.9548 90.8963 47.9229 91.0848 47.8557 91.2691C47.8557 92.2224 47.1229 92.7356 46.2274 92.4084L43.7311 91.4982C42.8958 91.1942 42.4601 90.2771 42.7486 89.4393C43.0448 88.5756 44.029 88.1399 44.8867 88.4525L44.9444 88.4731L45.3577 84.7385C45.3697 84.6335 45.3146 84.5336 45.2208 84.4845C43.6398 83.6682 42.2216 82.5806 41.0272 81.2829C40.9549 81.2046 40.8421 81.1788 40.7439 81.2192L37.6973 82.4687C38.0418 83.1128 37.848 83.9291 37.2194 84.3424C36.5633 84.7738 35.6772 84.5732 35.2294 83.9291L34.4493 82.8054C34.0127 82.1776 34.1143 81.3028 34.7154 80.8291C35.356 80.3245 36.2696 80.4554 36.7493 81.0901L38.8951 78.6652C38.9666 78.5843 38.9787 78.4672 38.9261 78.3733C38.0452 76.7854 37.4425 75.0219 37.1833 73.149C37.1686 73.044 37.092 72.9587 36.9895 72.9355L33.5606 72.1432L33.5572 72.5454C33.5537 72.9475 33.3884 73.3118 33.1223 73.5744C32.8571 73.8379 32.492 73.9998 32.089 73.9998C31.2882 73.9998 30.6398 73.3462 30.6475 72.5454L30.6699 70.0542C30.6768 69.2396 31.3502 68.5533 32.1639 68.5748C32.9536 68.5955 33.5839 69.2448 33.5796 70.037L36.9835 69.2388C37.0868 69.2146 37.1635 69.1294 37.1772 69.0243C37.4442 67.0438 38.096 65.1847 39.0544 63.5245C39.1078 63.4315 39.0984 63.3153 39.0286 63.2326L37.4054 61.3261L37.2642 61.5121C36.8268 62.0908 35.9915 62.1915 35.4275 61.7222C34.8988 61.2813 34.8342 60.4908 35.2492 59.9423L36.3308 58.5129C36.5822 58.1814 36.9637 58.0066 37.3503 58.0066C37.6181 58.0066 37.8885 58.091 38.1193 58.2649C38.654 58.6688 38.7798 59.411 38.4267 59.9673L40.6966 60.949C40.7964 60.992 40.9118 60.9662 40.9859 60.8861C42.0571 59.7116 43.3117 58.7075 44.705 57.9179C44.7963 57.8654 44.8471 57.7629 44.8316 57.6587L44.3089 54.179L43.8129 54.3702C43.1033 54.6431 42.3034 54.2703 42.0614 53.5401C41.8341 52.8555 42.2147 52.1158 42.8872 51.8575L45.4171 50.8844C46.1275 50.6115 46.9266 50.9835 47.1686 51.7145C47.3959 52.3982 47.0162 53.1379 46.3428 53.3971L46.2748 53.4229L48.2656 56.2939C48.3259 56.3808 48.4327 56.4204 48.5351 56.3955C49.6907 56.1122 50.8971 55.9623 52.1397 55.9623H52.1414C52.2499 55.9623 52.3472 55.896 52.3834 55.7936L53.043 53.9491C52.2792 53.7097 51.7703 52.9562 51.8676 52.1347C51.9787 51.2039 52.8699 50.5426 53.8008 50.6597L54.7066 50.7733C55.6297 50.8896 56.3221 51.7162 56.2213 52.6419C56.1421 53.3627 55.6237 53.9241 54.9658 54.0963L55.1949 56.0958C55.2069 56.2034 55.287 56.2913 55.3938 56.3145C56.9248 56.6512 58.3689 57.2204 59.6864 57.9825C59.7785 58.035 59.8922 58.0272 59.974 57.9601L62.7063 55.7427L62.2912 55.4129C61.6945 54.9393 61.6101 54.0619 62.1164 53.4824C62.59 52.939 63.421 52.8908 63.985 53.3394L66.1076 55.0246C66.7043 55.4973 66.7887 56.3757 66.2824 56.9552C65.8088 57.4977 64.9778 57.5459 64.4138 57.0981L64.3561 57.0525L62.8931 60.2291C62.8483 60.3247 62.869 60.4375 62.9431 60.5132C63.9729 61.5681 64.8495 62.7736 65.5367 64.0928C65.5866 64.1884 65.6908 64.2427 65.7976 64.228L67.872 63.9378C67.5672 63.0871 68.0192 62.1442 68.8889 61.8591C69.7182 61.587 70.612 62.0477 70.9168 62.8658L71.3947 64.1471C71.6961 64.9574 71.3345 65.8848 70.5423 66.2292C69.7828 66.559 68.926 66.2611 68.5178 65.5877L66.7965 66.7553C66.7061 66.8165 66.6656 66.9284 66.6949 67.0335C67.0488 68.3165 67.2382 69.6667 67.2382 71.0617C67.2382 71.2951 67.2331 71.5267 67.2219 71.7566C67.2176 71.8625 67.277 71.9598 67.3734 72.002L70.6008 73.4116L70.7024 72.8907C70.8454 72.1648 71.5489 71.692 72.2739 71.8341Z" fill="#FF6969"/>
<path d="M58.6962 65.4095C59.8735 65.4095 60.8279 64.6115 60.8279 63.6271C60.8279 62.6427 59.8735 61.8447 58.6962 61.8447C57.5189 61.8447 56.5645 62.6427 56.5645 63.6271C56.5645 64.6115 57.5189 65.4095 58.6962 65.4095Z" fill="#EE6161"/>
<path d="M51.0009 77.0563C52.2878 77.0563 53.331 76.0131 53.331 74.7263C53.331 73.4394 52.2878 72.3962 51.0009 72.3962C49.7141 72.3962 48.6709 73.4394 48.6709 74.7263C48.6709 76.0131 49.7141 77.0563 51.0009 77.0563Z" fill="#EE6161"/>
<path d="M60.0853 75.1821C61.0067 75.1821 61.7536 74.4351 61.7536 73.5138C61.7536 72.5924 61.0067 71.8455 60.0853 71.8455C59.1639 71.8455 58.417 72.5924 58.417 73.5138C58.417 74.4351 59.1639 75.1821 60.0853 75.1821Z" fill="#FF6969"/>
<path d="M53.9218 83.2769C54.8176 83.2769 55.5437 82.5507 55.5437 81.6549C55.5437 80.7591 54.8176 80.033 53.9218 80.033C53.026 80.033 52.2998 80.7591 52.2998 81.6549C52.2998 82.5507 53.026 83.2769 53.9218 83.2769Z" fill="#FF6969"/>
<path d="M42.9573 70.3384C42.9573 64.5339 45.7263 59.3749 50.0136 56.1106C49.5131 56.1812 49.0189 56.2766 48.5351 56.3953C48.4327 56.4202 48.3259 56.3806 48.2656 56.2937L46.2748 53.4228L46.3428 53.3969C47.0162 53.1377 47.3959 52.3981 47.1686 51.7143C46.9266 50.9833 46.1275 50.6113 45.4171 50.8842L42.8872 51.8573C42.2147 52.1156 41.8341 52.8553 42.0614 53.5399C42.3034 54.2701 43.1033 54.6429 43.8129 54.37L44.3089 54.1788L44.8316 57.6585C44.8471 57.7627 44.7962 57.8652 44.705 57.9177C43.3117 58.7073 42.0571 59.7114 40.9859 60.8859C40.9118 60.966 40.7964 60.9918 40.6966 60.9488L38.4267 59.9671C38.7797 59.4108 38.654 58.6686 38.1193 58.2647C37.8885 58.0908 37.6181 58.0064 37.3503 58.0064C36.9637 58.0064 36.5822 58.1812 36.3308 58.5127L35.2492 59.9421C34.8342 60.4907 34.8988 61.2812 35.4275 61.722C35.9915 62.1913 36.8268 62.0906 37.2642 61.5119L37.4054 61.3259L39.0286 63.2324C39.0984 63.3151 39.1078 63.4313 39.0544 63.5243C38.096 65.1845 37.4442 67.0436 37.1772 69.0242C37.1635 69.1292 37.0868 69.2145 36.9835 69.2386L33.5796 70.0368C33.5839 69.2446 32.9536 68.5953 32.1639 68.5747C31.3502 68.5531 30.6768 69.2394 30.6699 70.054L30.6475 72.5452C30.6398 73.346 31.2882 73.9996 32.089 73.9996C32.492 73.9996 32.8571 73.8377 33.1223 73.5742C33.3884 73.3116 33.5537 72.9473 33.5572 72.5452L33.5606 72.1431L36.9895 72.9353C37.092 72.9585 37.1686 73.0438 37.1833 73.1488C37.4425 75.0217 38.0452 76.7852 38.9261 78.3731C38.9787 78.467 38.9666 78.5841 38.8951 78.665L36.7493 81.0899C36.2696 80.4552 35.356 80.3244 34.7154 80.829C34.1143 81.3026 34.0127 82.1774 34.4493 82.8052L35.2294 83.9289C35.6772 84.573 36.5633 84.7737 37.2194 84.3422C37.848 83.9289 38.0418 83.1126 37.6973 82.4685L40.7439 81.219C40.8421 81.1786 40.9549 81.2044 41.0272 81.2828C42.2216 82.5804 43.6398 83.668 45.2208 84.4843C45.3146 84.5334 45.3697 84.6333 45.3577 84.7383L44.9444 88.4729L44.8867 88.4523C44.029 88.1397 43.0448 88.5754 42.7486 89.4391C42.4601 90.2769 42.8958 91.194 43.7311 91.498L46.2274 92.4082C47.1229 92.7354 47.8557 92.2222 47.8557 91.2689C47.9229 91.0846 47.9548 90.8961 47.9548 90.7101C47.9548 90.0453 47.5449 89.421 46.8836 89.1799L46.8121 89.1541L48.8434 85.9671C48.9002 85.8784 49.0062 85.8345 49.1095 85.8552C50.0886 86.055 51.1012 86.1609 52.1397 86.1609C52.2619 86.1609 52.3861 86.1593 52.5076 86.1565C46.8305 83.1629 42.9573 77.2024 42.9573 70.3384Z" fill="#F37C7C"/>
<path d="M43.7736 79.4645C44.7068 79.4645 45.4633 78.708 45.4633 77.7749C45.4633 76.8417 44.7068 76.0852 43.7736 76.0852C42.8405 76.0852 42.084 76.8417 42.084 77.7749C42.084 78.708 42.8405 79.4645 43.7736 79.4645Z" fill="#EE6161"/>
<path d="M49.4332 68.3217C51.3615 66.8011 51.8953 64.2629 50.6254 62.6524C49.3555 61.0419 46.7628 60.9691 44.8344 62.4897C42.906 64.0102 42.3722 66.5485 43.6422 68.159C44.9121 69.7694 47.5048 69.8423 49.4332 68.3217Z" fill="#EE6161"/>
<path d="M72.3946 71.2C71.8742 71.0981 71.3456 71.2047 70.9056 71.5003C70.5412 71.7452 70.2737 72.0955 70.1347 72.5042L67.8735 71.5168C67.8781 71.3621 67.8805 71.2096 67.8805 71.061C67.8805 69.7316 67.714 68.4115 67.3856 67.1327L68.3999 66.4447C69.0428 67.0077 69.9772 67.1761 70.7952 66.8207C71.8959 66.3424 72.4232 65.0686 71.9954 63.9207L71.5179 62.6393C71.085 61.4774 69.8398 60.8653 68.6833 61.2448C68.098 61.437 67.627 61.8471 67.3571 62.3994C67.2036 62.7135 67.1261 63.0505 67.126 63.3891L65.9753 63.5497C65.8176 63.2608 65.6454 62.9679 65.4615 62.6762C65.2713 62.3744 64.8723 62.2841 64.5707 62.4742C64.2689 62.6644 64.1785 63.0632 64.3687 63.365C64.5858 63.7093 64.7847 64.0543 64.96 64.3907C65.1359 64.7279 65.5068 64.9192 65.8823 64.8668L67.9574 64.5771C68.1499 64.5503 68.3201 64.4381 68.4207 64.2717C68.5213 64.1053 68.5416 63.9025 68.476 63.7195C68.3869 63.4711 68.4017 63.2038 68.5175 62.9666C68.6331 62.7302 68.835 62.5546 69.0862 62.4721C69.5734 62.3123 70.121 62.5896 70.3076 63.0904L70.785 64.3718C70.9698 64.8677 70.7435 65.4349 70.2804 65.6363C69.8371 65.8288 69.3151 65.6637 69.0656 65.2524C68.9739 65.1011 68.824 64.9941 68.6511 64.9563C68.4783 64.9185 68.2974 64.9536 68.1509 65.0529L66.4299 66.2203C66.1106 66.4368 65.9652 66.8326 66.0682 67.2053C66.4137 68.4562 66.5888 69.7535 66.5888 71.0611C66.5888 71.2754 66.5834 71.4992 66.5729 71.7267C66.5558 72.0971 66.7721 72.4455 67.1112 72.5935L70.338 74.0026C70.5174 74.0811 70.7228 74.0738 70.8961 73.9829C71.0696 73.8921 71.1924 73.7274 71.2301 73.5352L71.3324 73.0143C71.3681 72.8326 71.4724 72.6758 71.626 72.5725C71.7795 72.4693 71.9641 72.432 72.1458 72.4677C72.5208 72.5413 72.7661 72.9062 72.6926 73.2811L72.1634 75.9778C72.1265 76.1655 72.0174 76.3256 71.8561 76.4286C71.6949 76.5315 71.5032 76.5627 71.3164 76.517C70.9634 76.4303 70.7365 76.0522 70.8106 75.674L70.8247 75.6019C70.8628 75.4074 70.8095 75.2062 70.6801 75.0561C70.5507 74.9058 70.358 74.8228 70.1615 74.8326L66.6711 74.9918C66.3016 75.0086 65.9749 75.2564 65.8581 75.6087C65.5347 76.5851 65.1056 77.5284 64.5824 78.4124C64.3875 78.7415 64.4217 79.1588 64.6674 79.4507L66.2115 81.2851C66.3262 81.4214 66.4921 81.5042 66.6698 81.5141C66.8477 81.5237 67.0218 81.4598 67.1507 81.3371C67.4968 81.0079 68.023 80.9798 68.4019 81.2697C68.607 81.4266 68.7386 81.6539 68.7727 81.9098C68.8068 82.1658 68.739 82.4196 68.5822 82.6246L68.1348 83.2094C67.8133 83.6294 67.2129 83.7373 66.7964 83.4503C66.4424 83.2064 66.291 82.7517 66.4283 82.3447C66.5353 82.0277 66.3824 81.6816 66.076 81.5471L63.8516 80.5701C63.4979 80.4145 63.085 80.5024 62.8239 80.7889C61.8321 81.878 60.6868 82.8059 59.4197 83.5469C59.0996 83.7337 58.9249 84.1045 58.9846 84.4694L59.5541 87.9417C59.5858 88.1349 59.7034 88.3033 59.874 88.3996C60.0446 88.4959 60.2494 88.5095 60.4314 88.4368L60.9241 88.2396C61.1017 88.1686 61.2955 88.1732 61.4696 88.2528C61.6436 88.3322 61.774 88.4761 61.837 88.6579C61.956 89.0014 61.7617 89.3974 61.4038 89.5406L58.8875 90.5472C58.7098 90.6183 58.5162 90.6136 58.342 90.5341C58.168 90.4547 58.0376 90.3108 57.9746 90.129C57.8556 89.7855 58.0498 89.3895 58.4074 89.2464L58.4755 89.2192C58.6596 89.1456 58.7997 88.9915 58.8555 88.8013C58.9112 88.6111 58.8766 88.4058 58.7613 88.2444L56.7313 85.4C56.5165 85.0989 56.1309 84.9592 55.7723 85.0522C54.5887 85.359 53.3652 85.5146 52.1355 85.5146C51.1619 85.5146 50.1858 85.4162 49.2347 85.2223C48.8715 85.1483 48.4942 85.3079 48.295 85.6197L46.2631 88.8066C46.1578 88.9716 46.1332 89.1756 46.1961 89.3611C46.2589 89.5466 46.4025 89.6935 46.5865 89.7606L46.6584 89.7868C46.9051 89.8767 47.1021 90.0574 47.2129 90.2955C47.3237 90.5335 47.3352 90.8005 47.2453 91.0472C47.2193 91.1181 47.2062 91.193 47.2062 91.2684C47.2062 91.5127 47.1341 91.6978 47.0032 91.7893C46.8724 91.8809 46.674 91.8854 46.4444 91.8015L43.9482 90.8914C43.4483 90.7092 43.1823 90.1518 43.3549 89.6489C43.4373 89.4092 43.6147 89.2142 43.8544 89.0998C44.1077 88.979 44.4021 88.964 44.6619 89.0588L44.7191 89.0796C44.9051 89.1476 45.1123 89.1262 45.2807 89.0217C45.4493 88.9171 45.5603 88.741 45.5821 88.544L45.9958 84.8092C46.0365 84.4416 45.8426 84.0806 45.5133 83.9106C44.0034 83.1308 42.6524 82.0994 41.4983 80.8453C41.2443 80.5691 40.8409 80.479 40.4946 80.6211L37.4484 81.8703C37.2794 81.9396 37.1477 82.0772 37.0858 82.2491C37.0239 82.421 37.0378 82.611 37.1238 82.7721C37.3171 83.1338 37.2039 83.5768 36.8605 83.8026C36.5065 84.0355 36.0108 83.9266 35.756 83.5598L34.9757 82.4367C34.7255 82.0765 34.7851 81.593 35.1113 81.3358C35.28 81.2029 35.4894 81.1447 35.7003 81.1718C35.9129 81.1992 36.101 81.3082 36.2301 81.4789C36.3468 81.6333 36.5268 81.7273 36.7204 81.7348C36.9133 81.7422 37.1006 81.6624 37.2289 81.5173L39.3744 79.0923C39.6262 78.8077 39.6713 78.3927 39.4866 78.0591C39.2559 77.643 39.0413 77.2049 38.8489 76.7568C38.7081 76.4291 38.3284 76.2775 38.0006 76.4183C37.6729 76.5591 37.5213 76.9388 37.662 77.2665C37.8345 77.6679 38.0233 78.0623 38.225 78.4421L36.6883 80.1792C36.4411 80.0276 36.1623 79.9288 35.8653 79.8906C35.3067 79.8188 34.7554 79.9718 34.3119 80.3212C33.45 81.0004 33.2757 82.2533 33.9151 83.1735L34.6953 84.2965C35.3464 85.2338 36.636 85.4961 37.5704 84.8817C38.2692 84.4221 38.6059 83.6205 38.4884 82.8397L40.7341 81.9186C41.8875 83.1297 43.2136 84.1419 44.6826 84.9325L44.3754 87.7067C44.0067 87.6962 43.6357 87.7728 43.2983 87.9337C42.7431 88.1986 42.3293 88.6585 42.1333 89.229C41.7336 90.393 42.3493 91.683 43.5058 92.1046L46.0019 93.0148C46.2524 93.1062 46.5041 93.1513 46.7465 93.1513C47.1116 93.1513 47.4558 93.0488 47.7438 92.8473C48.1957 92.5311 48.466 92.0011 48.4952 91.3814C48.6627 90.8413 48.6243 90.2662 48.3839 89.75C48.2298 89.419 48.0038 89.136 47.7241 88.9176L49.2406 86.5391C51.4183 86.9443 53.6891 86.8847 55.8352 86.3675L57.3088 88.4323C56.7288 88.9572 56.4879 89.7833 56.754 90.5517C56.9338 91.0704 57.3072 91.4813 57.8054 91.7089C58.2968 91.9332 58.8658 91.9468 59.3672 91.7463L61.8836 90.7397C62.889 90.3375 63.4047 89.2373 63.0575 88.235C62.8778 87.7164 62.5045 87.3054 62.0062 87.0778C61.5975 86.8911 61.1345 86.8502 60.7017 86.9575L60.3026 84.5241C61.5114 83.7894 62.6146 82.8964 63.5877 81.8649L65.0905 82.5249C65.0485 83.2969 65.4064 84.0611 66.0635 84.514C67.0547 85.1969 68.415 84.9685 69.1606 83.9944L69.608 83.4096C69.9746 82.9306 70.1327 82.3375 70.0531 81.7395C69.9735 81.1416 69.666 80.6104 69.1868 80.2438C68.4879 79.709 67.5755 79.637 66.8242 80.0072L65.8332 78.8299C66.2964 78.0144 66.687 77.1555 66.9974 76.2698L69.5305 76.1543C69.6561 76.9264 70.2188 77.5774 71.0086 77.7713C71.5416 77.9023 72.0895 77.8119 72.5512 77.5172C73.0063 77.2266 73.327 76.7562 73.4309 76.2263L73.9601 73.5296C74.1707 72.4557 73.4685 71.4107 72.3946 71.2Z" fill="#CB1717"/>
<path d="M34.161 72.9445L36.5817 73.5037C36.6344 73.8403 36.6996 74.182 36.7762 74.5229C36.8437 74.8233 37.1103 75.0275 37.4058 75.0274C37.4526 75.0274 37.5003 75.0222 37.5479 75.0115C37.8958 74.9333 38.1147 74.588 38.0365 74.2399C37.9475 73.8434 37.8753 73.4464 37.8219 73.0598C37.771 72.6918 37.4942 72.3885 37.1333 72.3053L33.7049 71.5135C33.5143 71.4695 33.3135 71.5143 33.1598 71.6355C33.006 71.7567 32.9155 71.9412 32.9138 72.137L32.9103 72.5384C32.9062 72.9877 32.5374 73.3533 32.088 73.3533C31.874 73.3533 31.6731 73.2696 31.5225 73.1176C31.3718 72.9656 31.2899 72.7641 31.2918 72.5501L31.3142 70.0594C31.3162 69.8311 31.4132 69.6076 31.5804 69.4464C31.7374 69.2949 31.9359 69.2136 32.1456 69.2198C32.5818 69.2313 32.9349 69.5961 32.9325 70.0329C32.9314 70.2307 33.021 70.4182 33.1757 70.5415C33.3305 70.6649 33.5333 70.7105 33.7257 70.6652L37.1301 69.867C37.4907 69.7824 37.7663 69.4784 37.8159 69.1103C38.0671 67.2475 38.6715 65.4767 39.6123 63.8468C39.8021 63.5177 39.7647 63.1024 39.5188 62.8135L37.8954 60.9068C37.7685 60.7578 37.5819 60.6741 37.385 60.6799C37.1893 60.6856 37.0067 60.7797 36.8885 60.9358L36.7478 61.1218C36.6427 61.2608 36.4894 61.3482 36.3162 61.3681C36.1435 61.3879 35.9738 61.3371 35.8392 61.225C35.5848 61.0131 35.5506 60.6123 35.7628 60.3317L36.8442 58.9019C37.0541 58.6244 37.4507 58.5693 37.7283 58.7793C37.9882 58.9758 38.0547 59.3449 37.8799 59.6197C37.7785 59.7793 37.752 59.9752 37.8076 60.1559C37.8631 60.3367 37.995 60.484 38.1685 60.559L40.4386 61.5408C40.7905 61.6932 41.2013 61.6048 41.4609 61.3207C42.4944 60.1886 43.6923 59.2324 45.0219 58.4788C45.3439 58.296 45.5235 57.9278 45.4687 57.5622L44.9457 54.0827C44.9166 53.889 44.8012 53.719 44.632 53.6205C44.4626 53.5219 44.2576 53.5056 44.0752 53.5758L43.5798 53.7664C43.4012 53.8349 43.2076 53.8278 43.0346 53.746C42.8617 53.6643 42.7332 53.5187 42.6727 53.336C42.5583 52.9909 42.7578 52.5976 43.1176 52.4593L45.6472 51.4863C45.8258 51.4176 46.0194 51.4249 46.1924 51.5067C46.3653 51.5884 46.4938 51.734 46.5544 51.9167C46.6687 52.2618 46.4692 52.6551 46.1094 52.7935L46.041 52.8199C45.856 52.8911 45.7139 53.0433 45.6556 53.2327C45.5974 53.4221 45.6293 53.6279 45.7424 53.7907L47.7337 56.6614C47.9444 56.965 48.3276 57.11 48.6875 57.0219C49.8098 56.747 50.9708 56.6076 52.1395 56.6076H52.1398C52.5208 56.6076 52.8624 56.3674 52.9898 56.0103L53.6491 54.1654C53.7083 53.9998 53.6974 53.8173 53.619 53.6601C53.5406 53.5027 53.4016 53.3841 53.2337 53.3316C52.7536 53.1815 52.4482 52.7099 52.5074 52.2105C52.539 51.9447 52.6786 51.7029 52.9004 51.5294C53.1333 51.3471 53.4314 51.2634 53.7185 51.2996L54.6241 51.4136C55.211 51.4875 55.6385 52.0067 55.5771 52.5709C55.5297 53.0064 55.2248 53.3596 54.8003 53.4707C54.4895 53.5521 54.2857 53.8497 54.3223 54.169L54.5514 56.1683C54.5951 56.5498 54.877 56.8617 55.2532 56.9445C56.6957 57.2613 58.078 57.7984 59.3613 58.5405C59.6828 58.7265 60.0918 58.6945 60.3793 58.4611L63.1115 56.2434C63.2636 56.12 63.3513 55.9342 63.3503 55.7384C63.3492 55.5427 63.2593 55.3579 63.1061 55.2361L62.6904 54.9061C62.5406 54.7872 62.4484 54.6167 62.4311 54.4259C62.4137 54.2355 62.4739 54.0509 62.6005 53.906C62.8396 53.6321 63.2798 53.6043 63.5818 53.844L65.7044 55.5292C65.8543 55.6482 65.9464 55.8187 65.9638 56.0093C65.9811 56.1997 65.921 56.3843 65.7943 56.5293C65.5551 56.8031 65.1148 56.8308 64.8132 56.5914L64.7559 56.5459C64.6006 56.4226 64.3972 56.3774 64.2046 56.4234C64.0117 56.4694 63.8507 56.6014 63.7677 56.7815L62.3043 59.9582C62.1496 60.2942 62.2197 60.6983 62.4787 60.9636C62.5705 61.0576 62.6611 61.1549 62.769 61.2721C63.0106 61.5346 63.4192 61.5514 63.6816 61.3098C63.944 61.0682 63.9609 60.6597 63.7193 60.3972C63.6737 60.3475 63.6307 60.301 63.5891 60.2565L64.6519 57.9493C65.3955 58.1925 66.2321 57.9917 66.7671 57.3792C67.1283 56.9658 67.2998 56.4377 67.25 55.8922C67.201 55.3544 66.9304 54.8535 66.5075 54.5178L64.3849 52.8326C63.5368 52.1593 62.3257 52.2574 61.6277 53.0564C61.2666 53.4698 61.0951 53.998 61.1448 54.5435C61.1856 54.9911 61.3798 55.4132 61.6878 55.7357L59.7739 57.2895C58.5236 56.5947 57.1902 56.0762 55.8035 55.7455L55.6616 54.5066C56.318 54.1436 56.7785 53.475 56.8617 52.7108C56.9989 51.4503 56.0676 50.2936 54.7859 50.1321L53.8803 50.0181C53.2547 49.9394 52.6074 50.1194 52.1053 50.512C51.6103 50.899 51.2977 51.4482 51.2253 52.0582C51.1199 52.9452 51.5291 53.7927 52.2398 54.272L51.8658 55.3183C50.7775 55.3369 49.6959 55.4668 48.6429 55.7054L47.1976 53.6219C47.7844 53.1049 48.0365 52.2821 47.7807 51.5102C47.6078 50.9892 47.24 50.5733 46.7448 50.3391C46.2566 50.1082 45.6878 50.0869 45.1838 50.2808L42.6543 51.2536C41.6434 51.6423 41.1131 52.7356 41.4469 53.7425C41.6197 54.2635 41.9874 54.6794 42.4827 54.9136C42.8889 55.1058 43.3509 55.1529 43.7854 55.0513L44.1519 57.4898C42.8767 58.2416 41.7166 59.167 40.6973 60.2452L39.2392 59.6146C39.3576 58.9243 39.0939 58.1925 38.5077 57.749C38.098 57.4392 37.5925 57.3072 37.0836 57.378C36.5748 57.4486 36.124 57.7131 35.8143 58.1227L34.7329 59.5525C34.1 60.3889 34.2229 61.5595 35.0125 62.2173C35.4211 62.5577 35.9363 62.7119 36.4637 62.6513C36.7961 62.6132 37.112 62.4875 37.3791 62.2927L38.3574 63.4418C37.4534 65.0725 36.8543 66.8291 36.5741 68.6707L34.0752 69.2566C33.7718 68.4995 33.0378 67.9512 32.1798 67.9286C31.6212 67.9145 31.0919 68.1228 30.6834 68.5169C30.2687 68.9172 30.0277 69.4751 30.0225 70.0477L30.0001 72.5385C29.9951 73.0997 30.2099 73.6283 30.6049 74.0269C30.9999 74.4256 31.5266 74.645 32.0879 74.645C33.1083 74.6451 33.9673 73.9119 34.161 72.9445Z" fill="#CB1717"/>
<path d="M48.9398 69.4188C49.2548 69.2519 49.375 68.8609 49.2079 68.5458C49.0409 68.2308 48.6502 68.1104 48.3348 68.2776C46.7914 69.0957 45.0323 68.8794 44.1525 67.7631C43.6588 67.1369 43.489 66.3071 43.6743 65.4266C43.8686 64.5033 44.4242 63.6413 45.2387 62.9993C46.053 62.3573 47.0211 62.0189 47.9641 62.0451C48.8635 62.0705 49.6306 62.4294 50.1244 63.0557C50.8656 63.9961 50.8562 65.3997 50.1004 66.6317C49.9138 66.9358 50.009 67.3334 50.3131 67.5199C50.6171 67.7065 51.0148 67.6112 51.2013 67.3072C52.2434 65.6088 52.2187 63.6261 51.1387 62.256C50.4039 61.3238 49.2894 60.7904 48.0006 60.754C46.7551 60.7179 45.4906 61.156 44.4391 61.985C43.3873 62.8139 42.6669 63.9418 42.4103 65.1606C42.1447 66.4223 42.4033 67.6306 43.138 68.5627C43.9117 69.5442 45.1232 70.0605 46.4266 70.0604C47.2569 70.0604 48.1245 69.851 48.9398 69.4188Z" fill="#CB1717"/>
<path d="M61.4722 63.6269C61.4722 62.288 60.2262 61.1987 58.6946 61.1987C57.1631 61.1987 55.917 62.288 55.917 63.6269C55.917 64.9659 57.1631 66.0552 58.6946 66.0552C60.2262 66.0552 61.4722 64.9659 61.4722 63.6269ZM57.2087 63.6269C57.2087 63.0002 57.8753 62.4904 58.6947 62.4904C59.5141 62.4904 60.1806 63.0002 60.1806 63.6269C60.1806 64.2536 59.5141 64.7635 58.6947 64.7635C57.8753 64.7635 57.2087 64.2536 57.2087 63.6269Z" fill="#CB1717"/>
<path d="M53.9753 74.7278C53.9753 73.0869 52.6403 71.752 50.9994 71.752C49.3584 71.752 48.0234 73.0869 48.0234 74.7278C48.0234 76.3687 49.3584 77.7037 50.9994 77.7037C52.6403 77.7037 53.9753 76.3687 53.9753 74.7278ZM49.3152 74.7278C49.3152 73.7991 50.0707 73.0436 50.9995 73.0436C51.9281 73.0436 52.6837 73.7991 52.6837 74.7278C52.6837 75.6565 51.9282 76.412 50.9995 76.412C50.0707 76.412 49.3152 75.6565 49.3152 74.7278Z" fill="#CB1717"/>
<path d="M62.3978 73.5115C62.3978 72.2354 61.3597 71.1973 60.0836 71.1973C58.8077 71.1973 57.7695 72.2354 57.7695 73.5115C57.7695 74.7875 58.8077 75.8257 60.0836 75.8257C61.3597 75.8256 62.3978 74.7875 62.3978 73.5115ZM59.0611 73.5115C59.0611 72.9476 59.5198 72.4889 60.0836 72.4889C60.6474 72.4889 61.1061 72.9476 61.1061 73.5115C61.1061 74.0753 60.6474 74.534 60.0836 74.534C59.5199 74.5339 59.0611 74.0753 59.0611 73.5115Z" fill="#CB1717"/>
<path d="M53.9202 83.9225C55.1706 83.9225 56.188 82.9052 56.188 81.6548C56.188 80.4044 55.1707 79.387 53.9202 79.387C52.6697 79.387 51.6523 80.4043 51.6523 81.6548C51.6523 82.9052 52.6696 83.9225 53.9202 83.9225ZM53.9202 80.6786C54.4585 80.6786 54.8964 81.1165 54.8964 81.6548C54.8964 82.193 54.4585 82.6309 53.9202 82.6309C53.3819 82.6309 52.944 82.193 52.944 81.6548C52.944 81.1165 53.3819 80.6786 53.9202 80.6786Z" fill="#CB1717"/>
<path d="M43.772 80.1102C45.0598 80.1102 46.1075 79.0625 46.1075 77.7747C46.1075 76.4869 45.0598 75.4392 43.772 75.4392C42.4842 75.4392 41.4365 76.4869 41.4365 77.7747C41.4365 79.0625 42.4842 80.1102 43.772 80.1102ZM43.772 76.7309C44.3476 76.7309 44.8158 77.1991 44.8158 77.7747C44.8158 78.3502 44.3476 78.8185 43.772 78.8185C43.1964 78.8185 42.7282 78.3502 42.7282 77.7747C42.7282 77.1991 43.1964 76.7309 43.772 76.7309Z" fill="#CB1717"/>
<path d="M56.9251 69.6907C56.9251 69.3341 56.636 69.0449 56.2792 69.0449H55.7083C55.3516 69.0449 55.0625 69.3341 55.0625 69.6907C55.0625 70.0474 55.3516 70.3366 55.7083 70.3366H56.2792C56.636 70.3366 56.9251 70.0474 56.9251 69.6907Z" fill="#CB1717"/>
<path d="M48.0843 81.6276H48.6709C49.0276 81.6276 49.3167 81.3384 49.3167 80.9818C49.3167 80.6251 49.0276 80.3359 48.6709 80.3359H48.0843C47.7275 80.3359 47.4385 80.6251 47.4385 80.9818C47.4385 81.3384 47.7276 81.6276 48.0843 81.6276Z" fill="#CB1717"/>
<path d="M42.6474 72.2228C43.0042 72.2228 43.2932 71.9336 43.2932 71.577C43.2932 71.2203 43.0042 70.9312 42.6474 70.9312H42.0823C41.7256 70.9312 41.4365 71.2203 41.4365 71.577C41.4365 71.9336 41.7256 72.2228 42.0823 72.2228H42.6474Z" fill="#CB1717"/>
<path d="M58.4154 78.2324C58.0586 78.2324 57.7695 78.5216 57.7695 78.8782C57.7695 79.2349 58.0586 79.5241 58.4154 79.5241H59.2837C59.6404 79.5241 59.9295 79.2349 59.9295 78.8782C59.9295 78.5216 59.6404 78.2324 59.2837 78.2324H58.4154Z" fill="#CB1717"/>
<defs>
<clipPath id="clip0">
<rect width="30" height="30" fill="white" transform="translate(56)"/>
</clipPath>
<clipPath id="clip1">
<rect width="25" height="25" fill="white" transform="translate(0 13)"/>
</clipPath>
</defs>
</svg>
