<svg width="55" height="56" viewBox="0 0 55 56" fill="none" xmlns="http://www.w3.org/2000/svg">
<path d="M29.2939 45.2007C30.3358 47.0288 32.2799 48.155 34.3834 48.1488H40.2774C41.329 48.1462 42.3355 47.7213 43.0711 46.9696C41.4999 46.6883 40.0035 46.0862 38.6752 45.2007H29.2939Z" fill="#00ACDE"/>
<path d="M36.682 54.185C36.8858 54.6981 37.3836 55.0333 37.9355 55.0292C38.6892 55.0281 39.2999 54.4171 39.3009 53.6631V50.1152H35.1172L36.682 54.185Z" fill="#00ACDE"/>
<path d="M22.7917 30.4621H32.2221C41.2133 22.6363 47.1535 17.4528 47.1535 10.5733C47.1535 4.54476 43.1416 0 37.8214 0C31.3969 0 28.5118 5.83596 28.391 6.08457C28.2277 6.42468 27.8841 6.6412 27.5069 6.64173C27.1322 6.63099 26.7932 6.4166 26.6228 6.0826C26.502 5.83596 23.6169 0 17.1925 0C11.8722 0 7.86035 4.54476 7.86035 10.5733C7.86035 17.4528 13.8005 22.6363 22.7917 30.4621ZM18.666 16.705C18.666 15.6196 19.5456 14.7397 20.6306 14.7397H24.5599V10.8091C24.5599 9.72374 25.4395 8.84385 26.5246 8.84385H28.4892C29.5743 8.84385 30.4539 9.72374 30.4539 10.8091V14.7397H34.3832C35.4683 14.7397 36.3479 15.6196 36.3479 16.705V18.6703C36.3479 19.7558 35.4683 20.6356 34.3832 20.6356H30.4539V24.5662C30.4539 25.6517 29.5743 26.5315 28.4892 26.5315H26.5246C25.4395 26.5315 24.5599 25.6517 24.5599 24.5662V20.6356H20.6306C19.5456 20.6356 18.666 19.7558 18.666 18.6703V16.705ZM13.5873 15.8442C13.7953 16.1355 13.8285 16.5168 13.674 16.8396C13.5195 17.1625 13.2018 17.3757 12.8446 17.3964C12.4874 17.417 12.1473 17.2418 11.9567 16.9389C10.6067 15.0882 9.86217 12.865 9.82501 10.5743C9.73279 7.65934 11.0581 4.88035 13.381 3.11795C13.6711 2.92012 14.0446 2.89212 14.3609 3.04449C14.6772 3.19686 14.8882 3.50645 14.9145 3.85665C14.9407 4.20685 14.7782 4.54444 14.4881 4.74227C12.7129 6.14659 11.7111 8.3117 11.7897 10.5743C11.8337 12.4739 12.4613 14.3139 13.5873 15.8442Z" fill="#FF6969"/>
<path d="M15.9606 11.5142C15.9606 10.4674 14.9138 8.37381 17.0073 3.13987C16.6592 3.48797 15.5471 2.93189 13.8788 2.09777L13.8669 2.0918C11.7733 1.04501 10.7266 7.32702 9.67983 8.37381C8.63304 9.4206 10.7266 16.7481 11.7734 17.7949C12.6108 18.6323 14.9138 18.8417 15.9606 18.8417V11.5142Z" fill="#FF6969"/>
<path d="M26.5268 19.6551V24.5685H28.4914V19.6551C28.4914 19.1124 28.9312 18.6725 29.4738 18.6725H34.3854V16.7071H29.4738C28.9312 16.7071 28.4914 16.2671 28.4914 15.7244V10.811H26.5268V15.7244C26.5268 16.2671 26.087 16.7071 25.5445 16.7071H20.6328V18.6725H25.5445C26.087 18.6725 26.5268 19.1124 26.5268 19.6551Z" fill="#FF6969"/>
<path d="M51.9683 28.2661C51.6673 28.9004 51.3054 29.504 50.8878 30.0683C50.7022 30.3158 50.4111 30.4614 50.1019 30.4614C49.8892 30.4623 49.6821 30.3933 49.5125 30.2649C49.0785 29.9392 48.9905 29.3233 49.316 28.8891C49.896 28.1191 50.3453 27.259 50.6461 26.3431C50.9416 25.453 51.0895 24.5206 51.0842 23.5827C51.0761 20.878 49.8361 18.3244 47.7158 16.6461C45.5842 21.1664 41.1391 25.2837 35.2108 30.4614H36.3493C36.8918 30.4614 37.3316 30.9014 37.3316 31.4441C37.3316 31.9868 36.8918 32.4267 36.3493 32.4267H18.6674C18.1249 32.4267 17.6851 31.9868 17.6851 31.4441C17.6851 30.9014 18.1249 30.4614 18.6674 30.4614H19.8059C13.5593 25.0076 8.95217 20.733 6.9718 15.918C5.19687 17.1046 4.07889 19.0534 3.95015 21.185C3.85865 22.4956 4.15085 23.8045 4.79103 24.9516C5.0547 25.4259 4.88405 26.0243 4.40988 26.288C3.93572 26.5518 3.33758 26.3811 3.07392 25.9067C2.63588 25.1053 2.32565 24.2402 2.15446 23.343C-0.691031 26.8988 -0.720823 31.9447 2.08248 35.5339C4.88578 39.1231 9.78731 40.3149 13.9247 38.4131C14.8986 37.9664 15.7926 37.3629 16.5711 36.6266C16.9658 36.2541 17.5877 36.2721 17.9601 36.6669C18.3326 37.0617 18.3145 37.6838 17.9198 38.0564C17.2301 38.7074 16.4642 39.2726 15.6389 39.7397C16.848 41.9044 19.1355 43.2429 21.6144 43.236H39.2963C41.4664 43.236 43.2256 41.4762 43.2256 39.3054C43.2256 38.7627 43.6654 38.3227 44.2079 38.3227C44.7505 38.3227 45.1903 38.7627 45.1903 39.3054C45.1875 41.5689 43.8896 43.6309 41.8503 44.6118C46.216 46.1833 51.0856 44.4849 53.5282 40.5389C55.9709 36.5928 55.3204 31.4752 51.9683 28.2661ZM11.7911 34.3921C11.2486 34.3921 10.8088 33.9521 10.8088 33.4094C10.8088 31.2385 9.04956 29.4787 6.87946 29.4787C6.33693 29.4787 5.89713 29.0388 5.89713 28.4961C5.89713 27.9534 6.33693 27.5134 6.87946 27.5134C10.1333 27.5167 12.7702 30.1545 12.7734 33.4094C12.7734 33.9521 12.3336 34.3921 11.7911 34.3921ZM36.7884 39.2012C36.6522 39.2699 36.5018 39.3055 36.3493 39.3054C35.9752 39.3074 35.6324 39.0967 35.4652 38.762C35.0336 37.8893 34.1437 37.3379 33.1705 37.34H24.5614C24.0188 37.34 23.579 36.9001 23.579 36.3574C23.579 35.8147 24.0188 35.3747 24.5614 35.3747H33.1705C34.8919 35.3685 36.4674 36.3413 37.2334 37.8835C37.3493 38.1172 37.3675 38.3874 37.2841 38.6346C37.2006 38.8818 37.0223 39.0857 36.7884 39.2012Z" fill="#00ACDE"/>
<path d="M34.8105 39.7789C33.9731 39.7789 26.7851 38.3831 23.2959 37.6853C21.621 36.0104 21.9001 35.5917 22.2491 35.5917L25.3894 34.5449H36.9041C37.602 34.8939 38.9977 36.0104 38.9977 37.6853C38.9977 39.7789 35.8573 39.7789 34.8105 39.7789Z" fill="#00ACDE"/>
<path d="M5.49455 27.2172C2.98226 28.0546 7.2392 33.149 9.6817 35.5915H12.8217C14.9153 35.5915 12.8217 31.4044 11.775 28.264C10.7282 25.1236 8.63492 26.1704 5.49455 27.2172Z" fill="#00ACDE"/>
</svg>
