<svg width="70" height="70" viewBox="0 0 70 70" fill="none" xmlns="http://www.w3.org/2000/svg">
<circle cx="35" cy="35" r="35" fill="#D40000"/>
<g clip-path="url(#clip0)">
<path d="M26.9279 45.0001C26.7444 45.0002 26.565 44.9458 26.4124 44.8438C26.2598 44.7419 26.1409 44.597 26.0706 44.4274C26.0004 44.2579 25.982 44.0713 26.0178 43.8913C26.0536 43.7114 26.142 43.546 26.2718 43.4163L43.4163 26.2718C43.5904 26.0978 43.8264 26 44.0724 26C44.3185 26 44.5545 26.0978 44.7285 26.2718C44.9025 26.4458 45.0003 26.6818 45.0003 26.9279C45.0003 27.1739 44.9025 27.4099 44.7285 27.584L27.584 44.7285C27.4979 44.8147 27.3956 44.8831 27.2831 44.9298C27.1705 44.9764 27.0498 45.0003 26.9279 45.0001Z" fill="white"/>
<path d="M44.0724 45.0001C43.9505 45.0003 43.8298 44.9764 43.7172 44.9298C43.6046 44.8831 43.5024 44.8147 43.4163 44.7285L26.2718 27.584C26.0978 27.4099 26 27.1739 26 26.9279C26 26.6818 26.0978 26.4458 26.2718 26.2718C26.4458 26.0978 26.6818 26 26.9279 26C27.1739 26 27.4099 26.0978 27.584 26.2718L44.7285 43.4163C44.8583 43.546 44.9466 43.7114 44.9825 43.8913C45.0183 44.0713 44.9999 44.2579 44.9297 44.4274C44.8594 44.597 44.7405 44.7419 44.5879 44.8438C44.4353 44.9458 44.2559 45.0002 44.0724 45.0001Z" fill="white"/>
</g>
<defs>
<clipPath id="clip0">
<rect width="19" height="19" fill="white" transform="translate(26 26)"/>
</clipPath>
</defs>
</svg>
